<svg xmlns="http://www.w3.org/2000/svg" width="512" height="512" viewBox="0 0 512 512"><path fill="#CF2028" d="M512 472c0 22.1-17.9 40-40 40H40c-22.1 0-40-17.9-40-40V40C0 17.9 17.9 0 40 0h432c22.1 0 40 17.9 40 40v432z"/><path fill-rule="evenodd" clip-rule="evenodd" fill="#FFF" d="M58.5 246.4c1.2-4.9 2.6-10.6 10.8-10.6h33c12.1 0 10.5 6.7 9.5 10.6l-4.4 18h-35l-1.3 5.5c-.9 3.6 1.5 5.8 6 5.8h27.5l-3.1 12.7H60.8c-12.4 0-11.3-4.5-9.8-10.7l7.5-31.3zm16.4 8.1h16.4l1.1-4.4c.3-1.3.8-3.5-2.3-3.5h-9.9c-2.6 0-3.6 1.6-4.1 3.3l-1.2 4.6zm87.4-18.7h-32c-9.8 0-11.2 5.6-12.4 10.8-1.2 5.2.6 10 7 14.5s13.4 7.5 12.2 11.6c-.5 1.7-2.6 2.9-6.9 2.9h-19.3l-3.1 12.7h31.8c6.2 0 13.9.1 17.6-5.7 3.7-5.9 2.6-10.6-.7-15.4-3.3-4.9-9.8-8-14.6-12.7-2.8-2.8-2.7-7.8 1.9-7.8h15.9l2.6-10.9zm6 0h10.3l3.3-13.6h18.7l-3.3 13.6h9.6c-.9 3.6-1.7 7.2-2.6 10.8h-9.6l-5.9 24.6c-1.1 4.5.3 6.3 6 6.3l-2.6 10.8h-13.7c-12.5 0-10.5-8.6-9.5-12.7l7-29h-10.3l2.6-10.8zm41.9 10.9l2.6-10.8h39.9c9.7 0 8.5 7.2 7.7 10.8l-7.5 30.9c-2 8.1.5 8.7 2.1 10.8h-17.8c-2 0-4.6-1.5-5.5-2.4-4.2 1.3-4.5 4-13.2 3.8-8.8-.2-18.5-8-17.7-18.4.8-10.5 10-16.8 18.2-16.8h20.3l1.2-4.8c.7-3.1-1.7-3.1-3.1-3.1h-27.2zm27.5 16.6h-12.3c-5 0-11.9 6-6.1 12 5.8 6 16.3-3 18.4-12zm69.5-41.1h-17.6c-4.5 0-10.3 0-12.6 9.6l-1 4h-7.8l-2.6 10.8h7.9l-9.1 37.7c-.4 1.6-1 2.7-3 4h14.3c4.8 0 7.4-4.5 8.9-10.8l7.5-30.9h9.2l2.6-10.8h-9.3l.6-2.3c.4-1.7 1.8-2.9 4.3-2.9l5.6.1 2.1-8.5zm.6 24.2c1.2-4.9 2.6-10.6 10.8-10.6h33c12.1 0 10.5 6.7 9.5 10.6l-4.4 18h-35l-1.3 5.5c-.9 3.6 1.5 5.8 6 5.8h27.5l-3.1 12.7h-40.9c-12.4 0-11.3-4.5-9.8-10.7l7.7-31.3zm16.4 8.1h16.4l1.1-4.4c.3-1.3.8-3.5-2.3-3.5h-9.9c-2.6 0-3.6 1.6-4.1 3.3l-1.2 4.6zm45-18.7h10.3l3.3-13.6h18.7l-3.3 13.6h9.6c-.9 3.6-1.7 7.2-2.6 10.8h-9.6l-5.9 24.6c-1.1 4.5.3 6.3 6 6.3l-2.6 10.8h-13.7c-12.5 0-10.5-8.6-9.5-12.7l7-29h-10.3l2.6-10.8zm41.9 10.9l2.6-10.8h39.9c9.7 0 8.5 7.2 7.7 10.8l-7.5 30.9c-2 8.1.5 8.7 2.1 10.8h-17.8c-2 0-4.6-1.5-5.5-2.4-4.2 1.3-4.5 4-13.2 3.8-8.7-.2-18.5-8-17.7-18.4.8-10.5 10-16.8 18.2-16.8h20.3l1.2-4.8c.7-3.1-1.7-3.1-3.1-3.1h-27.2zm27.5 16.6h-12.3c-5 0-11.9 6-6.1 12 5.8 6 16.3-3 18.4-12z"/></svg>