<svg xmlns="http://www.w3.org/2000/svg" width="512" height="512" viewBox="0 0 512 512"><path fill="#D52E26" d="M512 472c0 22.1-17.9 40-40 40H40c-22.1 0-40-17.9-40-40V40C0 17.9 17.9 0 40 0h432c22.1 0 40 17.9 40 40v432z"/><path fill="#FFF" d="M76.2 223.1h22.2l1.3.1 1.2.1 1.2.1 1.1.2 1 .1 1 .3.9.3.8.3.8.3.6.4.6.3.5.4.5.5.5.5.3.5.3.7.2.6.2.7.1.7V231.9l-.1 1-.2 1-.2 1-.3 1.1-.4 1.2-.5 1.2-.5 1.4-.5 1.3-.6 1.4-2 4.2-.6 1.4-.6 1.3-.7 1.2-.8 1.2-.6 1.1-.8 1-.8 1.1-.8.9-.8 1-.8.8-.9.8-.8.8-1 .6-.9.7-1 .6-1 .5-.8.4-.8.4-.9.4-.9.3-1 .3-1 .3-2.1.5 1.2.2 1 .2 1 .3.8.3.7.3.7.3.5.3.5.3.3.4.3.5.2.5.2.5.1.6v1.4l-.1.8-.1.9-.2.8-.3 1-.3 1-.4 1.1-.5 1.2-.6 1.2-.6 1.3-4.3 9.2h-9.6v-32.1l.4-.1 1.2-.1 1-.2.9-.3.8-.3.7-.3.8-.5.8-.6.8-.8.7-.8.8-.9.6-1.1.7-1.2.6-1.3 2-4.3.4-.9.3-.8.1-.8.1-.6-.1-.3v-.3l-.1-.3-.1-.3-.1-.2-.2-.2-.2-.2-.2-.1-.3-.2-.5-.2-.6-.1-.6-.1-.7-.1-.8-.1-2.1-.1h-7.3v-15zm-47 65.9l31.1-65.9h16v15.3h-5.2L62.4 257h10.4l1.4-.1 1.4-.1h.8V289h-7.9l4.3-9.2.5-1 .3-1 .3-.8.1-.8.1-.7-.1-.6-.1-.5-.2-.5-.3-.4-.4-.4-.5-.3-.6-.3-.7-.1-.8-.2-1-.1H55.1L47.3 289H29.2zM92.2 289l31-65.9h48l-6.8 14.5h-30l-5.7 12.3h28l-5.7 12.2h-28.1l-5.8 12.4h30.5l-6.9 14.5zM190.4 223.1H213.8l1.8.1 1.6.2 1.5.2 1.4.2 1.4.4 1.2.3 1.2.5 1 .5 1 .6.8.6.8.6.6.8.5.8.4.8.3.9.2.8.1.9.1.9-.1 1.1-.1 1-.2 1.3-.2 1.2-.4 1.4-.4 1.4-.5 1.5-.6 1.6-.6 1.6-.6 1.7-.8 1.8-.8 1.9-.9 2-3.3 6.8-.9 2-1 2-1 1.8-1 1.8-.9 1.7-1 1.5-.9 1.6-1 1.4-1 1.4-1 1.3-1 1.3-1 1.1-.9 1-1 1-1 .9-.9.8-1.2.8-1.2.8-1.2.8-1.4.7-1.3.6-1.4.6-1.5.5-1.5.5-1.5.5-1.6.3-.3.1v-14.8h.1l.6-.3.6-.2.6-.2.6-.3.6-.3.5-.4.5-.4.6-.5.5-.5.5-.5.5-.6.5-.6.5-.8.6-1 .6-1.1 1.5-2.8 1.7-3.6 3.2-6.6 1.5-3.4 1.2-2.8.8-2 .3-.7.1-.6.1-.6.1-.5v-.6l-.1-.5-.1-.5-.2-.4-.2-.4-.3-.3-.3-.3-.4-.3-.4-.2-.5-.2-.5-.1-.6-.1-.6-.1h-14.9v-15.1zM146.2 289l31-65.9h13.2v15.3h-2.3l-16.6 35.3h16.3l.7-.1.7-.1.7-.1.5-.1v14.8l-1.4.3-1.7.2-1.8.2-1.8.2-2 .1h-35.5zM257.1 223.1H276l1.5.1 1.5.1 1.4.1 1.3.1 1.3.2 1.1.3 1.1.3.9.3.8.4.8.3.6.4.6.5.5.5.5.5.5.6.3.6.3.8.2.8.1.9v.9l-.1 1-.1 1.1-.2 1.2-.3 1.2-.3 1.3-.5 1.4-.6 1.4-.6 1.5-.7 1.5-.7 1.7-2.5 5.2-.8 1.7-.8 1.6-.9 1.6-.9 1.5-.9 1.5-.8 1.3-1 1.4-1 1.2-1 1.2-1 1-1 1-1 .9-1.1.8-1 .7-1.1.7-1 .6-.8.5-1 .4-1 .4-1.1.4-1.2.3-1.2.3-1.3.3-1.4.3-1.4.2-1.4.2h-.5v-15h.2l1-.1.8-.2.8-.1.7-.1.6-.2.8-.4.8-.5.8-.6.7-.8.6-.8.6-1 .6-1 .6-1.2 2.3-5 .5-1 .4-1 .3-.9.2-.7V240.4l-.1-.5-.1-.3-.1-.1-.3-.3-.4-.3-.5-.2-.6-.1-.8-.1-.9-.1-1-.1H257v-15.2zM210.8 289l31.1-65.9h15.2v15.3h-4.4l-9 19.1h9.8l2.6-.1 1-.1v15l-1.1.1-1.7.1-1.6.1-1.7.1h-14.4l-7.6 16.2h-18.2zM310.2 230l5.7-6.9h27.5L330.6 289h-19l2.1-11h-3.5v-12.2h6.1l5.2-27-11.2 13.5V230zm-49 59l49-59v22.2L299 265.7h11.2v12.2h-21.5l-9 11h-18.5zM398.2 263.9l-.9 1.9-.8 1.8-.9 1.7-.8 1.5-1 1.6-.9 1.5-.9 1.4-1 1.4-.9 1.2-1 1.1-1 1.2-1 1-1.1.9-1 .9-1.1.8-1.1.7-.9.7-1.2.6-1.2.5-1.1.5-1.3.4-1.3.5-1.4.4-1.5.2-1.4.4-1.7.2-1.5.2-1.7.3-1.7.1-1.8.1H355l-2.1-.2-1.8-.1-1.8-.2-1.7-.3-1.5-.3-1.4-.4-1.3-.3-1.2-.4-1.1-.5-1-.6-.7-.5-.7-.6-.6-.7-.3-.4-.2-.3-.2-.4-.2-.4-.2-.9-.2-1.1-.1-1v-1.2l.1-1.2.2-1.5.2-1.4.4-1.6.5-1.7.6-1.7.6-1.9.7-1.9.9-2.1.9-2.1 1.1-2.3 3.1-6.7 1.1-2.3 1.1-2.1 1.1-2 1-2 1.1-1.9 1.1-1.8 1.1-1.6 1.1-1.5 1.1-1.5 1.1-1.4 1.2-1.3 1-1.2 1.2-1 1.1-1.1 1.2-.9 1.1-.8 1.1-.7 1.2-.7 1.3-.6 1.4-.6 1.5-.5 1.5-.4 1.6-.5 1.6-.4 1.8-.4 1.8-.2 1.9-.3 2-.2 2-.2 2.1-.1 2.2-.1h5.8l1.6.2 1.6.1 1.5.2 1.3.2 1.3.2 1.2.2 1.1.4.9.3 1 .4.8.3.7.6.8.4.5.6.5.5.4.7.4.8.2.8.2.9.1 1v2.1l-.2 1.2-.2 1.2-.3 1.4-.4 1.4-.4 1.5-.6 1.5-.6 1.7-.7 1.6-.8 1.8-.1.2h-18.1l.6-1.4.5-1.2.3-1.2.3-1V240.1l-.2-.4-.1-.2-.2-.2-.2-.3-.2-.1-.6-.3-.6-.3-.8-.2-1.1-.2h-1.1l-1.3-.2H381l-.9.1-.8.1-.9.1-.9.1-.7.2-.8.1-.7.3-.7.3-.7.2-.6.3-.6.4-.6.3-.5.4-.5.4-.5.5-.6.7-.7.8-.7 1.1-.8 1.3-.8 1.5-.9 1.7-1 1.9-1 2.1-3.2 6.8-.9 2.2-.9 1.8-.7 1.8-.6 1.5-.4 1.2-.3 1.1-.2.9v.7l.1.4.1.5.2.3.2.4.3.4.3.3.4.2.4.3.6.2.6.2.6.1.7.2h.8l.8.2H366.4l1.4-.1 1.4-.1 1.2-.3 1.2-.2 1-.4.9-.3.7-.5.8-.6.8-.7.7-.8.7-1 .7-1.1.8-1.3.7-1.4.7-1.6zM409.1 289h-18.2l31.1-65.9h18.1z"/><path fill="#223C81" d="M425.2 254.6l37.3-31.3h20.3l-41.4 36.1 9.7 29.8h-18l-8.4-28.2-1-3.1z"/></svg>