<?xml version="1.0" encoding="utf-8"?>
<!-- Generator: Adobe Illustrator 18.1.1, SVG Export Plug-In . SVG Version: 6.00 Build 0)  -->
<svg version="1.1" id="manual_de_identidad_xA0_Imagen_1_"
	 xmlns="http://www.w3.org/2000/svg" xmlns:xlink="http://www.w3.org/1999/xlink" x="0px" y="0px" viewBox="-512.5 1292 1171.4 754"
	 enable-background="new -512.5 1292 1171.4 754" xml:space="preserve">
<g>
	<path fill="#000065" d="M621.3,767c-3.9-2.2-7.8-1.3-11.7-1.7C477,750.9,380.1,684.4,317.1,567.1c-0.9-1.3-1.7-2.6-1.7-3.9
		c-2.2-10-8.7-11.3-18.3-11.3c-42.2,0.4-84.3,0.4-126,0c-46.1,0-83-30.4-92.1-75.6c-10.9-53,30-106.5,83.9-109.1
		c36.5-1.7,73-0.4,109.5-0.4c8.7,0,8.7,0,10-8.7c7.8-56.9,26.9-109.5,60-156.9c57.4-82.6,136-133.8,235.1-152.5
		C760.4,14.8,942,129.9,990.2,309.8c4.8,16.9,8.3,34.3,10,52.1c0.4,3.9,1.7,5.2,5.6,5.2c34.3,0,68.7,0,103.4,0
		c36.9,0,65.6,15.6,83.9,47.8c31.7,56.5-4.3,128.2-68.2,136.4c-5.2,0.9-10,0.9-15.2,0.9c-44.3,0-88.2,0-132.5,0
		c-3.9,0-6.1,1.3-7.8,4.8C918.1,662.2,836,729.2,722.6,757.4c-20.4,5.2-40.8,7.4-61.7,8.7c-0.9,0-2.6-0.9-3,0.9c-2.6,0-5.6,0-8.3,0
		c-6.1-1.3-12.2-0.4-18.3-0.4c-2.6,0.4-5.2-0.4-7.8,0.4C621.7,767,621.3,767,621.3,767z"/>
	<path fill="#8C8CBA" d="M629.6,766.1c6.1,0.4,12.6-1.3,18.7,0.9c-6.1,0-12.6,0-18.7,0C629.1,767,629.1,766.5,629.6,766.1
		C629.1,766.1,629.1,766.1,629.6,766.1z"/>
	<path fill="#BEBED8" d="M629.6,766.1c0,0.4,0,0.4,0,0.9c-2.6,0-4.8,0-7.4,0C624.4,764.8,627,766.5,629.6,766.1z"/>
	<path fill="#EACA37" d="M720.4,366.3c2.6-4.3,5.6-8.3,8.7-12.2c2.2-2.2,5.2-3,8.3-2.6c5.6,0.9,11.3,1.7,16.9,2.6
		c4.3,0.9,8.3,0.9,12.6,0.4c11.3-1.3,18.7-8.7,20-20.4c0.9-5.2-0.9-10.4,0.9-14.8c1.7-4.8,8.7-3.9,12.6-7c7.4-6.1,12.6-13.5,13.9-23
		c0.9-8.7-2.6-14.8-10-19.1c-11.7-6.5-23-13.5-34.8-20c-2.6-1.3-3.9-3-4.3-6.1c-2.6-13-5.6-26.1-8.3-39.1c-0.9-3.5-2.6-6.5-5.6-8.3
		c-9.1-5.6-18.3-11.7-26.9-17.4c-3.9-2.6-7.4-2.6-11.3-0.4c-7.8,4.8-16.5,7.8-25.6,10c-33.5,7.8-64.3,42.2-54.3,89.1
		c2.6,12.6,6.1,25.2,7,38.2c0.9,8.3,0,16.1-1.7,23.9c-1.7,0.4-2.2-0.9-3-1.7c-12.2-13.9-24.3-28.2-36.5-42.2
		c-2.2-2.6-2.6-4.8-0.9-7.8c5.2-9.6,9.6-19.6,14.8-29.1c2.6-4.8,1.7-8.7-2.2-12.6c-6.1-6.1-12.2-11.7-18.3-17.8
		c-3.9-3.9-7.8-4.8-12.6-2.2c-2.6,1.3-5.2,2.6-8.3,3.5c-7,3-13.9,6.1-22.2,7.4c-11.3,1.7-21.3,7.4-30.4,14.3
		c4.3,1.7,8.3,3.5,12.2,5.2c2.2,0.9,3.9,2.6,2.6,5.2s-3.5,1.3-5.6,0.4c-18.7-7.8-14.8-8.3-28.2,6.5c-9.1,10.4-15.2,22.2-15.6,36.5
		c0,6.1-4.3,11.3-7,17.4c-4.3,10-4.3,10.9,3,18.7c4.8,4.8,9.1,10,13.9,14.8c3.9,4.3,7.8,4.8,13,2.6c9.6-4.3,19.6-8.7,29.1-12.6
		c1.7-0.9,3-1.7,5.2,0c5.2,6.5,10.9,13,16.5,19.6c-2.2,1.3-3.9,0.9-5.2,0.9c-53,0-106.5,0-159.5,0c-4.3,0-5.2-0.9-4.3-5.6
		c18.3-106,102.6-190.3,208.1-207.7c133.4-21.7,259,61.7,290.3,192.5c1.3,5.2,2.2,10.4,3,15.6c0.9,3.9-0.4,4.8-3.9,4.8
		c-26.5,0-53,0-79.1,0c-26.9,0-54.3,0-81.3,0C724.3,367.2,722.6,367.6,720.4,366.3z"/>
	<path fill="#EACA37" d="M434,552.3c33.5,0,66.5,0,100.4,0c-2.6,8.3-3.9,16.5-1.3,25.2c3.5,13,11.3,22.2,24.8,25.6
		c14.8,3.9,26.9-0.9,37.4-11.3c3-3,5.6-6.5,7.4-10.4c4.8-8.7,9.6-17.4,14.3-26.1c0.9-2.2,2.2-3,4.8-3c74.7,0,149.9,0,226,0
		c-22.2,30.9-49.1,55.2-81.3,73.9c-32.6,18.7-67.4,30-104.7,32.2c-94.7,6.1-170.3-30-228.1-104.3C433.6,553.2,433.6,552.7,434,552.3
		z"/>
	<path fill="#FEFEFE" d="M405.8,504.5c4.3-6.5,8.7-13,12.6-19.1c6.1-9.1,11.7-18.3,18.3-27.4c1.7-2.6,1.7-4.8,0-7.4
		c-9.6-14.3-18.7-28.2-28.2-43.5c7.8,0,14.8,0,21.7,0c2.2,0,2.6,1.7,3.5,3.5c5.6,9.1,11.7,18.3,17.8,28.2
		c6.1-9.6,11.7-18.7,16.9-27.8c1.7-2.6,3.5-3.9,6.5-3.5c6.1,0.4,11.7,0,17.8,0c0.9,1.7-0.4,2.6-1.3,3.9c-8.3,13-16.5,26.1-25.2,39.1
		c-2.6,3.9-2.2,6.5,0.4,10.4c10,14.8,20,29.5,30.4,45.6c-8.3,0-15.2,0-22.6,0c-2.2,0-2.6-1.7-3.5-3c-6.5-10-13-20-20-30.9
		c-6.5,10.4-13,20-19.1,30c-2.2,3.5-4.3,4.3-7.8,4.3c-11.3-0.4-23-0.4-34.3,0c-3.9,0-5.6-1.3-6.5-4.8c-1.7-4.8-3.9-9.6-5.6-14.8
		c-0.9-2.2-1.7-3.5-4.3-3.5c-11.3,0-22.2,0-33.5,0c-2.6,0-3.5,0.9-3.9,3c-1.7,5.6-3.9,10.9-6.1,16.5c-0.9,2.2-1.7,3-3.9,3
		c-4.8,0-9.6,0-14.8,0c-3.5,0-3.5-1.3-2.2-3.5c12.2-30.9,23.9-61.3,35.6-92.1c0.9-2.2,2.2-3,4.3-3c5.6,0,12.2-1.7,16.9,0.9
		c4.8,2.2,4.8,10,7,15.2C384.1,449.8,394.9,476.7,405.8,504.5z"/>
	<path fill="#FEFEFE" d="M620.4,431.5c-5.6,22.6-11.7,44.8-16.9,67.4c-1.3,5.2-3,7.4-8.7,7c-12.2-0.4-12.2,0-15.2-12.6
		c-4.8-19.1-9.6-38.2-14.3-57.4c-0.4-1.3-0.9-3-1.7-4.3c0,12.6,0,25.2,0,37.8c0,10.4,0,21.3,0,31.7c0,3.5-1.3,4.8-4.3,4.3
		c-4.8-0.4-10.9,2.2-13.5-1.3c-2.2-2.6-0.9-8.7-0.9-13c0-26.5,0-53,0-79.1c0-4.3,1.3-5.6,5.6-5.2c6.5,0.4,13,0.4,20,0
		c3.5,0,5.2,0.9,6.1,4.3c4.8,19.1,10,38.7,15.2,57.8c0.4,1.3,0.4,2.6,1.7,3c5.2-20.4,10.9-40.4,16.1-60.8c0.9-3,1.7-4.8,5.6-4.8
		c7.4,0.4,14.8,0.4,21.7,0c3,0,3.9,0.9,3.9,3.9c0,30.4,0,60.8,0,91.3c0,3-1.3,3.9-3.9,3.9c-3.5,0-7.4-0.4-10.9,0s-3.9-1.3-3.9-4.3
		c0-23.5,0-46.5,0-70C620.9,431.9,620.4,431.5,620.4,431.5z"/>
	<path fill="#FEFEFE" d="M684.3,206.4c-4.8,8.7-9.1,16.1-13.5,23.5c-6.1,10-5.2,19.6,0.4,28.7c3.5,5.2,7.8,9.6,13.5,13
		c3.5,2.2,7,4.3,10.9,6.5c6.5,3.5,11.7,7,12.6,15.6c0.9,6.5,6.1,11.3,12.2,14.8c6.5,3.5,13,7.4,19.6,11.3c7.4,4.3,15.2,4.8,23.5,1.7
		c5.2-1.7,8.3,0.4,8.3,5.6c0,10.9-2.6,13.5-13.5,11.7c-5.6-0.9-11.3-2.2-16.9-3c-10-1.3-18.7,1.3-24.8,9.6
		c-4.3,6.1-8.7,12.2-12.6,18.3c-1.7,2.6-3.5,3.5-6.5,3.5c-8.7,0-16.9-0.4-25.6,0c-7,0.4-11.7-1.7-16.1-7c-2.6-3-4.3-5.6-3-10
		c7.4-22.2,3.5-44.3-1.7-66.1c-3-13-6.1-26.5-1.7-40C655.2,227.3,666.1,214.7,684.3,206.4z"/>
	<path fill="#FEFEFE" d="M813.8,462.4c16.5,10.9,22.6,28.2,33.9,43.5c-8.3,0-15.6,0-22.6,0c-2.2,0-2.6-2.2-3.5-3.5
		c-6.5-9.1-13-18.7-19.1-27.8c-4.8-7.4-11.7-10.4-20.4-10c-3,0-3.5,0.9-3.5,3.5c0,11.3,0,22.2,0,33.5c0,3.5-0.9,4.8-4.3,4.3
		c-4.8-0.4-11.3,1.7-14.8-0.9c-3.5-2.6-0.9-9.6-0.9-14.3c0-26.1,0-52.6,0-78.7c0-3.9,0.9-5.2,4.8-4.8c17.4,0.4,34.8-0.9,52.1,0.9
		c14.8,1.7,23,10.9,23.9,24.3c0.9,15.2-6.5,25.2-21.3,29.1C816.9,461.5,816,461.9,813.8,462.4z"/>
	<path fill="#FEFEFE" d="M855.1,456.7c0-13,2.6-25.2,11.3-35.6c12.2-14.3,33.5-19.6,53.9-13c17.4,5.6,29.1,21.3,30.4,40.8
		c0.4,8.7,0.4,17.4-1.7,25.6c-5.2,18.7-20.4,31.3-40,32.6c-6.5,0.4-13,0.4-19.6-1.3c-18.7-4.8-31.7-20-33.5-40
		C855.5,462.8,855.5,459.8,855.1,456.7z"/>
	<path fill="#FEFEFE" d="M1044.6,505.8c-10.9,0-10.9,0-14.8-10c-4.8-12.2-4.8-12.2-17.8-12.2c-7.8,0-15.2,0-23,0
		c-2.6,0-3.5,0.9-4.3,3c-1.7,5.2-3.9,10.4-5.6,15.6c-0.9,2.6-2.2,3.9-5.2,3.9c-4.8-0.4-9.6,0-13.9,0c-2.6,0-3.5-0.9-2.2-3.5
		c12.2-30.9,24.3-62.1,36.1-93c0.4-1.7,1.3-2.6,3.5-2.6c0.4,0,0.9,0,1.7,0c5.6,0,12.6-1.7,16.9,0.9c3.9,2.6,4.8,9.6,6.5,14.8
		c10.4,26.1,20.9,51.7,30.9,77.8c2.2,5.2,2.2,5.2-3.5,5.2C1048,505.8,1046.3,505.8,1044.6,505.8z"/>
	<path fill="#FEFEFE" d="M649.1,505.8c4.8-11.7,9.1-23,13.5-34.3c7.8-20,15.6-40.4,23.5-60.4c1.3-3,2.6-3.9,5.6-3.9
		c5.6,0.4,12.6-2.2,16.5,0.9s4.8,9.6,7,14.8c10.4,26.1,20.9,52.1,31.3,78.2c1.7,3.9,1.3,5.2-3,4.8s-8.3-0.4-12.6,0
		c-3.5,0.4-4.8-1.3-6.1-4.3c-2.2-6.1-3-13.9-7.4-17.4c-4.8-3.5-12.6-0.9-19.1-0.9c-5.2,0-10.9,0-16.1,0c-2.6,0-3.9,0.9-4.8,3.5
		c-1.7,5.2-3.9,10.4-5.6,15.6c-0.9,2.6-2.2,3.5-4.8,3.5C661.3,505.8,655.6,505.8,649.1,505.8z"/>
	<path fill="#FEFEFE" d="M254.6,464.5c0-12.2,0-24.8,0-36.9c0-3-0.9-3.9-3.9-3.9c-7.4,0-14.8,0-21.7,0c-3,0-3.9-0.9-3.9-3.9
		c-0.4-13-0.4-13,12.6-13c20.4,0,40.8,0,61.3,0c3.5,0,4.8,0.9,4.8,4.8c0,12.2,0,12.2-12.2,12.2c-5.6,0-13.5-2.6-16.5,0.9
		c-2.6,3-0.9,10.4-0.9,16.1c0,20,0,40,0,60c0,3.9-0.9,5.2-4.8,4.8c-4.8-0.4-11.3,2.2-14.3-1.3c-3-3-0.9-9.1-0.9-13.9
		C254.6,481.9,254.6,473.2,254.6,464.5z"/>
	<path fill="#FEFEFE" d="M507.5,456.3c0-14.8,0-30,0-44.8c0-3.5,0.9-4.8,4.3-4.3c3.9,0.4,7.8,0.4,11.3,0c3.9-0.4,4.3,1.3,4.3,4.8
		c0,29.5,0,59.5,0,89.1c0,3.9-0.9,5.6-4.8,4.8c-4.8-0.4-11.7,2.2-14.3-1.3c-2.6-2.6-0.9-9.1-0.9-13.9
		C507.5,479.3,507.5,467.6,507.5,456.3z"/>
	<path fill="#FEFEFE" d="M785.1,299.4c-3,0-5.6-0.4-5.6-4.8c0-9.1-4.8-16.1-12.2-20.4c-7.4-4.3-14.8-8.7-22.2-12.6
		c-6.5-3.5-13.9-4.3-21.3-1.3c-4.3,1.7-7-0.9-9.6-3.5c-2.6-2.2-0.9-5.2,0.9-7.4c3.5-5.2,6.5-10.4,10-15.6c2.6-3.9,6.1-6.1,10.9-5.6
		c4.8,0.4,7.8,3.5,9.6,7.8c1.3,3.9,2.2,8.3,2.6,12.6c0.4,6.5,3.5,11.7,9.6,15.2c11.7,7,23,14.3,34.3,21.3c5.2,3.5,5.6,5.6,1.7,10.4
		C791.7,297.7,788.6,299.4,785.1,299.4z"/>
	<path fill="#FEFEFE" d="M829.5,171.6c2.6,8.7,0,16.5,0,24.3c-7.4-2.2-9.6-5.2-9.1-12.2c0.4-4.3,0.4-8.3,0.9-12.6
		c0-1.7,0-3.5-1.3-5.2c-3-4.8-4.8-4.8-8.3-0.4c-2.2,3-4.8,6.1-7,9.1c-2.6,3.9-3.9,0-5.6-0.9c-1.7-0.9-4.3-1.7-1.7-4.8
		c8.7-10.9,16.9-21.7,25.2-32.6c1.7-2.2,2.6-1.3,3.9-0.4c5.2,4.3,10.9,8.3,16.5,13c7,5.6,8.3,10.9,4.3,17.4
		C844.2,173.4,838.6,174.7,829.5,171.6z"/>
	<path fill="#FEFEFE" d="M484.9,148.2c8.7,0.4,15.6,5.2,22.6,8.3c-5.2,6.1-7.8,7-14.8,3.9c-3.5-1.7-7.4-3-10.9-4.8
		c-1.7-0.9-3.5-1.3-5.6-0.4c-4.8,1.3-5.6,2.6-2.6,7c1.3,2.2,3,4.8,4.3,7c3.5,5.6,3.5,5.6-2.2,9.1c-2.2,1.3-3,0.9-3.9-0.9
		c-7.4-11.7-14.8-23-22.2-34.8c-1.3-1.7-0.9-2.6,0.9-3.5c6.5-3.9,12.6-8.3,19.6-12.2c6.5-3.9,12.2-2.6,16.5,2.2
		c4.3,5.2,4.3,10.4,0,16.9C485.7,146.4,485.3,146.9,484.9,148.2z"/>
	<path fill="#FEFEFE" d="M522.2,693.1c4.3,7.8,4.3,16.1,5.6,23.9c-10-2.6-10-3-11.7-12.2c-0.4-3.5-1.3-7-2.2-10.9
		c-0.4-1.7-0.9-3-2.2-3.9c-3.5-3.9-5.6-3.5-7.8,1.3c-1.3,3-2.6,5.6-3.5,8.7c-1.3,4.3-3.5,4.3-7,2.6c-3-1.3-3.5-2.6-2.2-5.6
		c5.2-11.7,10.4-23.5,15.6-35.2c1.3-2.6,2.2-3.9,5.2-2.2c6.5,3,13,5.6,19.1,8.7c7,3.5,9.1,8.3,7.8,14.8c-1.7,6.5-6.1,10-13.9,10
		C524,693.1,523.1,693.1,522.2,693.1z"/>
	<path fill="#FEFEFE" d="M554.8,116.9c8.3,2.6,13.9,9.1,20.4,14.3c-6.5,4.3-12.2,4.3-17.4-1.7c-2.2-2.6-5.2-3.9-7.8-6.1
		c-1.7-1.3-3-2.2-5.2-2.2c-4.8,0-6.1,1.3-4.3,6.1c0.9,3.5,1.7,6.5,3.5,10c1.3,3.5,0.4,4.3-2.6,5.6c-3.9,1.7-5.6,0.4-7-3.5
		c-3.5-11.7-7.4-23.5-11.3-35.2c-1.3-3-0.9-4.8,2.6-5.6c5.6-1.7,11.3-3.9,17.4-5.2c9.1-2.6,14.8-0.9,18.3,5.2
		C564,105.2,562.2,110.8,554.8,116.9z"/>
	<path fill="#FEFEFE" d="M842.5,611.8c12.2,0,25.2,13.5,25.2,26.1c0,11.3-11.7,22.6-23,22.6c-12.2,0-25.2-13.5-25.2-26.1
		C819.5,623.1,831.2,611.8,842.5,611.8z"/>
	<path fill="#FEFEFE" d="M482.7,649.2c0,11.7-9.6,24.8-19.1,27.8c-5.2,1.7-10.4,0.9-14.8-2.2c-5.2-3.5-10-7.4-15.2-10.9
		c-2.2-1.3-1.7-2.6-0.4-3.9c8.3-10.9,16.1-21.7,24.3-32.6c1.7-2.2,2.6-2.2,4.3-0.4c4.8,3.9,9.6,7.4,14.3,10.9
		C480.5,641,483.1,645.3,482.7,649.2z"/>
	<path fill="#FEFEFE" d="M754.3,98.6c1.3,0.4,1.7,0.9,2.6,0.9c8.3,3.5,16.9,7.4,25.2,10.9c3,1.3,3,2.6,1.7,5.6
		c-1.3,3-2.6,3.5-5.2,2.2c-5.6-2.6-11.3-4.8-16.5-7.4c-4.3-2.2-3.9,2.2-4.8,3.9c-0.9,1.7-3.5,3.9,0.9,5.6c5.2,2.2,10.4,4.8,15.6,6.5
		c3.5,1.3,2.2,3,1.3,5.2s-1.7,3.9-4.8,2.2c-4.8-2.6-10-3.9-14.8-6.5c-3-1.3-3.9-0.9-5.2,2.2c-3.5,7.8-3.5,7.8,4.3,11.3
		c4.3,1.7,8.7,3.9,13.5,5.6c3,1.3,2.2,3,0.9,4.8c-0.9,1.7-0.9,4.3-4.3,2.6c-9.1-4.3-18.3-7.8-26.9-11.7c-2.2-0.9-2.6-2.2-1.7-4.3
		c5.6-12.2,10.9-24.8,16.1-37.4C753,99.9,753.4,98.6,754.3,98.6z"/>
	<path fill="#FEFEFE" d="M399.3,555.4c6.1,7.4,6.1,7.4-1.3,12.6c-7.8,5.6-7.8,5.6-2.2,13.5c5.2,7,5.2,7,12.2,1.7
		c1.3-0.9,2.6-1.3,3.5-2.6c3.5-3.5,5.2-2.6,7.8,1.3c1.7,2.6,1.7,3.9-0.9,5.6c-10.9,7.4-21.3,15.2-31.7,23c-3.5,2.6-4.3,0.4-5.6-1.7
		c-1.7-2.2-3.9-3.9,0.4-6.5c3.9-2.2,7.4-5.2,10.9-7.8c1.7-1.3,2.2-2.6,0.4-3.9c-0.4-0.4-0.4-0.4-0.4-0.9c-2.6-3.9-5.2-9.6-8.7-10.4
		s-7.4,4.3-10.9,7c-5.6,3.9-5.6,3.9-9.6-2.2c-0.9-1.3-0.9-2.2,0.4-3.5C375.4,572.7,387.5,564,399.3,555.4z"/>
	<path fill="#FEFEFE" d="M415.8,205.1c8.7,9.1,8.7,9.1,16.9,0c2.6-2.6,5.2-5.6,7.8-8.3c2.2-2.6,3.5-0.9,4.8,0.9
		c1.3,1.3,3.5,2.2,0.9,4.8c-7,7-13.5,14.3-20.4,21.7c-1.7,2.2-2.6,1.7-4.3,0c-9.6-9.1-19.1-18.3-29.1-26.9c-2.2-1.7-2.6-3-0.4-5.2
		c6.5-6.5,12.6-13.5,18.7-20c2.2-2.6,3.5-1.7,5.2,0c2.2,2.2,3,3,0.4,5.6c-4.3,4.3-8.3,9.1-12.6,13c-3,3-0.4,4.3,1.3,5.2
		c1.7,1.3,2.6,5.6,6.1,1.7c3.9-4.3,7.8-8.3,11.7-12.6c2.6-3,3.5-0.9,5.2,0.9c1.7,1.3,3.5,2.6,0.9,4.8
		C424.9,195.1,420.1,200.3,415.8,205.1z"/>
	<path fill="#FEFEFE" d="M619.6,79.1c4.3-0.4,8.3,0,12.6-0.9c3.9-0.9,4.3,1.3,4.3,4.3c0.4,3-0.9,3.5-3.9,3.9
		c-5.6,0-11.3,0.9-16.9,0.9c-4.3,0-4.3,2.2-3.9,5.2c0,3,0,6.1,4.8,5.2c4.8-0.9,9.1-0.9,13.9-0.9c2.6,0,5.2-1.3,5.6,3.5
		c0,4.8-2.6,4.3-5.2,4.3c-4.8,0.4-9.6,0.9-13.9,0.9c-3.5,0-3.9,1.3-3.5,4.3c0.4,8.7,0.4,8.7,9.1,7.8c4.8-0.4,9.6-0.4,14.3-0.9
		c3-0.4,3.5,1.3,3.5,3.5s0.9,4.3-3,4.3c-9.6,0.4-19.1,1.3-28.7,1.7c-3,0.4-3.9-0.4-3.9-3.5c-0.4-13-1.7-26.5-2.6-39.5
		c0-2.6,0.4-3.9,3.5-3.9C610,80,614.8,79.5,619.6,79.1L619.6,79.1z"/>
	<path fill="#FDFDFE" d="M879.9,575.3c-3.9-0.4-10.4,6.1-9.1,10.4c0.9,3.9,3.9,3.5,6.5,1.7c4.3-3,7.8-6.1,12.2-8.7
		c5.6-3.9,10.9-3.5,16.1,0.4c4.8,3.9,6.5,9.1,4.8,15.2c-1.7,5.6-5.2,10.4-10,13.9c-3.9,2.6-8.3,3.5-12.6,2.2
		c-6.1-1.7-6.1-2.2-2.6-7.4c1.3-1.7,2.2-2.6,4.3-1.7c5.6,1.7,11.7-2.6,12.6-8.3c0.4-2.6,0-4.8-2.2-6.5c-2.2-1.3-4.3-0.4-6.1,0.9
		c-3.9,3-7.8,6.1-12.2,8.7c-6.5,3.9-14.3,1.7-17.4-4.8c-3.5-6.5-0.4-12.2,3.5-17.4c3.9-5.2,8.7-9.1,15.6-8.3
		c2.2,0.4,6.1,0.4,5.2,3.5C886.8,572.3,886,577.1,879.9,575.3z"/>
	<path fill="#FEFEFE" d="M919.8,243.3c3.9-2.2,4.3,1.7,6.1,4.3c2.2,3,1.7,4.8-0.9,7.8c-8.7,10-16.9,20.9-25.6,30.9
		c-0.9,1.3-1.7,3.9-3.9,3c-2.2-0.9-3.9-7.8-3-9.6c1.7-2.6,6.1-4.8,5.2-7.4c-1.7-5.2-4.8-10-7.8-14.8c-1.7-2.6-4.3-0.4-7-0.4
		c-4.3,0.4-8.3-2.6-8.7-6.5c-0.4-2.2,1.7-1.7,2.6-2.2C891.6,246.8,905.5,245.1,919.8,243.3z"/>
	<path fill="#FEFEFE" d="M595.2,733.5c-1.7-0.4-3-0.9-4.3-0.9c-3.9-0.4-7-1.3-6.5-6.5c0.4-5.2-2.6-7-7.4-7c-0.9,0-2.2-0.4-3-0.4
		c-8.7-1.7-8.7-1.7-13.5,5.2c-1.3,2.2-9.1,2.2-10.4,0.4c-0.9-1.3,0.4-1.7,0.9-2.6c7.8-12.2,15.6-24.3,23.5-36.9
		c1.3-2.2,2.6-2.6,4.8-1.7c2.6,1.3,6.5-0.4,7.4,3.5C589.6,701.8,592.2,717.4,595.2,733.5z"/>
	<path fill="#FDFDFE" d="M658.7,707.4c0,5.2,0.4,10,0,15.2c-0.4,7.8-4.3,12.2-12.2,13.5c-4.3,0.9-9.1,0.9-13.5-0.4
		c-6.1-1.3-10.4-6.1-10.9-12.6c-0.4-10.4-0.4-21.3-0.4-31.7c0-4.3,3.5-2.2,5.2-2.6c2.2-0.4,4.3-0.4,4.3,3.5c-0.4,8.7,0,17.8,0,26.5
		c0,7,3.9,10.4,10.4,9.6c4.8-0.4,7.4-3,7.4-7.8c0-8.7,0.4-17.4,0-26.1c0-3.9,0.9-5.6,5.2-5.6c5.2,0,4.3,3,4.3,6.1
		C658.7,699.2,658.7,703.1,658.7,707.4C659.1,707.4,658.7,707.4,658.7,707.4z"/>
	<path fill="#FDFDFE" d="M803.8,678.3c-1.3-6.5,3.9-4.3,6.5-5.2c3.9-0.9,2.6,2.6,3,4.3c0.9,8.7-3.9,14.3-10.9,17.8
		c-7.8,3.9-15.2,3.5-22.2-1.7s-10.9-12.6-11.3-21.3c-0.4-8.3,3.5-14.8,10.4-18.7c6.5-3.9,13.5-4.8,20-0.4c1.3,0.9,3.9,1.7,2.2,3.5
		c-1.7,2.2-3.5,6.5-7,4.3c-5.2-3-9.6-2.6-13.9,1.3c-3.9,3.5-3.9,8.3-1.3,14.3c1.7,3.5,3.5,7,6.5,9.6c3.5,3.5,7.4,4.3,11.7,2.6
		C802.1,687,803.8,684,803.8,678.3z"/>
	<path fill="#FEFEFE" d="M733,274.6c2.2,0,3.9,0.4,5.6,1.3c6.5,3.9,13,7.4,19.6,11.3c5.6,3.5,7.4,9.6,4.3,14.8
		c-3,5.2-9.1,7-14.8,3.5c-6.5-3.5-13.5-7.4-20-11.3c-4.8-2.6-6.1-7.4-4.8-12.2C724.7,277.2,728.2,274.6,733,274.6z"/>
	<path fill="#FDFDFE" d="M385.8,246c-1.7,3-3,5.6-4.8,8.7c-4.3,7.8-4.3,7.8,3,11.7c1.3,0.9,3,1.7,4.3,2.6c5.2,3,5.6,5.2,1.3,10
		c-1.3,1.3-2.2,0.4-3,0c-12.2-7-23.9-13.5-36.1-20.4c-1.7-0.9-1.7-1.7-0.9-3.5c4.3-7.8,8.7-15.2,13-23c1.7-3,3.5-1.3,4.8-0.4
		c1.7,0.9,3.9,1.3,2.2,4.3c-3,4.3-5.2,9.6-8.3,13.9c-1.3,2.2-1.7,3.5,0.9,4.8c6.5,3.9,6.5,3.9,10.4-2.6c1.7-2.6,3-5.2,4.8-8.3
		c0.9-1.3,1.3-2.6,3-1.3C382.3,243.3,384.9,243.8,385.8,246z"/>
	<path fill="#FEFEFE" d="M566.1,559.7c8.3,0,15.2,7,15.2,15.2c0,8.7-7,15.6-15.6,15.2c-8.3,0-15.2-7-15.2-15.2
		S557.4,559.3,566.1,559.7z"/>
	<path fill="#FEFEFE" d="M571.3,290.3c-0.9,0.4-1.7,0.9-2.6,1.7c-9.6,7.8-18.7,16.1-27.8,24.3c-1.7,1.7-2.6,1.7-4.3-0.4
		c-8.7-10-8.7-10,1.3-18.3c7-6.1,14.3-11.7,20.9-17.8c2.2-1.7,3-1.7,4.8,0.4C565.7,283.3,568.3,286.4,571.3,290.3z"/>
	<path fill="#FDFDFE" d="M679.5,80.4c11.3,1.7,21.3,3.9,32.2,5.6c3,0.4,2.2,2.2,1.7,3.5c-0.4,1.7,0.9,4.8-2.6,4.3
		c-1.3,0-2.6-0.4-3.5-0.4c-7.8-1.3-7.8-1.3-9.1,7c-1.3,8.7-3,17.4-4.3,26.1c-0.4,2.2-0.9,4.8-3.5,3c-2.2-0.9-7,1.3-5.6-4.8
		c1.7-9.1,3.5-18.7,4.8-28.2c1.3-7.8,1.7-6.1-5.6-7.4c-1.3-0.4-2.6-0.9-3.9-0.9c-3.5,0-2.6-2.6-2.2-4.3
		C676.9,82.1,676.9,79.5,679.5,80.4z"/>
	<path fill="#E9CA37" d="M144.6,447.6c3.9-10.4,14.8-17.4,25.6-16.9c11.3,0.4,21.3,7.4,24.3,16.9
		C178.5,447.6,161.6,447.6,144.6,447.6z"/>
	<path fill="#E9CA37" d="M1109.3,448c-7.4,0-14.8,0-22.6,0c-2.6,0-3-0.9-1.7-3c5.2-9.1,13.5-14.3,23.9-14.3
		c10.9,0,19.1,4.8,24.8,13.9c1.7,3,0.4,3.5-2.2,3.5C1123.7,448,1116.7,448,1109.3,448z"/>
	<path fill="#FEFEFE" d="M616.1,343.3c-0.9,0.9-1.3,1.7-1.7,2.6c-6.5,9.6-13.5,18.7-20,28.7c-1.7,2.6-2.6,3-4.8,0.4
		c-7.8-9.1-7.8-9.1-0.9-18.7c5.2-7.4,10.4-14.8,15.6-22.2c1.3-2.2,2.6-2.6,3.9-0.4c1.7,2.6,3.9,4.8,6.1,7
		C614.8,341.6,615.7,342.4,616.1,343.3z"/>
	<path fill="#EACA37" d="M195,469.3c-3,9.6-13,16.5-24.3,16.9c-11.3,0.4-21.7-6.5-25.6-16.9C161.6,469.3,178.1,469.3,195,469.3z"/>
	<path fill="#EACA37" d="M1134.5,468.9c-4.3,10.4-14.8,17.4-25.6,16.9c-11.3-0.4-21.3-7-24.8-16.9
		C1101.1,468.9,1117.6,468.9,1134.5,468.9z"/>
	<path fill="#FDFDFE" d="M683.9,252.5c-3.5,0-5.2-3.9-3-7.4c6.1-10.9,12.6-21.7,18.7-32.2c3.9-6.5,7.8-13,11.3-19.6
		c1.7-3,3.9-4.8,7-2.6c3,1.7,2.6,4.3,0.9,7.4c-10,17.4-20,34.3-30,51.7C687.8,250.7,686.9,252.5,683.9,252.5z"/>
	<path fill="#FDFDFE" d="M722.1,724.4c0.4,1.7-0.4,2.6-2.2,3c-8.7,1.7-17.8,3-26.5,4.8c-2.2,0.4-3,0-3.5-2.2
		c-2.2-13-4.8-26.1-7.4-38.7c-1.3-5.6,3-3.9,5.6-4.8c3.5-1.3,3.5,1.3,3.9,3.5c1.7,9.6,3.5,19.6,5.2,29.1c0.4,3,0.9,5.2,5.2,3.9
		c4.8-1.3,9.6-1.3,14.3-2.6C721.7,718.3,722.1,721.3,722.1,724.4z"/>
	<path fill="#FDFDFE" d="M570.9,352.9c-0.9-1.3-1.7-2.2-2.6-3c-6.5-7.4-6.5-7.4-0.9-15.2c5.2-7.4,10.4-14.8,15.6-22.2
		c2.2-3,3.9-3.9,7-0.4c5.2,7,5.6,6.5,0.4,13.9c-5.6,7.8-11.3,16.1-16.9,23.9C572.6,350.7,571.8,351.5,570.9,352.9z"/>
	<path fill="#FDFDFD" d="M757.3,715.3c-1.3,1.7-4.3,1.7-6.5,3c-1.7,0.9-2.6,0.4-3-1.3c-4.8-13-9.6-26.5-13.9-39.5
		c-1.3-3.9,2.6-3,4.3-3.9c1.3-0.9,3.5-2.2,4.3,0.9c4.8,13,9.1,26.5,13.9,39.5C756.9,714,756.9,714.4,757.3,715.3z"/>
	<path fill="#FDFDFD" d="M890.3,195.5c0,1.3-0.9,1.7-1.7,2.6c-10,8.7-20.4,17.4-30.4,26.1c-3.5,3.5-4.3,0-6.1-1.7
		c-1.7-1.7-3-3,0-5.6c10-8.3,19.6-16.5,29.1-24.8c1.3-0.9,2.2-3.5,3.9-2.2C887.3,191.2,889,193.8,890.3,195.5z"/>
	<path fill="#FDFDFD" d="M444,608.8c-1.7,1.7-2.2,2.6-3,3c-9.6,9.1-19.1,18.7-28.7,27.8c-2.6,2.6-3.9,0.9-5.2-0.9
		c-1.3-1.7-5.2-2.6-1.7-6.1c9.6-9.1,19.6-18.7,29.1-28.2c0.9-0.9,1.7-2.6,3.5-1.3C439.7,605.3,441.8,607.1,444,608.8z"/>
	<path fill="#FDFDFD" d="M493.1,328.5c5.2-2.2,10-4.3,14.3-6.5c1.3-0.9,2.6-0.4,3.5,0.9c3,3.5,6.5,7,10.4,10.9
		c-5.2,2.2-10,4.3-14.8,6.5c-1.3,0.9-2.6,0.4-3.5-0.4C500.1,335.9,497,332.4,493.1,328.5z"/>
	<path fill="#FDFDFD" d="M629.6,361.1c4.8,14.3-5.6,27.8-19.6,27.4c-1.3,0-2.6,0.4-3.5-0.9c-0.4-1.3,0.9-2.2,1.7-3
		C615.2,376.8,622.2,369.4,629.6,361.1z"/>
	<path fill="#FDFDFD" d="M587.4,275.1c-10-10-10-10-3-21.7c2.6-4.3,4.3-4.8,7.8-0.9c5.6,6.1,6.1,6.1,1.3,13
		C591.8,268.5,589.6,271.6,587.4,275.1z"/>
	<path fill="#010166" d="M356.2,430.2c4.3,12.2,8.7,23,12.6,33.9c0.9,2.2,0,2.6-2.2,2.6c-7.8,0-15.6,0-23.9,0
		C347.1,454.5,351.5,443.2,356.2,430.2z"/>
	<path fill="#000066" d="M680,342.4c-9.1,0-16.5-7.4-16.5-16.5c0-9.1,7.4-16.5,16.5-16.5s16.9,7.8,16.5,16.9
		C696.5,335.5,689.1,342.9,680,342.4z"/>
	<path fill="#000066" d="M793.8,424.1c4.3,0,9.1-0.4,13.5,0c7,0.4,10.9,5.2,10.9,12.2s-3.5,10.9-10.9,12.2
		c-8.7,1.3-17.8,0.4-26.5,0.9c-2.2,0-2.6-0.9-2.6-2.6c0-6.5,0-13,0-19.1c0-2.2,0.4-3,3-3C785.6,424.1,789.9,424.1,793.8,424.1
		L793.8,424.1z"/>
	<path fill="#000066" d="M930.3,455.4c0,5.2-0.4,10-1.7,14.8c-3.5,12.2-13,20-25.2,20c-11.7,0-22.2-7.4-25.6-19.1
		c-2.6-8.7-2.6-17.8-0.9-26.9c3-14.8,13-22.2,27.8-21.7c13.5,0.4,22.6,10,24.8,24.3C930.3,450.2,930.3,452.8,930.3,455.4z"/>
	<path fill="#010166" d="M1018.5,466.7c-8.3,0-15.6,0-23,0c-1.7,0-3.9,0.4-2.6-2.6c3.9-10.9,7.8-21.7,12.2-33.9
		C1009.8,443.2,1014.1,454.5,1018.5,466.7z"/>
	<path fill="#010166" d="M684.8,466.7c4.3-12.2,8.7-23.5,13-36.1c4.8,12.6,9.1,24.3,13.5,36.1C702.1,466.7,693.9,466.7,684.8,466.7z
		"/>
	<path fill="#020267" d="M839.9,159.9c0,3.9-4.8,7-8.3,4.8c-3.5-2.2-7-4.8-10-7.4c-1.3-0.9-0.9-1.7,0-3c4.8-7.8,5.2-7.8,12.2-2.6
		C838.6,156,839.9,157.7,839.9,159.9z"/>
	<path fill="#020267" d="M475.7,133.8c1.7,0,3,1.3,3.9,3.5c1.3,2.2,0.9,3.9-0.4,5.6c-3,3.5-7.4,5.2-10.9,7.8
		c-1.7,0.9-2.2-0.4-2.6-1.3c-5.6-7-5.6-7.4,2.2-12.2C469.7,136,471.8,133.8,475.7,133.8z"/>
	<path fill="#020267" d="M522.2,685.7c-3.5-1.3-7.8-3.5-11.7-5.2c-1.3-0.4-1.3-1.7-0.9-2.6c0.4-1.7,1.7-3,2.2-4.8
		c0.9-3.5,2.6-4.3,6.1-2.2c2.6,1.7,6.1,2.6,8.7,4.3c2.2,1.3,3.5,3.5,2.2,6.1C527.9,684.4,525.7,685.7,522.2,685.7z"/>
	<path fill="#020267" d="M552.7,106.5c0,2.2-0.9,3.9-2.6,4.8c-3.9,1.7-7.8,3-11.7,4.3c-1.7,0.9-2.6-0.4-3-1.7
		c-0.4-1.7-0.9-3.5-1.7-4.8c-1.3-3-0.4-4.3,2.6-4.8c3-0.9,6.1-2.2,9.6-3C549.6,99.9,552.7,102.6,552.7,106.5z"/>
	<path fill="#000066" d="M841.6,621c7.8,0,17.4,10.4,17.4,18.3c0,6.5-6.1,12.2-12.6,12.2c-7.8,0-17.4-10.4-17.4-18.3
		C829,626.6,835.1,621,841.6,621z"/>
	<path fill="#000066" d="M473.6,650.1c0,5.6-8.3,16.9-13.5,18.7c-3.5,1.3-14.8-4.3-15.6-7.4c-0.4-0.9,0.4-1.3,0.9-2.2
		c5.2-7,10-13.5,15.2-20.4c0.4-0.9,0.9-1.7,2.2-1.7C466.6,637.9,473.6,646.6,473.6,650.1z"/>
	<path fill="#050569" d="M904.2,266.4c-2.2-3.9-3.9-7.4-6.1-10.9c3-0.4,5.2-0.9,7.8-1.3c3-0.4,5.6-0.9,10-1.3
		C911.6,257.3,908.1,261.6,904.2,266.4z"/>
	<path fill="#060669" d="M579.2,694c0.9,5.2,1.3,9.1,2.2,12.6c0.9,3.9,0.9,6.1-4.3,4.3c-2.2-0.9-4.8-0.4-7-2.2
		C572.6,704.4,575.3,700.1,579.2,694z"/>
</g>
<g>
	<path fill="#000065" d="M-485.3,1231.6c-3.9-2.2-7.8-1.3-11.7-1.7c-132.5-14.3-229.4-80.8-292.4-198.2c-0.9-1.3-1.7-2.6-1.7-3.9
		c-2.2-10-8.7-11.3-18.3-11.3c-42.2,0.4-84.3,0.4-126,0c-46.1,0-83-30.4-92.1-75.6c-10.9-53,30-106.5,83.9-109.1
		c36.5-1.7,73-0.4,109.5-0.4c8.7,0,8.7,0,10-8.7c7.8-56.9,26.9-109.5,60-156.9c57.4-82.6,136-133.8,235.1-152.5
		c182.9-33.9,364.6,81.3,412.8,261.2c4.8,16.9,8.3,34.3,10,52.1c0.4,3.9,1.7,5.2,5.6,5.2c34.3,0,68.7,0,103.4,0
		c36.9,0,65.6,15.6,83.9,47.8c31.7,56.5-4.3,128.2-68.2,136.4c-5.2,0.9-10,0.9-15.2,0.9c-44.3,0-88.2,0-132.5,0
		c-3.9,0-6.1,1.3-7.8,4.8c-51.3,105.2-133.4,172.1-246.8,200.3c-20.4,5.2-40.8,7.4-61.7,8.7c-0.9,0-2.6-0.9-3,0.9
		c-2.6,0-5.6,0-8.3,0c-6.1-1.3-12.2-0.4-18.3-0.4c-2.6,0.4-5.2-0.4-7.8,0.4C-484.9,1231.6-485.3,1231.6-485.3,1231.6z"/>
	<path fill="#8C8CBA" d="M-477.1,1230.7c6.1,0.4,12.6-1.3,18.7,0.9c-6.1,0-12.6,0-18.7,0C-477.5,1231.6-477.5,1231.1-477.1,1230.7
		C-477.5,1230.7-477.5,1230.7-477.1,1230.7z"/>
	<path fill="#BEBED8" d="M-477.1,1230.7c0,0.4,0,0.4,0,0.9c-2.6,0-4.8,0-7.4,0C-482.3,1229.4-479.7,1231.1-477.1,1230.7z"/>
	<path fill="#EACA37" d="M-386.3,830.9c2.6-4.3,5.6-8.3,8.7-12.2c2.2-2.2,5.2-3,8.3-2.6c5.6,0.9,11.3,1.7,16.9,2.6
		c4.3,0.9,8.3,0.9,12.6,0.4c11.3-1.3,18.7-8.7,20-20.4c0.9-5.2-0.9-10.4,0.9-14.8c1.7-4.8,8.7-3.9,12.6-7c7.4-6.1,12.6-13.5,13.9-23
		c0.9-8.7-2.6-14.8-10-19.1c-11.7-6.5-23-13.5-34.8-20c-2.6-1.3-3.9-3-4.3-6.1c-2.6-13-5.6-26.1-8.3-39.1c-0.9-3.5-2.6-6.5-5.6-8.3
		c-9.1-5.6-18.3-11.7-26.9-17.4c-3.9-2.6-7.4-2.6-11.3-0.4c-7.8,4.8-16.5,7.8-25.6,10c-33.5,7.8-64.3,42.2-54.3,89.1
		c2.6,12.6,6.1,25.2,7,38.2c0.9,8.3,0,16.1-1.7,23.9c-1.7,0.4-2.2-0.9-3-1.7c-12.2-13.9-24.3-28.2-36.5-42.2
		c-2.2-2.6-2.6-4.8-0.9-7.8c5.2-9.6,9.6-19.6,14.8-29.1c2.6-4.8,1.7-8.7-2.2-12.6c-6.1-6.1-12.2-11.7-18.3-17.8
		c-3.9-3.9-7.8-4.8-12.6-2.2c-2.6,1.3-5.2,2.6-8.3,3.5c-7,3-13.9,6.1-22.2,7.4c-11.3,1.7-21.3,7.4-30.4,14.3
		c4.3,1.7,8.3,3.5,12.2,5.2c2.2,0.9,3.9,2.6,2.6,5.2c-1.3,2.6-3.5,1.3-5.6,0.4c-18.7-7.8-14.8-8.3-28.2,6.5
		c-9.1,10.4-15.2,22.2-15.6,36.5c0,6.1-4.3,11.3-7,17.4c-4.3,10-4.3,10.9,3,18.7c4.8,4.8,9.1,10,13.9,14.8c3.9,4.3,7.8,4.8,13,2.6
		c9.6-4.3,19.6-8.7,29.1-12.6c1.7-0.9,3-1.7,5.2,0c5.2,6.5,10.9,13,16.5,19.6c-2.2,1.3-3.9,0.9-5.2,0.9c-53,0-106.5,0-159.5,0
		c-4.3,0-5.2-0.9-4.3-5.6c18.3-106,102.6-190.3,208.1-207.7c133.4-21.7,259,61.7,290.3,192.5c1.3,5.2,2.2,10.4,3,15.6
		c0.9,3.9-0.4,4.8-3.9,4.8c-26.5,0-53,0-79.1,0c-26.9,0-54.3,0-81.3,0C-382.4,831.8-384.1,832.2-386.3,830.9z"/>
	<path fill="#EACA37" d="M-672.6,1016.9c33.5,0,66.5,0,100.4,0c-2.6,8.3-3.9,16.5-1.3,25.2c3.5,13,11.3,22.2,24.8,25.6
		c14.8,3.9,26.9-0.9,37.4-11.3c3-3,5.6-6.5,7.4-10.4c4.8-8.7,9.6-17.4,14.3-26.1c0.9-2.2,2.2-3,4.8-3c74.7,0,149.9,0,226,0
		c-22.2,30.9-49.1,55.2-81.3,73.9c-32.6,18.7-67.4,30-104.7,32.2c-94.7,6.1-170.3-30-228.1-104.3
		C-673.1,1017.8-673.1,1017.3-672.6,1016.9z"/>
	<path fill="#FEFEFE" d="M-700.9,969.1c4.3-6.5,8.7-13,12.6-19.1c6.1-9.1,11.7-18.3,18.3-27.4c1.7-2.6,1.7-4.8,0-7.4
		c-9.6-14.3-18.7-28.2-28.2-43.5c7.8,0,14.8,0,21.7,0c2.2,0,2.6,1.7,3.5,3.5c5.6,9.1,11.7,18.3,17.8,28.2
		c6.1-9.6,11.7-18.7,16.9-27.8c1.7-2.6,3.5-3.9,6.5-3.5c6.1,0.4,11.7,0,17.8,0c0.9,1.7-0.4,2.6-1.3,3.9c-8.3,13-16.5,26.1-25.2,39.1
		c-2.6,3.9-2.2,6.5,0.4,10.4c10,14.8,20,29.5,30.4,45.6c-8.3,0-15.2,0-22.6,0c-2.2,0-2.6-1.7-3.5-3c-6.5-10-13-20-20-30.9
		c-6.5,10.4-13,20-19.1,30c-2.2,3.5-4.3,4.3-7.8,4.3c-11.3-0.4-23-0.4-34.3,0c-3.9,0-5.6-1.3-6.5-4.8c-1.7-4.8-3.9-9.6-5.6-14.8
		c-0.9-2.2-1.7-3.5-4.3-3.5c-11.3,0-22.2,0-33.5,0c-2.6,0-3.5,0.9-3.9,3c-1.7,5.6-3.9,10.9-6.1,16.5c-0.9,2.2-1.7,3-3.9,3
		c-4.8,0-9.6,0-14.8,0c-3.5,0-3.5-1.3-2.2-3.5c12.2-30.9,23.9-61.3,35.6-92.1c0.9-2.2,2.2-3,4.3-3c5.6,0,12.2-1.7,16.9,0.9
		c4.8,2.2,4.8,10,7,15.2C-722.6,914.4-711.7,941.3-700.9,969.1z"/>
	<path fill="#FEFEFE" d="M-486.2,896.1c-5.6,22.6-11.7,44.8-16.9,67.4c-1.3,5.2-3,7.4-8.7,7c-12.2-0.4-12.2,0-15.2-12.6
		c-4.8-19.1-9.6-38.2-14.3-57.4c-0.4-1.3-0.9-3-1.7-4.3c0,12.6,0,25.2,0,37.8c0,10.4,0,21.3,0,31.7c0,3.5-1.3,4.8-4.3,4.3
		c-4.8-0.4-10.9,2.2-13.5-1.3c-2.2-2.6-0.9-8.7-0.9-13c0-26.5,0-53,0-79.1c0-4.3,1.3-5.6,5.6-5.2c6.5,0.4,13,0.4,20,0
		c3.5,0,5.2,0.9,6.1,4.3c4.8,19.1,10,38.7,15.2,57.8c0.4,1.3,0.4,2.6,1.7,3c5.2-20.4,10.9-40.4,16.1-60.8c0.9-3,1.7-4.8,5.6-4.8
		c7.4,0.4,14.8,0.4,21.7,0c3,0,3.9,0.9,3.9,3.9c0,30.4,0,60.8,0,91.3c0,3-1.3,3.9-3.9,3.9c-3.5,0-7.4-0.4-10.9,0
		c-3.5,0.4-3.9-1.3-3.9-4.3c0-23.5,0-46.5,0-70C-485.8,896.5-486.2,896.1-486.2,896.1z"/>
	<path fill="#FEFEFE" d="M-422.3,671c-4.8,8.7-9.1,16.1-13.5,23.5c-6.1,10-5.2,19.6,0.4,28.7c3.5,5.2,7.8,9.6,13.5,13
		c3.5,2.2,7,4.3,10.9,6.5c6.5,3.5,11.7,7,12.6,15.6c0.9,6.5,6.1,11.3,12.2,14.8c6.5,3.5,13,7.4,19.6,11.3c7.4,4.3,15.2,4.8,23.5,1.7
		c5.2-1.7,8.3,0.4,8.3,5.6c0,10.9-2.6,13.5-13.5,11.7c-5.6-0.9-11.3-2.2-16.9-3c-10-1.3-18.7,1.3-24.8,9.6
		c-4.3,6.1-8.7,12.2-12.6,18.3c-1.7,2.6-3.5,3.5-6.5,3.5c-8.7,0-16.9-0.4-25.6,0c-7,0.4-11.7-1.7-16.1-7c-2.6-3-4.3-5.6-3-10
		c7.4-22.2,3.5-44.3-1.7-66.1c-3-13-6.1-26.5-1.7-40C-451.5,691.9-440.6,679.3-422.3,671z"/>
	<path fill="#FEFEFE" d="M-292.8,927c16.5,10.9,22.6,28.2,33.9,43.5c-8.3,0-15.6,0-22.6,0c-2.2,0-2.6-2.2-3.5-3.5
		c-6.5-9.1-13-18.7-19.1-27.8c-4.8-7.4-11.7-10.4-20.4-10c-3,0-3.5,0.9-3.5,3.5c0,11.3,0,22.2,0,33.5c0,3.5-0.9,4.8-4.3,4.3
		c-4.8-0.4-11.3,1.7-14.8-0.9c-3.5-2.6-0.9-9.6-0.9-14.3c0-26.1,0-52.6,0-78.7c0-3.9,0.9-5.2,4.8-4.8c17.4,0.4,34.8-0.9,52.1,0.9
		c14.8,1.7,23,10.9,23.9,24.3c0.9,15.2-6.5,25.2-21.3,29.1C-289.8,926.1-290.7,926.5-292.8,927z"/>
	<path fill="#FEFEFE" d="M-251.6,921.3c0-13,2.6-25.2,11.3-35.6c12.2-14.3,33.5-19.6,53.9-13c17.4,5.6,29.1,21.3,30.4,40.8
		c0.4,8.7,0.4,17.4-1.7,25.6c-5.2,18.7-20.4,31.3-40,32.6c-6.5,0.4-13,0.4-19.6-1.3c-18.7-4.8-31.7-20-33.5-40
		C-251.1,927.4-251.1,924.3-251.6,921.3z"/>
	<path fill="#FEFEFE" d="M-62.1,970.4c-10.9,0-10.9,0-14.8-10c-4.8-12.2-4.8-12.2-17.8-12.2c-7.8,0-15.2,0-23,0
		c-2.6,0-3.5,0.9-4.3,3c-1.7,5.2-3.9,10.4-5.6,15.6c-0.9,2.6-2.2,3.9-5.2,3.9c-4.8-0.4-9.6,0-13.9,0c-2.6,0-3.5-0.9-2.2-3.5
		c12.2-30.9,24.3-62.1,36.1-93c0.4-1.7,1.3-2.6,3.5-2.6c0.4,0,0.9,0,1.7,0c5.6,0,12.6-1.7,16.9,0.9c3.9,2.6,4.8,9.6,6.5,14.8
		c10.4,26.1,20.9,51.7,30.9,77.8c2.2,5.2,2.2,5.2-3.5,5.2C-58.6,970.4-60.4,970.4-62.1,970.4z"/>
	<path fill="#FEFEFE" d="M-457.5,970.4c4.8-11.7,9.1-23,13.5-34.3c7.8-20,15.6-40.4,23.5-60.4c1.3-3,2.6-3.9,5.6-3.9
		c5.6,0.4,12.6-2.2,16.5,0.9c3.9,3,4.8,9.6,7,14.8c10.4,26.1,20.9,52.1,31.3,78.2c1.7,3.9,1.3,5.2-3,4.8c-4.3-0.4-8.3-0.4-12.6,0
		c-3.5,0.4-4.8-1.3-6.1-4.3c-2.2-6.1-3-13.9-7.4-17.4c-4.8-3.5-12.6-0.9-19.1-0.9c-5.2,0-10.9,0-16.1,0c-2.6,0-3.9,0.9-4.8,3.5
		c-1.7,5.2-3.9,10.4-5.6,15.6c-0.9,2.6-2.2,3.5-4.8,3.5C-445.4,970.4-451,970.4-457.5,970.4z"/>
	<path fill="#FEFEFE" d="M-852.1,929.1c0-12.2,0-24.8,0-36.9c0-3-0.9-3.9-3.9-3.9c-7.4,0-14.8,0-21.7,0c-3,0-3.9-0.9-3.9-3.9
		c-0.4-13-0.4-13,12.6-13c20.4,0,40.8,0,61.3,0c3.5,0,4.8,0.9,4.8,4.8c0,12.2,0,12.2-12.2,12.2c-5.6,0-13.5-2.6-16.5,0.9
		c-2.6,3-0.9,10.4-0.9,16.1c0,20,0,40,0,60c0,3.9-0.9,5.2-4.8,4.8c-4.8-0.4-11.3,2.2-14.3-1.3c-3-3-0.9-9.1-0.9-13.9
		C-852.1,946.5-852.1,937.8-852.1,929.1z"/>
	<path fill="#FEFEFE" d="M-599.2,920.9c0-14.8,0-30,0-44.8c0-3.5,0.9-4.8,4.3-4.3c3.9,0.4,7.8,0.4,11.3,0c3.9-0.4,4.3,1.3,4.3,4.8
		c0,29.5,0,59.5,0,89.1c0,3.9-0.9,5.6-4.8,4.8c-4.8-0.4-11.7,2.2-14.3-1.3c-2.6-2.6-0.9-9.1-0.9-13.9
		C-599.2,943.9-599.2,932.2-599.2,920.9z"/>
	<path fill="#FEFEFE" d="M-321.5,764c-3,0-5.6-0.4-5.6-4.8c0-9.1-4.8-16.1-12.2-20.4s-14.8-8.7-22.2-12.6
		c-6.5-3.5-13.9-4.3-21.3-1.3c-4.3,1.7-7-0.9-9.6-3.5c-2.6-2.2-0.9-5.2,0.9-7.4c3.5-5.2,6.5-10.4,10-15.6c2.6-3.9,6.1-6.1,10.9-5.6
		c4.8,0.4,7.8,3.5,9.6,7.8c1.3,3.9,2.2,8.3,2.6,12.6c0.4,6.5,3.5,11.7,9.6,15.2c11.7,7,23,14.3,34.3,21.3c5.2,3.5,5.6,5.6,1.7,10.4
		C-315,762.3-318,764-321.5,764z"/>
	<path fill="#FEFEFE" d="M-277.2,636.2c2.6,8.7,0,16.5,0,24.3c-7.4-2.2-9.6-5.2-9.1-12.2c0.4-4.3,0.4-8.3,0.9-12.6
		c0-1.7,0-3.5-1.3-5.2c-3-4.8-4.8-4.8-8.3-0.4c-2.2,3-4.8,6.1-7,9.1c-2.6,3.9-3.9,0-5.6-0.9c-1.7-0.9-4.3-1.7-1.7-4.8
		c8.7-10.9,16.9-21.7,25.2-32.6c1.7-2.2,2.6-1.3,3.9-0.4c5.2,4.3,10.9,8.3,16.5,13c7,5.6,8.3,10.9,4.3,17.4
		C-262.4,638-268.1,639.3-277.2,636.2z"/>
	<path fill="#FEFEFE" d="M-621.8,612.8c8.7,0.4,15.6,5.2,22.6,8.3c-5.2,6.1-7.8,7-14.8,3.9c-3.5-1.7-7.4-3-10.9-4.8
		c-1.7-0.9-3.5-1.3-5.6-0.4c-4.8,1.3-5.6,2.6-2.6,7c1.3,2.2,3,4.8,4.3,7c3.5,5.6,3.5,5.6-2.2,9.1c-2.2,1.3-3,0.9-3.9-0.9
		c-7.4-11.7-14.8-23-22.2-34.8c-1.3-1.7-0.9-2.6,0.9-3.5c6.5-3.9,12.6-8.3,19.6-12.2c6.5-3.9,12.2-2.6,16.5,2.2
		c4.3,5.2,4.3,10.4,0,16.9C-620.9,611-621.4,611.5-621.8,612.8z"/>
	<path fill="#FEFEFE" d="M-584.4,1157.7c4.3,7.8,4.3,16.1,5.6,23.9c-10-2.6-10-3-11.7-12.2c-0.4-3.5-1.3-7-2.2-10.9
		c-0.4-1.7-0.9-3-2.2-3.9c-3.5-3.9-5.6-3.5-7.8,1.3c-1.3,3-2.6,5.6-3.5,8.7c-1.3,4.3-3.5,4.3-7,2.6c-3-1.3-3.5-2.6-2.2-5.6
		c5.2-11.7,10.4-23.5,15.6-35.2c1.3-2.6,2.2-3.9,5.2-2.2c6.5,3,13,5.6,19.1,8.7c7,3.5,9.1,8.3,7.8,14.8c-1.7,6.5-6.1,10-13.9,10
		C-582.7,1157.7-583.6,1157.7-584.4,1157.7z"/>
	<path fill="#FEFEFE" d="M-551.8,581.5c8.3,2.6,13.9,9.1,20.4,14.3c-6.5,4.3-12.2,4.3-17.4-1.7c-2.2-2.6-5.2-3.9-7.8-6.1
		c-1.7-1.3-3-2.2-5.2-2.2c-4.8,0-6.1,1.3-4.3,6.1c0.9,3.5,1.7,6.5,3.5,10c1.3,3.5,0.4,4.3-2.6,5.6c-3.9,1.7-5.6,0.4-7-3.5
		c-3.5-11.7-7.4-23.5-11.3-35.2c-1.3-3-0.9-4.8,2.6-5.6c5.6-1.7,11.3-3.9,17.4-5.2c9.1-2.6,14.8-0.9,18.3,5.2
		C-542.7,569.8-544.4,575.4-551.8,581.5z"/>
	<path fill="#FEFEFE" d="M-264.2,1076.4c12.2,0,25.2,13.5,25.2,26.1c0,11.3-11.7,22.6-23,22.6c-12.2,0-25.2-13.5-25.2-26.1
		C-287.2,1087.7-275.5,1076.4-264.2,1076.4z"/>
	<path fill="#FEFEFE" d="M-624,1113.8c0,11.7-9.6,24.8-19.1,27.8c-5.2,1.7-10.4,0.9-14.8-2.2c-5.2-3.5-10-7.4-15.2-10.9
		c-2.2-1.3-1.7-2.6-0.4-3.9c8.3-10.9,16.1-21.7,24.3-32.6c1.7-2.2,2.6-2.2,4.3-0.4c4.8,3.9,9.6,7.4,14.3,10.9
		C-626.1,1105.6-623.5,1109.9-624,1113.8z"/>
	<path fill="#FEFEFE" d="M-352.4,563.2c1.3,0.4,1.7,0.9,2.6,0.9c8.3,3.5,16.9,7.4,25.2,10.9c3,1.3,3,2.6,1.7,5.6s-2.6,3.5-5.2,2.2
		c-5.6-2.6-11.3-4.8-16.5-7.4c-4.3-2.2-3.9,2.2-4.8,3.9c-0.9,1.7-3.5,3.9,0.9,5.6c5.2,2.2,10.4,4.8,15.6,6.5c3.5,1.3,2.2,3,1.3,5.2
		c-0.9,2.2-1.7,3.9-4.8,2.2c-4.8-2.6-10-3.9-14.8-6.5c-3-1.3-3.9-0.9-5.2,2.2c-3.5,7.8-3.5,7.8,4.3,11.3c4.3,1.7,8.7,3.9,13.5,5.6
		c3,1.3,2.2,3,0.9,4.8c-0.9,1.7-0.9,4.3-4.3,2.6c-9.1-4.3-18.3-7.8-26.9-11.7c-2.2-0.9-2.6-2.2-1.7-4.3
		c5.6-12.2,10.9-24.8,16.1-37.4C-353.7,564.5-353.2,563.2-352.4,563.2z"/>
	<path fill="#FEFEFE" d="M-707.4,1019.9c6.1,7.4,6.1,7.4-1.3,12.6c-7.8,5.6-7.8,5.6-2.2,13.5c5.2,7,5.2,7,12.2,1.7
		c1.3-0.9,2.6-1.3,3.5-2.6c3.5-3.5,5.2-2.6,7.8,1.3c1.7,2.6,1.7,3.9-0.9,5.6c-10.9,7.4-21.3,15.2-31.7,23c-3.5,2.6-4.3,0.4-5.6-1.7
		c-1.7-2.2-3.9-3.9,0.4-6.5c3.9-2.2,7.4-5.2,10.9-7.8c1.7-1.3,2.2-2.6,0.4-3.9c-0.4-0.4-0.4-0.4-0.4-0.9c-2.6-3.9-5.2-9.6-8.7-10.4
		c-3.5-0.9-7.4,4.3-10.9,7c-5.6,3.9-5.6,3.9-9.6-2.2c-0.9-1.3-0.9-2.2,0.4-3.5C-731.3,1037.3-719.1,1028.6-707.4,1019.9z"/>
	<path fill="#FEFEFE" d="M-690.9,669.7c8.7,9.1,8.7,9.1,16.9,0c2.6-2.6,5.2-5.6,7.8-8.3c2.2-2.6,3.5-0.9,4.8,0.9
		c1.3,1.3,3.5,2.2,0.9,4.8c-7,7-13.5,14.3-20.4,21.7c-1.7,2.2-2.6,1.7-4.3,0c-9.6-9.1-19.1-18.3-29.1-26.9c-2.2-1.7-2.6-3-0.4-5.2
		c6.5-6.5,12.6-13.5,18.7-20c2.2-2.6,3.5-1.7,5.2,0c2.2,2.2,3,3,0.4,5.6c-4.3,4.3-8.3,9.1-12.6,13c-3,3-0.4,4.3,1.3,5.2
		c1.7,1.3,2.6,5.6,6.1,1.7c3.9-4.3,7.8-8.3,11.7-12.6c2.6-3,3.5-0.9,5.2,0.9c1.7,1.3,3.5,2.6,0.9,4.8
		C-681.8,659.7-686.5,664.9-690.9,669.7z"/>
	<path fill="#FEFEFE" d="M-487.1,543.7c4.3-0.4,8.3,0,12.6-0.9c3.9-0.9,4.3,1.3,4.3,4.3c0.4,3-0.9,3.5-3.9,3.9
		c-5.6,0-11.3,0.9-16.9,0.9c-4.3,0-4.3,2.2-3.9,5.2c0,3,0,6.1,4.8,5.2c4.8-0.9,9.1-0.9,13.9-0.9c2.6,0,5.2-1.3,5.6,3.5
		c0,4.8-2.6,4.3-5.2,4.3c-4.8,0.4-9.6,0.9-13.9,0.9c-3.5,0-3.9,1.3-3.5,4.3c0.4,8.7,0.4,8.7,9.1,7.8c4.8-0.4,9.6-0.4,14.3-0.9
		c3-0.4,3.5,1.3,3.5,3.5s0.9,4.3-3,4.3c-9.6,0.4-19.1,1.3-28.7,1.7c-3,0.4-3.9-0.4-3.9-3.5c-0.4-13-1.7-26.5-2.6-39.5
		c0-2.6,0.4-3.9,3.5-3.9C-496.6,544.6-491.9,544.1-487.1,543.7L-487.1,543.7z"/>
	<path fill="#FDFDFE" d="M-226.8,1039.9c-3.9-0.4-10.4,6.1-9.1,10.4c0.9,3.9,3.9,3.5,6.5,1.7c4.3-3,7.8-6.1,12.2-8.7
		c5.6-3.9,10.9-3.5,16.1,0.4c4.8,3.9,6.5,9.1,4.8,15.2c-1.7,5.6-5.2,10.4-10,13.9c-3.9,2.6-8.3,3.5-12.6,2.2
		c-6.1-1.7-6.1-2.2-2.6-7.4c1.3-1.7,2.2-2.6,4.3-1.7c5.6,1.7,11.7-2.6,12.6-8.3c0.4-2.6,0-4.8-2.2-6.5c-2.2-1.3-4.3-0.4-6.1,0.9
		c-3.9,3-7.8,6.1-12.2,8.7c-6.5,3.9-14.3,1.7-17.4-4.8c-3.5-6.5-0.4-12.2,3.5-17.4c3.9-5.2,8.7-9.1,15.6-8.3
		c2.2,0.4,6.1,0.4,5.2,3.5C-219.8,1036.9-220.7,1041.7-226.8,1039.9z"/>
	<path fill="#FEFEFE" d="M-186.8,707.9c3.9-2.2,4.3,1.7,6.1,4.3c2.2,3,1.7,4.8-0.9,7.8c-8.7,10-16.9,20.9-25.6,30.9
		c-0.9,1.3-1.7,3.9-3.9,3s-3.9-7.8-3-9.6c1.7-2.6,6.1-4.8,5.2-7.4c-1.7-5.2-4.8-10-7.8-14.8c-1.7-2.6-4.3-0.4-7-0.4
		c-4.3,0.4-8.3-2.6-8.7-6.5c-0.4-2.2,1.7-1.7,2.6-2.2C-215.1,711.4-201.2,709.7-186.8,707.9z"/>
	<path fill="#FEFEFE" d="M-511.4,1198.1c-1.7-0.4-3-0.9-4.3-0.9c-3.9-0.4-7-1.3-6.5-6.5c0.4-5.2-2.6-7-7.4-7c-0.9,0-2.2-0.4-3-0.4
		c-8.7-1.7-8.7-1.7-13.5,5.2c-1.3,2.2-9.1,2.2-10.4,0.4c-0.9-1.3,0.4-1.7,0.9-2.6c7.8-12.2,15.6-24.3,23.5-36.9
		c1.3-2.2,2.6-2.6,4.8-1.7c2.6,1.3,6.5-0.4,7.4,3.5C-517.1,1166.4-514.5,1182-511.4,1198.1z"/>
	<path fill="#FDFDFE" d="M-448,1172c0,5.2,0.4,10,0,15.2c-0.4,7.8-4.3,12.2-12.2,13.5c-4.3,0.9-9.1,0.9-13.5-0.4
		c-6.1-1.3-10.4-6.1-10.9-12.6c-0.4-10.4-0.4-21.3-0.4-31.7c0-4.3,3.5-2.2,5.2-2.6c2.2-0.4,4.3-0.4,4.3,3.5c-0.4,8.7,0,17.8,0,26.5
		c0,7,3.9,10.4,10.4,9.6c4.8-0.4,7.4-3,7.4-7.8c0-8.7,0.4-17.4,0-26.1c0-3.9,0.9-5.6,5.2-5.6c5.2,0,4.3,3,4.3,6.1
		C-448,1163.8-448,1167.7-448,1172C-447.5,1172-448,1172-448,1172z"/>
	<path fill="#FDFDFE" d="M-302.8,1142.9c-1.3-6.5,3.9-4.3,6.5-5.2c3.9-0.9,2.6,2.6,3,4.3c0.9,8.7-3.9,14.3-10.9,17.8
		c-7.8,3.9-15.2,3.5-22.2-1.7c-7-5.2-10.9-12.6-11.3-21.3c-0.4-8.3,3.5-14.8,10.4-18.7c6.5-3.9,13.5-4.8,20-0.4
		c1.3,0.9,3.9,1.7,2.2,3.5c-1.7,2.2-3.5,6.5-7,4.3c-5.2-3-9.6-2.6-13.9,1.3c-3.9,3.5-3.9,8.3-1.3,14.3c1.7,3.5,3.5,7,6.5,9.6
		c3.5,3.5,7.4,4.3,11.7,2.6C-304.6,1151.6-302.8,1148.6-302.8,1142.9z"/>
	<path fill="#FEFEFE" d="M-373.7,739.2c2.2,0,3.9,0.4,5.6,1.3c6.5,3.9,13,7.4,19.6,11.3c5.6,3.5,7.4,9.6,4.3,14.8
		c-3,5.2-9.1,7-14.8,3.5c-6.5-3.5-13.5-7.4-20-11.3c-4.8-2.6-6.1-7.4-4.8-12.2C-381.9,741.8-378.5,739.2-373.7,739.2z"/>
	<path fill="#FDFDFE" d="M-720.9,710.6c-1.7,3-3,5.6-4.8,8.7c-4.3,7.8-4.3,7.8,3,11.7c1.3,0.9,3,1.7,4.3,2.6c5.2,3,5.6,5.2,1.3,10
		c-1.3,1.3-2.2,0.4-3,0c-12.2-7-23.9-13.5-36.1-20.4c-1.7-0.9-1.7-1.7-0.9-3.5c4.3-7.8,8.7-15.2,13-23c1.7-3,3.5-1.3,4.8-0.4
		c1.7,0.9,3.9,1.3,2.2,4.3c-3,4.3-5.2,9.6-8.3,13.9c-1.3,2.2-1.7,3.5,0.9,4.8c6.5,3.9,6.5,3.9,10.4-2.6c1.7-2.6,3-5.2,4.8-8.3
		c0.9-1.3,1.3-2.6,3-1.3C-724.3,707.9-721.7,708.4-720.9,710.6z"/>
	<path fill="#FEFEFE" d="M-540.5,1024.3c8.3,0,15.2,7,15.2,15.2c0,8.7-7,15.6-15.6,15.2c-8.3,0-15.2-7-15.2-15.2
		C-556.2,1031.2-549.2,1023.9-540.5,1024.3z"/>
	<path fill="#FEFEFE" d="M-535.3,754.9c-0.9,0.4-1.7,0.9-2.6,1.7c-9.6,7.8-18.7,16.1-27.8,24.3c-1.7,1.7-2.6,1.7-4.3-0.4
		c-8.7-10-8.7-10,1.3-18.3c7-6.1,14.3-11.7,20.9-17.8c2.2-1.7,3-1.7,4.8,0.4C-541,747.9-538.4,751-535.3,754.9z"/>
	<path fill="#FDFDFE" d="M-427.1,545c11.3,1.7,21.3,3.9,32.2,5.6c3,0.4,2.2,2.2,1.7,3.5c-0.4,1.7,0.9,4.8-2.6,4.3
		c-1.3,0-2.6-0.4-3.5-0.4c-7.8-1.3-7.8-1.3-9.1,7c-1.3,8.7-3,17.4-4.3,26.1c-0.4,2.2-0.9,4.8-3.5,3c-2.2-0.9-7,1.3-5.6-4.8
		c1.7-9.1,3.5-18.7,4.8-28.2c1.3-7.8,1.7-6.1-5.6-7.4c-1.3-0.4-2.6-0.9-3.9-0.9c-3.5,0-2.6-2.6-2.2-4.3
		C-429.7,546.7-429.7,544.1-427.1,545z"/>
	<path fill="#E9CA37" d="M-962,912.2c3.9-10.4,14.8-17.4,25.6-16.9c11.3,0.4,21.3,7.4,24.3,16.9C-928.2,912.2-945.1,912.2-962,912.2
		z"/>
	<path fill="#E9CA37" d="M2.6,912.6c-7.4,0-14.8,0-22.6,0c-2.6,0-3-0.9-1.7-3c5.2-9.1,13.5-14.3,23.9-14.3
		c10.9,0,19.1,4.8,24.8,13.9c1.7,3,0.4,3.5-2.2,3.5C17,912.6,10,912.6,2.6,912.6z"/>
	<path fill="#FEFEFE" d="M-490.6,807.9c-0.9,0.9-1.3,1.7-1.7,2.6c-6.5,9.6-13.5,18.7-20,28.7c-1.7,2.6-2.6,3-4.8,0.4
		c-7.8-9.1-7.8-9.1-0.9-18.7c5.2-7.4,10.4-14.8,15.6-22.2c1.3-2.2,2.6-2.6,3.9-0.4c1.7,2.6,3.9,4.8,6.1,7
		C-491.9,806.2-491,807-490.6,807.9z"/>
	<path fill="#EACA37" d="M-911.6,933.9c-3,9.6-13,16.5-24.3,16.9c-11.3,0.4-21.7-6.5-25.6-16.9
		C-945.1,933.9-928.6,933.9-911.6,933.9z"/>
	<path fill="#EACA37" d="M27.9,933.5c-4.3,10.4-14.8,17.4-25.6,16.9c-11.3-0.4-21.3-7-24.8-16.9C-5.6,933.5,10.9,933.5,27.9,933.5z"
		/>
	<path fill="#FDFDFE" d="M-422.8,717.1c-3.5,0-5.2-3.9-3-7.4c6.1-10.9,12.6-21.7,18.7-32.2c3.9-6.5,7.8-13,11.3-19.6
		c1.7-3,3.9-4.8,7-2.6c3,1.7,2.6,4.3,0.9,7.4c-10,17.4-20,34.3-30,51.7C-418.9,715.3-419.7,717.1-422.8,717.1z"/>
	<path fill="#FDFDFE" d="M-384.5,1189c0.4,1.7-0.4,2.6-2.2,3c-8.7,1.7-17.8,3-26.5,4.8c-2.2,0.4-3,0-3.5-2.2
		c-2.2-13-4.8-26.1-7.4-38.7c-1.3-5.6,3-3.9,5.6-4.8c3.5-1.3,3.5,1.3,3.9,3.5c1.7,9.6,3.5,19.6,5.2,29.1c0.4,3,0.9,5.2,5.2,3.9
		c4.8-1.3,9.6-1.3,14.3-2.6C-385,1182.9-384.5,1185.9-384.5,1189z"/>
	<path fill="#FDFDFE" d="M-535.8,817.5c-0.9-1.3-1.7-2.2-2.6-3c-6.5-7.4-6.5-7.4-0.9-15.2c5.2-7.4,10.4-14.8,15.6-22.2
		c2.2-3,3.9-3.9,7-0.4c5.2,7,5.6,6.5,0.4,13.9c-5.6,7.8-11.3,16.1-16.9,23.9C-534,815.3-534.9,816.1-535.8,817.5z"/>
	<path fill="#FDFDFD" d="M-349.3,1179.9c-1.3,1.7-4.3,1.7-6.5,3c-1.7,0.9-2.6,0.4-3-1.3c-4.8-13-9.6-26.5-13.9-39.5
		c-1.3-3.9,2.6-3,4.3-3.9c1.3-0.9,3.5-2.2,4.3,0.9c4.8,13,9.1,26.5,13.9,39.5C-349.8,1178.6-349.8,1179-349.3,1179.9z"/>
	<path fill="#FDFDFD" d="M-216.4,660.1c0,1.3-0.9,1.7-1.7,2.6c-10,8.7-20.4,17.4-30.4,26.1c-3.5,3.5-4.3,0-6.1-1.7
		c-1.7-1.7-3-3,0-5.6c10-8.3,19.6-16.5,29.1-24.8c1.3-0.9,2.2-3.5,3.9-2.2C-219.4,655.8-217.7,658.4-216.4,660.1z"/>
	<path fill="#FDFDFD" d="M-662.6,1073.4c-1.7,1.7-2.2,2.6-3,3c-9.6,9.1-19.1,18.7-28.7,27.8c-2.6,2.6-3.9,0.9-5.2-0.9
		s-5.2-2.6-1.7-6.1c9.6-9.1,19.6-18.7,29.1-28.2c0.9-0.9,1.7-2.6,3.5-1.3C-667,1069.9-664.8,1071.7-662.6,1073.4z"/>
	<path fill="#FDFDFD" d="M-613.5,793.1c5.2-2.2,10-4.3,14.3-6.5c1.3-0.9,2.6-0.4,3.5,0.9c3,3.5,6.5,7,10.4,10.9
		c-5.2,2.2-10,4.3-14.8,6.5c-1.3,0.9-2.6,0.4-3.5-0.4C-606.6,800.5-609.6,797-613.5,793.1z"/>
	<path fill="#FDFDFD" d="M-477.1,825.7c4.8,14.3-5.6,27.8-19.6,27.4c-1.3,0-2.6,0.4-3.5-0.9c-0.4-1.3,0.9-2.2,1.7-3
		C-491.4,841.4-484.5,834-477.1,825.7z"/>
	<path fill="#FDFDFD" d="M-519.2,739.7c-10-10-10-10-3-21.7c2.6-4.3,4.3-4.8,7.8-0.9c5.6,6.1,6.1,6.1,1.3,13
		C-514.9,733.1-517.1,736.2-519.2,739.7z"/>
	<path fill="#010166" d="M-750.4,894.8c4.3,12.2,8.7,23,12.6,33.9c0.9,2.2,0,2.6-2.2,2.6c-7.8,0-15.6,0-23.9,0
		C-759.5,919.1-755.2,907.8-750.4,894.8z"/>
	<path fill="#000066" d="M-426.7,807c-9.1,0-16.5-7.4-16.5-16.5s7.4-16.5,16.5-16.5c9.1,0,16.9,7.8,16.5,16.9
		C-410.2,800.1-417.6,807.5-426.7,807z"/>
	<path fill="#000066" d="M-312.8,888.7c4.3,0,9.1-0.4,13.5,0c7,0.4,10.9,5.2,10.9,12.2c0,7-3.5,10.9-10.9,12.2
		c-8.7,1.3-17.8,0.4-26.5,0.9c-2.2,0-2.6-0.9-2.6-2.6c0-6.5,0-13,0-19.1c0-2.2,0.4-3,3-3C-321.1,888.7-316.7,888.7-312.8,888.7
		L-312.8,888.7z"/>
	<path fill="#000066" d="M-176.4,920c0,5.2-0.4,10-1.7,14.8c-3.5,12.2-13,20-25.2,20c-11.7,0-22.2-7.4-25.6-19.1
		c-2.6-8.7-2.6-17.8-0.9-26.9c3-14.8,13-22.2,27.8-21.7c13.5,0.4,22.6,10,24.8,24.3C-176.4,914.8-176.4,917.4-176.4,920z"/>
	<path fill="#010166" d="M-88.2,931.3c-8.3,0-15.6,0-23,0c-1.7,0-3.9,0.4-2.6-2.6c3.9-10.9,7.8-21.7,12.2-33.9
		C-96.9,907.8-92.5,919.1-88.2,931.3z"/>
	<path fill="#010166" d="M-421.9,931.3c4.3-12.2,8.7-23.5,13-36.1c4.8,12.6,9.1,24.3,13.5,36.1
		C-404.5,931.3-412.8,931.3-421.9,931.3z"/>
	<path fill="#020267" d="M-266.8,624.5c0,3.9-4.8,7-8.3,4.8c-3.5-2.2-7-4.8-10-7.4c-1.3-0.9-0.9-1.7,0-3c4.8-7.8,5.2-7.8,12.2-2.6
		C-268.1,620.6-266.8,622.3-266.8,624.5z"/>
	<path fill="#020267" d="M-630.9,598.4c1.7,0,3,1.3,3.9,3.5c1.3,2.2,0.9,3.9-0.4,5.6c-3,3.5-7.4,5.2-10.9,7.8
		c-1.7,0.9-2.2-0.4-2.6-1.3c-5.6-7-5.6-7.4,2.2-12.2C-637,600.6-634.8,598.4-630.9,598.4z"/>
	<path fill="#020267" d="M-584.4,1150.3c-3.5-1.3-7.8-3.5-11.7-5.2c-1.3-0.4-1.3-1.7-0.9-2.6c0.4-1.7,1.7-3,2.2-4.8
		c0.9-3.5,2.6-4.3,6.1-2.2c2.6,1.7,6.1,2.6,8.7,4.3c2.2,1.3,3.5,3.5,2.2,6.1C-578.8,1149-580.9,1150.3-584.4,1150.3z"/>
	<path fill="#020267" d="M-554,571.1c0,2.2-0.9,3.9-2.6,4.8c-3.9,1.7-7.8,3-11.7,4.3c-1.7,0.9-2.6-0.4-3-1.7
		c-0.4-1.7-0.9-3.5-1.7-4.8c-1.3-3-0.4-4.3,2.6-4.8c3-0.9,6.1-2.2,9.6-3C-557,564.5-554,567.2-554,571.1z"/>
	<path fill="#000066" d="M-265,1085.6c7.8,0,17.4,10.4,17.4,18.3c0,6.5-6.1,12.2-12.6,12.2c-7.8,0-17.4-10.4-17.4-18.3
		C-277.6,1091.2-271.6,1085.6-265,1085.6z"/>
	<path fill="#000066" d="M-633.1,1114.7c0,5.6-8.3,16.9-13.5,18.7c-3.5,1.3-14.8-4.3-15.6-7.4c-0.4-0.9,0.4-1.3,0.9-2.2
		c5.2-7,10-13.5,15.2-20.4c0.4-0.9,0.9-1.7,2.2-1.7C-640,1102.5-633.1,1111.2-633.1,1114.7z"/>
	<path fill="#050569" d="M-202.5,731c-2.2-3.9-3.9-7.4-6.1-10.9c3-0.4,5.2-0.9,7.8-1.3c3-0.4,5.6-0.9,10-1.3
		C-195.1,721.9-198.5,726.2-202.5,731z"/>
	<path fill="#060669" d="M-527.5,1158.6c0.9,5.2,1.3,9.1,2.2,12.6c0.9,3.9,0.9,6.1-4.3,4.3c-2.2-0.9-4.8-0.4-7-2.2
		C-534,1169-531.4,1164.7-527.5,1158.6z"/>
</g>
<g>
	<path fill="#FFFFFF" d="M58.6,2024.4c0.3,0,0.6,0,1.1,0c0,0,0,0,0,0C59.3,2024.4,59,2024.4,58.6,2024.4z"/>
	<path fill="#FFFFFF" d="M629.4,1672.4c-18.3-32.2-46.9-47.8-83.9-47.8c-34.8,0-69.1,0-103.4,0c-3.9,0-5.2-1.3-5.6-5.2
		c-1.7-17.8-5.2-35.2-10-52.1c-48.2-179.9-229.9-295.1-412.8-261.2c-99.1,18.7-177.7,70-235.1,152.5c-33,47.4-52.1,99.9-60,156.9
		c-1.3,8.7-1.3,8.7-10,8.7c-36.5,0-73-1.3-109.5,0.4c-53.9,2.6-94.7,56.1-83.9,109.1c9.1,45.2,46.1,75.6,92.1,75.6
		c41.7,0.4,83.9,0.4,126,0c9.6,0,16.1,1.3,18.3,11.3c0,1.3,0.9,2.6,1.7,3.9c63,117.3,159.9,183.8,292.4,198.2
		c3.9,0.4,7.8-0.4,11.7,1.7c0,0,0.2,0,0.9,0c2.2-2.2,4.8-0.4,7.4-0.9c5.6,0.4,11.6-1,17.2,0.4c0.9,0.1,1.8,0.2,2.8,0.4
		c2.6,0,5.6,0,8.3,0c0.4-1.7,2.2-0.9,3-0.9c20.9-1.3,41.3-3.5,61.7-8.7c113.4-28.2,195.5-95.2,246.8-200.3c1.7-3.5,3.9-4.8,7.8-4.8
		c44.3,0,88.2,0,132.5,0c5.2,0,10,0,15.2-0.9C625,1800.6,661.1,1728.9,629.4,1672.4z M-393.6,1688.1c11.3,0.4,21.3,7.4,24.3,16.9
		c-16.1,0-33,0-50,0C-415.3,1694.6-404.4,1687.6-393.6,1688.1z M-393.1,1743.7c-11.3,0.4-21.7-6.5-25.6-16.9c16.5,0,33,0,50,0
		C-371.8,1736.3-381.8,1743.2-393.1,1743.7z M521.2,1702.4c5.2-9.1,13.5-14.3,23.9-14.3c10.9,0,19.1,4.8,24.8,13.9
		c1.7,3,0.4,3.5-2.2,3.5c-7.8,0-14.8,0-22.2,0s-14.8,0-22.6,0C520.3,1705.4,519.9,1704.6,521.2,1702.4z M356,1500.8
		c3.9-2.2,4.3,1.7,6.1,4.3c2.2,3,1.7,4.8-0.9,7.8c-8.7,10-16.9,20.9-25.6,30.9c-0.9,1.3-1.7,3.9-3.9,3c-2.2-0.9-3.9-7.8-3-9.6
		c1.7-2.6,6.1-4.8,5.2-7.4c-1.7-5.2-4.8-10-7.8-14.8c-1.7-2.6-4.3-0.4-7-0.4c-4.3,0.4-8.3-2.6-8.7-6.5c-0.4-2.2,1.7-1.7,2.6-2.2
		C327.8,1504.2,341.7,1502.5,356,1500.8z M288.2,1474.3c10-8.3,19.6-16.5,29.1-24.8c1.3-0.9,2.2-3.5,3.9-2.2
		c2.2,1.3,3.9,3.9,5.2,5.6c0,1.3-0.9,1.7-1.7,2.6c-10,8.7-20.4,17.4-30.4,26.1c-3.5,3.5-4.3,0-6.1-1.7
		C286.5,1478.2,285.2,1476.9,288.2,1474.3z M233.5,1426.5c8.7-10.9,16.9-21.7,25.2-32.6c1.7-2.2,2.6-1.3,3.9-0.4
		c5.2,4.3,10.9,8.3,16.5,13c7,5.6,8.3,10.9,4.3,17.4c-3,7-8.7,8.3-17.8,5.2c2.6,8.7,0,16.5,0,24.3c-7.4-2.2-9.6-5.2-9.1-12.2
		c0.4-4.3,0.4-8.3,0.9-12.6c0-1.7,0-3.5-1.3-5.2c-3-4.8-4.8-4.8-8.3-0.4c-2.2,3-4.8,6.1-7,9.1c-2.6,3.9-3.9,0-5.6-0.9
		C233.5,1430.4,230.9,1429.5,233.5,1426.5z M172.2,1395.6c5.6-12.2,10.9-24.8,16.1-37.4c0.9-0.9,1.3-2.2,2.2-2.2
		c1.3,0.4,1.7,0.9,2.6,0.9c8.3,3.5,16.9,7.4,25.2,10.9c3,1.3,3,2.6,1.7,5.6c-1.3,3-2.6,3.5-5.2,2.2c-5.6-2.6-11.3-4.8-16.5-7.4
		c-4.3-2.2-3.9,2.2-4.8,3.9c-0.9,1.7-3.5,3.9,0.9,5.6c5.2,2.2,10.4,4.8,15.6,6.5c3.5,1.3,2.2,3,1.3,5.2c-0.9,2.2-1.7,3.9-4.8,2.2
		c-4.8-2.6-10-3.9-14.8-6.5c-3-1.3-3.9-0.9-5.2,2.2c-3.5,7.8-3.5,7.8,4.3,11.3c4.3,1.7,8.7,3.9,13.5,5.6c3,1.3,2.2,3,0.9,4.8
		c-0.9,1.7-0.9,4.3-4.3,2.6c-9.1-4.3-18.3-7.8-26.9-11.7C171.8,1399.1,171.3,1397.8,172.2,1395.6z M115.7,1337.8
		c11.3,1.7,21.3,3.9,32.2,5.6c3,0.4,2.2,2.2,1.7,3.5c-0.4,1.7,0.9,4.8-2.6,4.3c-1.3,0-2.6-0.4-3.5-0.4c-7.8-1.3-7.8-1.3-9.1,7
		c-1.3,8.7-3,17.4-4.3,26.1c-0.4,2.2-0.9,4.8-3.5,3c-2.2-0.9-7,1.3-5.6-4.8c1.7-9.1,3.5-18.7,4.8-28.2c1.3-7.8,1.7-6.1-5.6-7.4
		c-1.3-0.4-2.6-0.9-3.9-0.9c-3.5,0-2.6-2.6-2.2-4.3C113.1,1339.5,113.1,1336.9,115.7,1337.8z M41.8,1336.9c4.3,0.4,9.1,0,13.9-0.4
		c4.3-0.4,8.3,0,12.6-0.9c3.9-0.9,4.3,1.3,4.3,4.3c0.4,3-0.9,3.5-3.9,3.9c-5.6,0-11.3,0.9-16.9,0.9c-4.3,0-4.3,2.2-3.9,5.2
		c0,3,0,6.1,4.8,5.2s9.1-0.9,13.9-0.9c2.6,0,5.2-1.3,5.6,3.5c0,4.8-2.6,4.3-5.2,4.3c-4.8,0.4-9.6,0.9-13.9,0.9
		c-3.5,0-3.9,1.3-3.5,4.3c0.4,8.7,0.4,8.7,9.1,7.8c4.8-0.4,9.6-0.4,14.3-0.9c3-0.4,3.5,1.3,3.5,3.5c0,2.2,0.9,4.3-3,4.3
		c-9.6,0.4-19.1,1.3-28.7,1.7c-3,0.4-3.9-0.4-3.9-3.5c-0.4-13-1.7-26.5-2.6-39.5C38.4,1338.2,38.8,1336.9,41.8,1336.9z M33.2,1411.2
		c133.4-21.7,259,61.7,290.3,192.5c1.3,5.2,2.2,10.4,3,15.6c0.9,3.9-0.4,4.8-3.9,4.8c-26.5,0-53,0-79.1,0c-26.9,0-54.3,0-81.3,0
		c-1.7,0.4-3.5,0.9-5.6-0.4c2.6-4.3,5.6-8.3,8.7-12.2c2.2-2.2,5.2-3,8.3-2.6c5.6,0.9,11.3,1.7,16.9,2.6c4.3,0.9,8.3,0.9,12.6,0.4
		c11.3-1.3,18.7-8.7,20-20.4c0.9-5.2-0.9-10.4,0.9-14.8c1.7-4.8,8.7-3.9,12.6-7c7.4-6.1,12.6-13.5,13.9-23c0.9-8.7-2.6-14.8-10-19.1
		c-11.7-6.5-23-13.5-34.8-20c-2.6-1.3-3.9-3-4.3-6.1c-2.6-13-5.6-26.1-8.3-39.1c-0.9-3.5-2.6-6.5-5.6-8.3
		c-9.1-5.6-18.3-11.7-26.9-17.4c-3.9-2.6-7.4-2.6-11.3-0.4c-7.8,4.8-16.5,7.8-25.6,10c-33.5,7.8-64.3,42.2-54.3,89.1
		c2.6,12.6,6.1,25.2,7,38.2c0.9,8.3,0,16.1-1.7,23.9c-1.7,0.4-2.2-0.9-3-1.7c-12.2-13.9-24.3-28.2-36.5-42.2
		c-2.2-2.6-2.6-4.8-0.9-7.8c5.2-9.6,9.6-19.6,14.8-29.1c2.6-4.8,1.7-8.7-2.2-12.6c-6.1-6.1-12.2-11.7-18.3-17.8
		c-3.9-3.9-7.8-4.8-12.6-2.2c-2.6,1.3-5.2,2.6-8.3,3.5c-7,3-13.9,6.1-22.2,7.4c-11.3,1.7-21.3,7.4-30.4,14.3
		c4.3,1.7,8.3,3.5,12.2,5.2c2.2,0.9,3.9,2.6,2.6,5.2c-1.3,2.6-3.5,1.3-5.6,0.4c-18.7-7.8-14.8-8.3-28.2,6.5
		c-9.1,10.4-15.2,22.2-15.6,36.5c0,6.1-4.3,11.3-7,17.4c-4.3,10-4.3,10.9,3,18.7c4.8,4.8,9.1,10,13.9,14.8c3.9,4.3,7.8,4.8,13,2.6
		c9.6-4.3,19.6-8.7,29.1-12.6c1.7-0.9,3-1.7,5.2,0c5.2,6.5,10.9,13,16.5,19.6c-2.2,1.3-3.9,0.9-5.2,0.9c-53,0-106.5,0-159.5,0
		c-4.3,0-5.2-0.9-4.3-5.6C-156.7,1512.9-72.4,1428.6,33.2,1411.2z M283.9,1763.2c-8.3,0-15.6,0-22.6,0c-2.2,0-2.6-2.2-3.5-3.5
		c-6.5-9.1-13-18.7-19.1-27.8c-4.8-7.4-11.7-10.4-20.4-10c-3,0-3.5,0.9-3.5,3.5c0,11.3,0,22.2,0,33.5c0,3.5-0.9,4.8-4.3,4.3
		c-4.8-0.4-11.3,1.7-14.8-0.9c-3.5-2.6-0.9-9.6-0.9-14.3c0-26.1,0-52.6,0-78.7c0-3.9,0.9-5.2,4.8-4.8c17.4,0.4,34.8-0.9,52.1,0.9
		c14.8,1.7,23,10.9,23.9,24.3c0.9,15.2-6.5,25.2-21.3,29.1c-1.3,0-2.2,0.4-4.3,0.9C266.5,1730.6,272.6,1748,283.9,1763.2z
		 M181.3,1519c-6.5-3.5-13.9-4.3-21.3-1.3c-4.3,1.7-7-0.9-9.6-3.5c-2.6-2.2-0.9-5.2,0.9-7.4c3.5-5.2,6.5-10.4,10-15.6
		c2.6-3.9,6.1-6.1,10.9-5.6c4.8,0.4,7.8,3.5,9.6,7.8c1.3,3.9,2.2,8.3,2.6,12.6c0.4,6.5,3.5,11.7,9.6,15.2c11.7,7,23,14.3,34.3,21.3
		c5.2,3.5,5.6,5.6,1.7,10.4c-2.2,2.2-5.2,3.9-8.7,3.9c-3,0-5.6-0.4-5.6-4.8c0-9.1-4.8-16.1-12.2-20.4S188.7,1522.9,181.3,1519z
		 M198.7,1559.4c-3,5.2-9.1,7-14.8,3.5c-6.5-3.5-13.5-7.4-20-11.3c-4.8-2.6-6.1-7.4-4.8-12.2c1.7-4.8,5.2-7.4,10-7.4
		c2.2,0,3.9,0.4,5.6,1.3c6.5,3.9,13,7.4,19.6,11.3C200,1548.1,201.8,1554.2,198.7,1559.4z M154.8,1455.6c-10,17.4-20,34.3-30,51.7
		c-0.9,0.9-1.7,2.6-4.8,2.6c-3.5,0-5.2-3.9-3-7.4c6.1-10.9,12.6-21.7,18.7-32.2c3.9-6.5,7.8-13,11.3-19.6c1.7-3,3.9-4.8,7-2.6
		C157,1449.9,156.6,1452.5,154.8,1455.6z M107,1487.3c-6.1,10-5.2,19.6,0.4,28.7c3.5,5.2,7.8,9.6,13.5,13c3.5,2.2,7,4.3,10.9,6.5
		c6.5,3.5,11.7,7,12.6,15.6c0.9,6.5,6.1,11.3,12.2,14.8c6.5,3.5,13,7.4,19.6,11.3c7.4,4.3,15.2,4.8,23.5,1.7
		c5.2-1.7,8.3,0.4,8.3,5.6c0,10.9-2.6,13.5-13.5,11.7c-5.6-0.9-11.3-2.2-16.9-3c-10-1.3-18.7,1.3-24.8,9.6
		c-4.3,6.1-8.7,12.2-12.6,18.3c-1.7,2.6-3.5,3.5-6.5,3.5c-8.7,0-16.9-0.4-25.6,0c-7,0.4-11.7-1.7-16.1-7c-2.6-3-4.3-5.6-3-10
		c7.4-22.2,3.5-44.3-1.7-66.1c-3-13-6.1-26.5-1.7-40c6.1-16.9,16.9-29.5,35.2-37.8C115.7,1472.5,111.4,1479.9,107,1487.3z
		 M98.8,1728.9c7.8-20,15.6-40.4,23.5-60.4c1.3-3,2.6-3.9,5.6-3.9c5.6,0.4,12.6-2.2,16.5,0.9c3.9,3,4.8,9.6,7,14.8
		c10.4,26.1,20.9,52.1,31.3,78.2c1.7,3.9,1.3,5.2-3,4.8c-4.3-0.4-8.3-0.4-12.6,0c-3.5,0.4-4.8-1.3-6.1-4.3c-2.2-6.1-3-13.9-7.4-17.4
		c-4.8-3.5-12.6-0.9-19.1-0.9c-5.2,0-10.9,0-16.1,0c-2.6,0-3.9,0.9-4.8,3.5c-1.7,5.2-3.9,10.4-5.6,15.6c-0.9,2.6-2.2,3.5-4.8,3.5
		c-5.6,0-11.3,0-17.8,0C90.1,1751.5,94.4,1740.2,98.8,1728.9z M56.6,1688.9c-5.6,22.6-11.7,44.8-16.9,67.4c-1.3,5.2-3,7.4-8.7,7
		c-12.2-0.4-12.2,0-15.2-12.6c-4.8-19.1-9.6-38.2-14.3-57.4c-0.4-1.3-0.9-3-1.7-4.3c0,12.6,0,25.2,0,37.8c0,10.4,0,21.3,0,31.7
		c0,3.5-1.3,4.8-4.3,4.3c-4.8-0.4-10.9,2.2-13.5-1.3c-2.2-2.6-0.9-8.7-0.9-13c0-26.5,0-53,0-79.1c0-4.3,1.3-5.6,5.6-5.2
		c6.5,0.4,13,0.4,20,0c3.5,0,5.2,0.9,6.1,4.3c4.8,19.1,10,38.7,15.2,57.8c0.4,1.3,0.4,2.6,1.7,3c5.2-20.4,10.9-40.4,16.1-60.8
		c0.9-3,1.7-4.8,5.6-4.8c7.4,0.4,14.8,0.4,21.7,0c3,0,3.9,0.9,3.9,3.9c0,30.4,0,60.8,0,91.3c0,3-1.3,3.9-3.9,3.9
		c-3.5,0-7.4-0.4-10.9,0c-3.5,0.4-3.9-1.3-3.9-4.3c0-23.5,0-46.5,0-70C57.1,1689.4,56.6,1688.9,56.6,1688.9z M17.5,1832.3
		c0,8.7-7,15.6-15.6,15.2c-8.3,0-15.2-7-15.2-15.2s7-15.6,15.6-15.2C10.6,1817.1,17.5,1824.1,17.5,1832.3z M50.5,1603.3
		c-6.5,9.6-13.5,18.7-20,28.7c-1.7,2.6-2.6,3-4.8,0.4c-7.8-9.1-7.8-9.1-0.9-18.7c5.2-7.4,10.4-14.8,15.6-22.2
		c1.3-2.2,2.6-2.6,3.9-0.4c1.7,2.6,3.9,4.8,6.1,7c0.4,0.9,1.3,1.7,1.7,2.6C51.4,1601.6,51,1602.4,50.5,1603.3z M65.7,1618.5
		c4.8,14.3-5.6,27.8-19.6,27.4c-1.3,0-2.6,0.4-3.5-0.9c-0.4-1.3,0.9-2.2,1.7-3C51.4,1634.2,58.4,1626.8,65.7,1618.5z M19.3,1569.9
		c2.2-3,3.9-3.9,7-0.4c5.2,7,5.6,6.5,0.4,13.9c-5.6,7.8-11.3,16.1-16.9,23.9c-0.9,0.9-1.7,1.7-2.6,3c-0.9-1.3-1.7-2.2-2.6-3
		c-6.5-7.4-6.5-7.4-0.9-15.2C8.8,1584.6,14,1577.2,19.3,1569.9z M20.6,1510.8c2.6-4.3,4.3-4.8,7.8-0.9c5.6,6.1,6.1,6.1,1.3,13
		c-1.7,3-3.9,6.1-6.1,9.6C13.6,1522.5,13.6,1522.5,20.6,1510.8z M4.9,1549.4c-9.6,7.8-18.7,16.1-27.8,24.3c-1.7,1.7-2.6,1.7-4.3-0.4
		c-8.7-10-8.7-10,1.3-18.3c7-6.1,14.3-11.7,20.9-17.8c2.2-1.7,3-1.7,4.8,0.4c2.2,3,4.8,6.1,7.8,10C6.7,1548.1,5.8,1548.6,4.9,1549.4
		z M-42.5,1591.1c-5.2,2.2-10,4.3-14.8,6.5c-1.3,0.9-2.6,0.4-3.5-0.4c-3-3.9-6.1-7.4-10-11.3c5.2-2.2,10-4.3,14.3-6.5
		c1.3-0.9,2.6-0.4,3.5,0.9C-49.8,1583.8-46.4,1587.2-42.5,1591.1z M-36.4,1669.4c0,29.5,0,59.5,0,89.1c0,3.9-0.9,5.6-4.8,4.8
		c-4.8-0.4-11.7,2.2-14.3-1.3c-2.6-2.6-0.9-9.1-0.9-13.9c0-11.3,0-23,0-34.3c0-14.8,0-30,0-44.8c0-3.5,0.9-4.8,4.3-4.3
		c3.9,0.4,7.8,0.4,11.3,0C-36.8,1664.2-36.4,1665.9-36.4,1669.4z M-38.1,1356.1c5.6-1.7,11.3-3.9,17.4-5.2
		c9.1-2.6,14.8-0.9,18.3,5.2c2.6,6.5,0.9,12.2-6.5,18.3c8.3,2.6,13.9,9.1,20.4,14.3c-6.5,4.3-12.2,4.3-17.4-1.7
		c-2.2-2.6-5.2-3.9-7.8-6.1c-1.7-1.3-3-2.2-5.2-2.2c-4.8,0-6.1,1.3-4.3,6.1c0.9,3.5,1.7,6.5,3.5,10c1.3,3.5,0.4,4.3-2.6,5.6
		c-3.9,1.7-5.6,0.4-7-3.5c-3.5-11.7-7.4-23.5-11.3-35.2C-42,1358.7-41.6,1356.9-38.1,1356.1z M-113.3,1396.5
		c6.5-3.9,12.6-8.3,19.6-12.2c6.5-3.9,12.2-2.6,16.5,2.2c4.3,5.2,4.3,10.4,0,16.9c-0.9,0.4-1.3,0.9-1.7,2.2
		c8.7,0.4,15.6,5.2,22.6,8.3c-5.2,6.1-7.8,7-14.8,3.9c-3.5-1.7-7.4-3-10.9-4.8c-1.7-0.9-3.5-1.3-5.6-0.4c-4.8,1.3-5.6,2.6-2.6,7
		c1.3,2.2,3,4.8,4.3,7c3.5,5.6,3.5,5.6-2.2,9.1c-2.2,1.3-3,0.9-3.9-0.9c-7.4-11.7-14.8-23-22.2-34.8
		C-115.5,1398.2-115,1397.3-113.3,1396.5z M-171.9,1449.5c6.5-6.5,12.6-13.5,18.7-20c2.2-2.6,3.5-1.7,5.2,0c2.2,2.2,3,3,0.4,5.6
		c-4.3,4.3-8.3,9.1-12.6,13c-3,3-0.4,4.3,1.3,5.2c1.7,1.3,2.6,5.6,6.1,1.7c3.9-4.3,7.8-8.3,11.7-12.6c2.6-3,3.5-0.9,5.2,0.9
		c1.7,1.3,3.5,2.6,0.9,4.8c-3.9,4.3-8.7,9.6-13,14.3c8.7,9.1,8.7,9.1,16.9,0c2.6-2.6,5.2-5.6,7.8-8.3c2.2-2.6,3.5-0.9,4.8,0.9
		c1.3,1.3,3.5,2.2,0.9,4.8c-7,7-13.5,14.3-20.4,21.7c-1.7,2.2-2.6,1.7-4.3,0c-9.6-9.1-19.1-18.3-29.1-26.9
		C-173.7,1453-174.1,1451.7-171.9,1449.5z M-214.1,1512.5c4.3-7.8,8.7-15.2,13-23c1.7-3,3.5-1.3,4.8-0.4c1.7,0.9,3.9,1.3,2.2,4.3
		c-3,4.3-5.2,9.6-8.3,13.9c-1.3,2.2-1.7,3.5,0.9,4.8c6.5,3.9,6.5,3.9,10.4-2.6c1.7-2.6,3-5.2,4.8-8.3c0.9-1.3,1.3-2.6,3-1.3
		c1.7,0.9,4.3,1.3,5.2,3.5c-1.7,3-3,5.6-4.8,8.7c-4.3,7.8-4.3,7.8,3,11.7c1.3,0.9,3,1.7,4.3,2.6c5.2,3,5.6,5.2,1.3,10
		c-1.3,1.3-2.2,0.4-3,0c-12.2-7-23.9-13.5-36.1-20.4C-215,1515.1-215,1514.2-214.1,1512.5z M-272.3,1681.1c-5.6,0-13.5-2.6-16.5,0.9
		c-2.6,3-0.9,10.4-0.9,16.1c0,20,0,40,0,60c0,3.9-0.9,5.2-4.8,4.8c-4.8-0.4-11.3,2.2-14.3-1.3c-3-3-0.9-9.1-0.9-13.9
		c0.4-8.3,0.4-16.9,0.4-25.6c0-12.2,0-24.8,0-36.9c0-3-0.9-3.9-3.9-3.9c-7.4,0-14.8,0-21.7,0c-3,0-3.9-0.9-3.9-3.9
		c-0.4-13-0.4-13,12.6-13c20.4,0,40.8,0,61.3,0c3.5,0,4.8,0.9,4.8,4.8C-260.2,1681.1-260.2,1681.1-272.3,1681.1z M-228,1744.5
		c-1.7,5.6-3.9,10.9-6.1,16.5c-0.9,2.2-1.7,3-3.9,3c-4.8,0-9.6,0-14.8,0c-3.5,0-3.5-1.3-2.2-3.5c12.2-30.9,23.9-61.3,35.6-92.1
		c0.9-2.2,2.2-3,4.3-3c5.6,0,12.2-1.7,16.9,0.9c4.8,2.2,4.8,10,7,15.2c11.3,25.6,22.2,52.6,33,80.4c4.3-6.5,8.7-13,12.6-19.1
		c6.1-9.1,11.7-18.3,18.3-27.4c1.7-2.6,1.7-4.8,0-7.4c-9.6-14.3-18.7-28.2-28.2-43.5c7.8,0,14.8,0,21.7,0c2.2,0,2.6,1.7,3.5,3.5
		c5.6,9.1,11.7,18.3,17.8,28.2c6.1-9.6,11.7-18.7,16.9-27.8c1.7-2.6,3.5-3.9,6.5-3.5c6.1,0.4,11.7,0,17.8,0c0.9,1.7-0.4,2.6-1.3,3.9
		c-8.3,13-16.5,26.1-25.2,39.1c-2.6,3.9-2.2,6.5,0.4,10.4c10,14.8,20,29.5,30.4,45.6c-8.3,0-15.2,0-22.6,0c-2.2,0-2.6-1.7-3.5-3
		c-6.5-10-13-20-20-30.9c-6.5,10.4-13,20-19.1,30c-2.2,3.5-4.3,4.3-7.8,4.3c-11.3-0.4-23-0.4-34.3,0c-3.9,0-5.6-1.3-6.5-4.8
		c-1.7-4.8-3.9-9.6-5.6-14.8c-0.9-2.2-1.7-3.5-4.3-3.5c-11.3,0-22.2,0-33.5,0C-226.7,1741.5-227.6,1742.4-228,1744.5z
		 M-182.8,1866.2c-1.7-2.2-3.9-3.9,0.4-6.5c3.9-2.2,7.4-5.2,10.9-7.8c1.7-1.3,2.2-2.6,0.4-3.9c-0.4-0.4-0.4-0.4-0.4-0.9
		c-2.6-3.9-5.2-9.6-8.7-10.4c-3.5-0.9-7.4,4.3-10.9,7c-5.6,3.9-5.6,3.9-9.6-2.2c-0.9-1.3-0.9-2.2,0.4-3.5
		c11.7-7.8,23.9-16.5,35.6-25.2c6.1,7.4,6.1,7.4-1.3,12.6c-7.8,5.6-7.8,5.6-2.2,13.5c5.2,7,5.2,7,12.2,1.7c1.3-0.9,2.6-1.3,3.5-2.6
		c3.5-3.5,5.2-2.6,7.8,1.3c1.7,2.6,1.7,3.9-0.9,5.6c-10.9,7.4-21.3,15.2-31.7,23C-180.6,1870.6-181.5,1868.4-182.8,1866.2z
		 M-156.7,1896.2c-1.3-1.7-5.2-2.6-1.7-6.1c9.6-9.1,19.6-18.7,29.1-28.2c0.9-0.9,1.7-2.6,3.5-1.3c1.7,2.2,3.9,3.9,6.1,5.6
		c-1.7,1.7-2.2,2.6-3,3c-9.6,9.1-19.1,18.7-28.7,27.8C-154.1,1899.7-155.4,1897.9-156.7,1896.2z M-81.1,1906.6
		c0,11.7-9.6,24.8-19.1,27.8c-5.2,1.7-10.4,0.9-14.8-2.2c-5.2-3.5-10-7.4-15.2-10.9c-2.2-1.3-1.7-2.6-0.4-3.9
		c8.3-10.9,16.1-21.7,24.3-32.6c1.7-2.2,2.6-2.2,4.3-0.4c4.8,3.9,9.6,7.4,14.3,10.9C-83.3,1898.4-80.7,1902.7-81.1,1906.6z
		 M-24.6,1940.5c-1.7,6.5-6.1,10-13.9,10c-1.3,0-2.2,0-3,0c4.3,7.8,4.3,16.1,5.6,23.9c-10-2.6-10-3-11.7-12.2
		c-0.4-3.5-1.3-7-2.2-10.9c-0.4-1.7-0.9-3-2.2-3.9c-3.5-3.9-5.6-3.5-7.8,1.3c-1.3,3-2.6,5.6-3.5,8.7c-1.3,4.3-3.5,4.3-7,2.6
		c-3-1.3-3.5-2.6-2.2-5.6c5.2-11.7,10.4-23.5,15.6-35.2c1.3-2.6,2.2-3.9,5.2-2.2c6.5,3,13,5.6,19.1,8.7
		C-25.5,1929.2-23.3,1934-24.6,1940.5z M27.1,1990.1c-3.9-0.4-7-1.3-6.5-6.5c0.4-5.2-2.6-7-7.4-7c-0.9,0-2.2-0.4-3-0.4
		c-8.7-1.7-8.7-1.7-13.5,5.2c-1.3,2.2-9.1,2.2-10.4,0.4c-0.9-1.3,0.4-1.7,0.9-2.6c7.8-12.2,15.6-24.3,23.5-36.9
		c1.3-2.2,2.6-2.6,4.8-1.7c2.6,1.3,6.5-0.4,7.4,3.5c3,15.2,5.6,30.9,8.7,46.9C29.7,1990.5,28.4,1990.1,27.1,1990.1z M94.9,1980.1
		c-0.4,7.8-4.3,12.2-12.2,13.5c-4.3,0.9-9.1,0.9-13.5-0.4c-6.1-1.3-10.4-6.1-10.9-12.6c-0.4-10.4-0.4-21.3-0.4-31.7
		c0-4.3,3.5-2.2,5.2-2.6c2.2-0.4,4.3-0.4,4.3,3.5c-0.4,8.7,0,17.8,0,26.5c0,7,3.9,10.4,10.4,9.6c4.8-0.4,7.4-3,7.4-7.8
		c0-8.7,0.4-17.4,0-26.1c0-3.9,0.9-5.6,5.2-5.6c5.2,0,4.3,3,4.3,6.1c0,4.3,0,8.3,0,12.6c0.1,0,0.2,0,0.2,0c0,0-0.2,0-0.2,0
		C94.9,1970.1,95.3,1974.9,94.9,1980.1z M156.1,1984.8c-8.7,1.7-17.8,3-26.5,4.8c-2.2,0.4-3,0-3.5-2.2c-2.2-13-4.8-26.1-7.4-38.7
		c-1.3-5.6,3-3.9,5.6-4.8c3.5-1.3,3.5,1.3,3.9,3.5c1.7,9.6,3.5,19.6,5.2,29.1c0.4,3,0.9,5.2,5.2,3.9c4.8-1.3,9.6-1.3,14.3-2.6
		c4.8-2.2,5.2,0.9,5.2,3.9C158.7,1983.5,157.9,1984.4,156.1,1984.8z M187,1975.7c-1.7,0.9-2.6,0.4-3-1.3c-4.8-13-9.6-26.5-13.9-39.5
		c-1.3-3.9,2.6-3,4.3-3.9c1.3-0.9,3.5-2.2,4.3,0.9c4.8,13,9.1,26.5,13.9,39.5c0.4,0,0.4,0.4,0.9,1.3
		C192.2,1974.4,189.2,1974.4,187,1975.7z M97.9,1915.8c-94.7,6.1-170.3-30-228.1-104.3c0-0.9,0-1.3,0.4-1.7c33.5,0,66.5,0,100.4,0
		c-2.6,8.3-3.9,16.5-1.3,25.2c3.5,13,11.3,22.2,24.8,25.6c14.8,3.9,26.9-0.9,37.4-11.3c3-3,5.6-6.5,7.4-10.4
		c4.8-8.7,9.6-17.4,14.3-26.1c0.9-2.2,2.2-3,4.8-3c74.7,0,149.9,0,226,0c-22.2,30.9-49.1,55.2-81.3,73.9
		C170,1902.3,135.3,1913.6,97.9,1915.8z M238.7,1952.7c-7.8,3.9-15.2,3.5-22.2-1.7c-7-5.2-10.9-12.6-11.3-21.3
		c-0.4-8.3,3.5-14.8,10.4-18.7c6.5-3.9,13.5-4.8,20-0.4c1.3,0.9,3.9,1.7,2.2,3.5c-1.7,2.2-3.5,6.5-7,4.3c-5.2-3-9.6-2.6-13.9,1.3
		c-3.9,3.5-3.9,8.3-1.3,14.3c1.7,3.5,3.5,7,6.5,9.6c3.5,3.5,7.4,4.3,11.7,2.6c4.3-1.7,6.1-4.8,6.1-10.4c-1.3-6.5,3.9-4.3,6.5-5.2
		c3.9-0.9,2.6,2.6,3,4.3C250.4,1943.6,245.7,1949.2,238.7,1952.7z M280.8,1917.9c-12.2,0-25.2-13.5-25.2-26.1
		c0-11.3,11.7-22.6,23-22.6c12.2,0,25.2,13.5,25.2,26.1C303.9,1906.6,292.1,1917.9,280.8,1917.9z M346.5,1851.9
		c-1.7,5.6-5.2,10.4-10,13.9c-3.9,2.6-8.3,3.5-12.6,2.2c-6.1-1.7-6.1-2.2-2.6-7.4c1.3-1.7,2.2-2.6,4.3-1.7
		c5.6,1.7,11.7-2.6,12.6-8.3c0.4-2.6,0-4.8-2.2-6.5c-2.2-1.3-4.3-0.4-6.1,0.9c-3.9,3-7.8,6.1-12.2,8.7c-6.5,3.9-14.3,1.7-17.4-4.8
		c-3.5-6.5-0.4-12.2,3.5-17.4c3.9-5.2,8.7-9.1,15.6-8.3c2.2,0.4,6.1,0.4,5.2,3.5c-1.7,3-2.6,7.8-8.7,6.1c-3.9-0.4-10.4,6.1-9.1,10.4
		c0.9,3.9,3.9,3.5,6.5,1.7c4.3-3,7.8-6.1,12.2-8.7c5.6-3.9,10.9-3.5,16.1,0.4C346.5,1840.6,348.2,1845.8,346.5,1851.9z
		 M385.1,1731.9c-5.2,18.7-20.4,31.3-40,32.6c-6.5,0.4-13,0.4-19.6-1.3c-18.7-4.8-31.7-20-33.5-40c-0.4-3-0.4-6.1-0.9-9.1
		c0-13,2.6-25.2,11.3-35.6c12.2-14.3,33.5-19.6,53.9-13c17.4,5.6,29.1,21.3,30.4,40.8C387.3,1715,387.3,1723.7,385.1,1731.9z
		 M486,1763.2c-1.7,0-3.5,0-5.2,0c-10.9,0-10.9,0-14.8-10c-4.8-12.2-4.8-12.2-17.8-12.2c-7.8,0-15.2,0-23,0c-2.6,0-3.5,0.9-4.3,3
		c-1.7,5.2-3.9,10.4-5.6,15.6c-0.9,2.6-2.2,3.9-5.2,3.9c-4.8-0.4-9.6,0-13.9,0c-2.6,0-3.5-0.9-2.2-3.5c12.2-30.9,24.3-62.1,36.1-93
		c0.4-1.7,1.3-2.6,3.5-2.6c0.4,0,0.9,0,1.7,0c5.6,0,12.6-1.7,16.9,0.9c3.9,2.6,4.8,9.6,6.5,14.8c10.4,26.1,20.9,51.7,30.9,77.8
		C491.6,1763.2,491.6,1763.2,486,1763.2z M545.1,1743.2c-11.3-0.4-21.3-7-24.8-16.9c16.9,0,33.5,0,50.4,0
		C566.3,1736.7,555.9,1743.7,545.1,1743.2z"/>
</g>
<g>
	<path fill="#FFFFFF" d="M-208.6,1687.7c4.3,12.2,8.7,23,12.6,33.9c0.9,2.2,0,2.6-2.2,2.6c-7.8,0-15.6,0-23.9,0
		C-217.7,1712.1-213.4,1700.8-208.6,1687.7z"/>
	<path fill="#FFFFFF" d="M229,1681.6c4.3,0,9.1-0.4,13.5,0c7,0.4,10.9,5.2,10.9,12.2s-3.5,10.9-10.9,12.2
		c-8.7,1.3-17.8,0.4-26.5,0.9c-2.2,0-2.6-0.9-2.6-2.6c0-6.5,0-13,0-19.1c0-2.2,0.4-3,3-3C220.8,1681.6,225.1,1681.6,229,1681.6
		L229,1681.6z"/>
	<path fill="#FFFFFF" d="M365.5,1712.9c0,5.2-0.4,10-1.7,14.8c-3.5,12.2-13,20-25.2,20c-11.7,0-22.2-7.4-25.6-19.1
		c-2.6-8.7-2.6-17.8-0.9-26.9c3-14.8,13-22.2,27.8-21.7c13.5,0.4,22.6,10,24.8,24.3C365.5,1707.7,365.5,1710.3,365.5,1712.9z"/>
	<path fill="#FFFFFF" d="M453.7,1724.2c-8.3,0-15.6,0-23,0c-1.7,0-3.9,0.4-2.6-2.6c3.9-10.9,7.8-21.7,12.2-33.9
		C445,1700.8,449.3,1712.1,453.7,1724.2z"/>
	<path fill="#FFFFFF" d="M119.9,1724.2c4.3-12.2,8.7-23.5,13-36.1c4.8,12.6,9.1,24.3,13.5,36.1
		C137.3,1724.2,129.1,1724.2,119.9,1724.2z"/>
	<path fill="#FFFFFF" d="M-89.1,1391.4c1.7,0,3,1.3,3.9,3.5c1.3,2.2,0.9,3.9-0.4,5.6c-3,3.5-7.4,5.2-10.9,7.8
		c-1.7,0.9-2.2-0.4-2.6-1.3c-5.6-7-5.6-7.4,2.2-12.2C-95.2,1393.5-93,1391.4-89.1,1391.4z"/>
	<path fill="#FFFFFF" d="M-42.6,1943.2c-3.5-1.3-7.8-3.5-11.7-5.2c-1.3-0.4-1.3-1.7-0.9-2.6c0.4-1.7,1.7-3,2.2-4.8
		c0.9-3.5,2.6-4.3,6.1-2.2c2.6,1.7,6.1,2.6,8.7,4.3c2.2,1.3,3.5,3.5,2.2,6.1C-36.9,1941.9-39.1,1943.2-42.6,1943.2z"/>
	<path fill="#FFFFFF" d="M-12.2,1364c0,2.2-0.9,3.9-2.6,4.8c-3.9,1.7-7.8,3-11.7,4.3c-1.7,0.9-2.6-0.4-3-1.7
		c-0.4-1.7-0.9-3.5-1.7-4.8c-1.3-3-0.4-4.3,2.6-4.8c3-0.9,6.1-2.2,9.6-3C-15.2,1357.5-12.2,1360.1-12.2,1364z"/>
	<path fill="#FFFFFF" d="M276.8,1878.5c7.8,0,17.4,10.4,17.4,18.3c0,6.5-6.1,12.2-12.6,12.2c-7.8,0-17.4-10.4-17.4-18.3
		C264.2,1884.1,270.3,1878.5,276.8,1878.5z"/>
	<path fill="#FFFFFF" d="M-91.2,1907.6c0,5.6-8.3,16.9-13.5,18.7c-3.5,1.3-14.8-4.3-15.6-7.4c-0.4-0.9,0.4-1.3,0.9-2.2
		c5.2-7,10-13.5,15.2-20.4c0.4-0.9,0.9-1.7,2.2-1.7C-98.2,1895.4-91.2,1904.1-91.2,1907.6z"/>
	<path fill="#FFFFFF" d="M339.4,1523.9c-2.2-3.9-3.9-7.4-6.1-10.9c3-0.4,5.2-0.9,7.8-1.3c3-0.4,5.6-0.9,10-1.3
		C346.8,1514.8,343.3,1519.1,339.4,1523.9z"/>
	<path fill="#FFFFFF" d="M14.3,1951.5c0.9,5.2,1.3,9.1,2.2,12.6c0.9,3.9,0.9,6.1-4.3,4.3c-2.2-0.9-4.8-0.4-7-2.2
		C7.8,1961.9,10.4,1957.6,14.3,1951.5z"/>
</g>
<path fill="#FFFFFF" d="M275.7,1415.5c0,3.9-4.8,7-8.3,4.8c-3.5-2.2-7-4.8-10-7.4c-1.3-0.9-0.9-1.7,0-3c4.8-7.8,5.2-7.8,12.2-2.6
	C274.4,1411.6,275.7,1413.3,275.7,1415.5z"/>
</svg>
