<?xml version="1.0" encoding="utf-8"?>
<!-- Generator: Adobe Illustrator 22.1.0, SVG Export Plug-In . SVG Version: 6.00 Build 0)  -->
<svg version="1.1" id="Capa_1" xmlns="http://www.w3.org/2000/svg" xmlns:xlink="http://www.w3.org/1999/xlink" x="0px" y="0px"
	 viewBox="0 0 118 19" style="enable-background:new 0 0 118 19;" xml:space="preserve">
<style type="text/css">
	.st0{fill:#FFFFFF;}
</style>
<title>VENDOR</title>
<desc>Created with Sketch.</desc>
<g id="Page-1">
	<g id="Artboard-Copy-4" transform="translate(-740.000000, -30.000000)">
		<g id="menu" transform="translate(220.000000, 30.000000)">
			<path id="VENDOR" class="st0" d="M537.5,0.5L529.7,18h-1.8l-7.8-17.5h2l6.7,15.2l6.8-15.2H537.5z M553.4,16.4V18H541V0.5h12v1.6
				h-10.2v6.2h9v1.6h-9v6.5H553.4z M573.4,0.5V18h-1.5L560.6,3.8V18h-1.9V0.5h1.5l11.3,14.2V0.5H573.4z M580.1,0.5h7.1
				c1.9,0,3.5,0.4,4.9,1.1c1.4,0.7,2.5,1.8,3.3,3.1s1.2,2.8,1.2,4.5s-0.4,3.2-1.2,4.5s-1.9,2.4-3.3,3.1c-1.4,0.7-3,1.1-4.9,1.1h-7.1
				V0.5z M587.1,16.4c1.5,0,2.9-0.3,4-0.9c1.2-0.6,2-1.4,2.7-2.5c0.6-1.1,1-2.3,1-3.7s-0.3-2.6-1-3.7c-0.6-1.1-1.5-1.9-2.7-2.5
				c-1.1-0.6-2.5-0.9-4-0.9h-5.2v14.3H587.1z M609.4,18.1c-1.7,0-3.3-0.4-4.7-1.2c-1.4-0.8-2.5-1.8-3.3-3.2
				c-0.8-1.4-1.2-2.9-1.2-4.6s0.4-3.2,1.2-4.6c0.8-1.4,1.9-2.4,3.3-3.2c1.4-0.8,3-1.2,4.7-1.2s3.3,0.4,4.7,1.1s2.5,1.8,3.3,3.2
				c0.8,1.4,1.2,2.9,1.2,4.6s-0.4,3.2-1.2,4.6c-0.8,1.4-1.9,2.4-3.3,3.2S611.1,18.1,609.4,18.1z M609.4,16.5c1.4,0,2.6-0.3,3.8-0.9
				c1.1-0.6,2-1.5,2.6-2.6c0.6-1.1,1-2.3,1-3.7s-0.3-2.6-1-3.7c-0.6-1.1-1.5-2-2.6-2.6C612,2.3,610.7,2,609.4,2
				c-1.4,0-2.6,0.3-3.8,0.9s-2,1.5-2.6,2.6s-1,2.3-1,3.7s0.3,2.6,1,3.7s1.5,2,2.6,2.6C606.7,16.2,608,16.5,609.4,16.5z M635.6,18
				l-4-5.6c-0.5,0.1-0.9,0.1-1.4,0.1h-4.7V18h-1.8V0.5h6.5c2.2,0,4,0.5,5.2,1.6s1.9,2.5,1.9,4.4c0,1.4-0.3,2.5-1,3.5
				c-0.7,0.9-1.7,1.6-3,2l4.3,6H635.6z M630.2,10.9c1.7,0,3.1-0.4,4-1.1c0.9-0.8,1.4-1.8,1.4-3.2c0-1.4-0.5-2.5-1.4-3.3
				c-0.9-0.8-2.2-1.1-4-1.1h-4.7v8.8H630.2z"/>
		</g>
	</g>
</g>
</svg>
