<?xml version="1.0" encoding="utf-8"?>
<!-- Generator: Adobe Illustrator 27.0.0, SVG Export Plug-In . SVG Version: 6.00 Build 0)  -->
<svg version="1.1" id="Capa_1" xmlns="http://www.w3.org/2000/svg" xmlns:xlink="http://www.w3.org/1999/xlink" x="0px" y="0px"
	 viewBox="0 0 1128 725" style="enable-background:new 0 0 1128 725;" xml:space="preserve">
<style type="text/css">
	.st0{fill:#000065;}
	.st1{fill:#8C8CBA;}
	.st2{fill:#BEBED8;}
	.st3{fill:#EACA37;}
	.st4{fill:#FEFEFE;}
	.st5{fill:#FDFDFE;}
	.st6{fill:#E9CA37;}
	.st7{fill:#FDFDFD;}
	.st8{fill:#010166;}
	.st9{fill:#000066;}
	.st10{fill:#020267;}
	.st11{fill:#050569;}
	.st12{fill:#060669;}
</style>
<g>
	<path class="st0" d="M544.4,724.6c-3.9-2.2-7.8-1.3-11.7-1.7C400.1,708.5,303.2,642,240.2,524.7c-0.9-1.3-1.7-2.6-1.7-3.9
		c-2.2-10-8.7-11.3-18.3-11.3c-42.2,0.4-84.3,0.4-126,0c-46.1,0-83-30.4-92.1-75.6c-10.9-53,30-106.5,83.9-109.1
		c36.5-1.7,73-0.4,109.5-0.4c8.7,0,8.7,0,10-8.7c7.8-56.9,26.9-109.5,60-156.9C322.9,76.2,401.5,25,500.6,6.3
		c182.9-33.9,364.5,81.2,412.7,261.1c4.8,16.9,8.3,34.3,10,52.1c0.4,3.9,1.7,5.2,5.6,5.2c34.3,0,68.7,0,103.4,0
		c36.9,0,65.6,15.6,83.9,47.8c31.7,56.5-4.3,128.2-68.2,136.4c-5.2,0.9-10,0.9-15.2,0.9c-44.3,0-88.2,0-132.5,0
		c-3.9,0-6.1,1.3-7.8,4.8C841.2,619.8,759.1,686.8,645.7,715c-20.4,5.2-40.8,7.4-61.7,8.7c-0.9,0-2.6-0.9-3,0.9c-2.6,0-5.6,0-8.3,0
		c-6.1-1.3-12.2-0.4-18.3-0.4c-2.6,0.4-5.2-0.4-7.8,0.4C544.8,724.6,544.4,724.6,544.4,724.6z"/>
	<path class="st1" d="M552.7,723.7c6.1,0.4,12.6-1.3,18.7,0.9c-6.1,0-12.6,0-18.7,0C552.2,724.6,552.2,724.1,552.7,723.7
		C552.2,723.7,552.2,723.7,552.7,723.7z"/>
	<path class="st2" d="M552.7,723.7c0,0.4,0,0.4,0,0.9c-2.6,0-4.8,0-7.4,0C547.5,722.4,550.1,724.1,552.7,723.7z"/>
	<path class="st3" d="M643.5,323.9c2.6-4.3,5.6-8.3,8.7-12.2c2.2-2.2,5.2-3,8.3-2.6c5.6,0.9,11.3,1.7,16.9,2.6
		c4.3,0.9,8.3,0.9,12.6,0.4c11.3-1.3,18.7-8.7,20-20.4c0.9-5.2-0.9-10.4,0.9-14.8c1.7-4.8,8.7-3.9,12.6-7c7.4-6.1,12.6-13.5,13.9-23
		c0.9-8.7-2.6-14.8-10-19.1c-11.7-6.5-23-13.5-34.8-20c-2.6-1.3-3.9-3-4.3-6.1c-2.6-13-5.6-26.1-8.3-39.1c-0.9-3.5-2.6-6.5-5.6-8.3
		c-9.1-5.6-18.3-11.7-26.9-17.4c-3.9-2.6-7.4-2.6-11.3-0.4c-7.8,4.8-16.5,7.8-25.6,10c-33.5,7.8-64.3,42.2-54.3,89.1
		c2.6,12.6,6.1,25.2,7,38.2c0.9,8.3,0,16.1-1.7,23.9c-1.7,0.4-2.2-0.9-3-1.7c-12.2-13.9-24.3-28.2-36.5-42.2
		c-2.2-2.6-2.6-4.8-0.9-7.8c5.2-9.6,9.6-19.6,14.8-29.1c2.6-4.8,1.7-8.7-2.2-12.6c-6.1-6.1-12.2-11.7-18.3-17.8
		c-3.9-3.9-7.8-4.8-12.6-2.2c-2.6,1.3-5.2,2.6-8.3,3.5c-7,3-13.9,6.1-22.2,7.4c-11.3,1.7-21.3,7.4-30.4,14.3
		c4.3,1.7,8.3,3.5,12.2,5.2c2.2,0.9,3.9,2.6,2.6,5.2s-3.5,1.3-5.6,0.4c-18.7-7.8-14.8-8.3-28.2,6.5c-9.1,10.4-15.2,22.2-15.6,36.5
		c0,6.1-4.3,11.3-7,17.4c-4.3,10-4.3,10.9,3,18.7c4.8,4.8,9.1,10,13.9,14.8c3.9,4.3,7.8,4.8,13,2.6c9.6-4.3,19.6-8.7,29.1-12.6
		c1.7-0.9,3-1.7,5.2,0c5.2,6.5,10.9,13,16.5,19.6c-2.2,1.3-3.9,0.9-5.2,0.9c-53,0-106.5,0-159.5,0c-4.3,0-5.2-0.9-4.3-5.6
		c18.3-106,102.6-190.3,208.1-207.7c133.4-21.7,259,61.7,290.3,192.5c1.3,5.2,2.2,10.4,3,15.6c0.9,3.9-0.4,4.8-3.9,4.8
		c-26.5,0-53,0-79.1,0c-26.9,0-54.3,0-81.3,0C647.4,324.8,645.7,325.2,643.5,323.9z"/>
	<path class="st3" d="M357.1,509.9c33.5,0,66.5,0,100.4,0c-2.6,8.3-3.9,16.5-1.3,25.2c3.5,13,11.3,22.2,24.8,25.6
		c14.8,3.9,26.9-0.9,37.4-11.3c3-3,5.6-6.5,7.4-10.4c4.8-8.7,9.6-17.4,14.3-26.1c0.9-2.2,2.2-3,4.8-3c74.7,0,149.9,0,226,0
		c-22.2,30.9-49.1,55.2-81.3,73.9c-32.6,18.7-67.4,30-104.7,32.2c-94.7,6.1-170.3-30-228.1-104.3
		C356.7,510.8,356.7,510.3,357.1,509.9z"/>
	<path class="st4" d="M328.9,462.1c4.3-6.5,8.7-13,12.6-19.1c6.1-9.1,11.7-18.3,18.3-27.4c1.7-2.6,1.7-4.8,0-7.4
		c-9.6-14.3-18.7-28.2-28.2-43.5c7.8,0,14.8,0,21.7,0c2.2,0,2.6,1.7,3.5,3.5c5.6,9.1,11.7,18.3,17.8,28.2
		c6.1-9.6,11.7-18.7,16.9-27.8c1.7-2.6,3.5-3.9,6.5-3.5c6.1,0.4,11.7,0,17.8,0c0.9,1.7-0.4,2.6-1.3,3.9c-8.3,13-16.5,26.1-25.2,39.1
		c-2.6,3.9-2.2,6.5,0.4,10.4c10,14.8,20,29.5,30.4,45.6c-8.3,0-15.2,0-22.6,0c-2.2,0-2.6-1.7-3.5-3c-6.5-10-13-20-20-30.9
		c-6.5,10.4-13,20-19.1,30c-2.2,3.5-4.3,4.3-7.8,4.3c-11.3-0.4-23-0.4-34.3,0c-3.9,0-5.6-1.3-6.5-4.8c-1.7-4.8-3.9-9.6-5.6-14.8
		c-0.9-2.2-1.7-3.5-4.3-3.5c-11.3,0-22.2,0-33.5,0c-2.6,0-3.5,0.9-3.9,3c-1.7,5.6-3.9,10.9-6.1,16.5c-0.9,2.2-1.7,3-3.9,3
		c-4.8,0-9.6,0-14.8,0c-3.5,0-3.5-1.3-2.2-3.5c12.2-30.9,23.9-61.3,35.6-92.1c0.9-2.2,2.2-3,4.3-3c5.6,0,12.2-1.7,16.9,0.9
		c4.8,2.2,4.8,10,7,15.2C307.2,407.4,318,434.3,328.9,462.1z"/>
	<path class="st4" d="M543.5,389.1c-5.6,22.6-11.7,44.8-16.9,67.4c-1.3,5.2-3,7.4-8.7,7c-12.2-0.4-12.2,0-15.2-12.6
		c-4.8-19.1-9.6-38.2-14.3-57.4c-0.4-1.3-0.9-3-1.7-4.3c0,12.6,0,25.2,0,37.8c0,10.4,0,21.3,0,31.7c0,3.5-1.3,4.8-4.3,4.3
		c-4.8-0.4-10.9,2.2-13.5-1.3c-2.2-2.6-0.9-8.7-0.9-13c0-26.5,0-53,0-79.1c0-4.3,1.3-5.6,5.6-5.2c6.5,0.4,13,0.4,20,0
		c3.5,0,5.2,0.9,6.1,4.3c4.8,19.1,10,38.7,15.2,57.8c0.4,1.3,0.4,2.6,1.7,3c5.2-20.4,10.9-40.4,16.1-60.8c0.9-3,1.7-4.8,5.6-4.8
		c7.4,0.4,14.8,0.4,21.7,0c3,0,3.9,0.9,3.9,3.9c0,30.4,0,60.8,0,91.3c0,3-1.3,3.9-3.9,3.9c-3.5,0-7.4-0.4-10.9,0s-3.9-1.3-3.9-4.3
		c0-23.5,0-46.5,0-70C544,389.5,543.5,389.1,543.5,389.1z"/>
	<path class="st4" d="M607.4,164c-4.8,8.7-9.1,16.1-13.5,23.5c-6.1,10-5.2,19.6,0.4,28.7c3.5,5.2,7.8,9.6,13.5,13
		c3.5,2.2,7,4.3,10.9,6.5c6.5,3.5,11.7,7,12.6,15.6c0.9,6.5,6.1,11.3,12.2,14.8c6.5,3.5,13,7.4,19.6,11.3c7.4,4.3,15.2,4.8,23.5,1.7
		c5.2-1.7,8.3,0.4,8.3,5.6c0,10.9-2.6,13.5-13.5,11.7c-5.6-0.9-11.3-2.2-16.9-3c-10-1.3-18.7,1.3-24.8,9.6
		c-4.3,6.1-8.7,12.2-12.6,18.3c-1.7,2.6-3.5,3.5-6.5,3.5c-8.7,0-16.9-0.4-25.6,0c-7,0.4-11.7-1.7-16.1-7c-2.6-3-4.3-5.6-3-10
		c7.4-22.2,3.5-44.3-1.7-66.1c-3-13-6.1-26.5-1.7-40C578.3,184.9,589.2,172.3,607.4,164z"/>
	<path class="st4" d="M736.9,420c16.5,10.9,22.6,28.2,33.9,43.5c-8.3,0-15.6,0-22.6,0c-2.2,0-2.6-2.2-3.5-3.5
		c-6.5-9.1-13-18.7-19.1-27.8c-4.8-7.4-11.7-10.4-20.4-10c-3,0-3.5,0.9-3.5,3.5c0,11.3,0,22.2,0,33.5c0,3.5-0.9,4.8-4.3,4.3
		c-4.8-0.4-11.3,1.7-14.8-0.9s-0.9-9.6-0.9-14.3c0-26.1,0-52.6,0-78.7c0-3.9,0.9-5.2,4.8-4.8c17.4,0.4,34.8-0.9,52.1,0.9
		c14.8,1.7,23,10.9,23.9,24.3c0.9,15.2-6.5,25.2-21.3,29.1C740,419.1,739.1,419.5,736.9,420z"/>
	<path class="st4" d="M778.2,414.3c0-13,2.6-25.2,11.3-35.6c12.2-14.3,33.5-19.6,53.9-13c17.4,5.6,29.1,21.3,30.4,40.8
		c0.4,8.7,0.4,17.4-1.7,25.6c-5.2,18.7-20.4,31.3-40,32.6c-6.5,0.4-13,0.4-19.6-1.3c-18.7-4.8-31.7-20-33.5-40
		C778.6,420.4,778.6,417.4,778.2,414.3z"/>
	<path class="st4" d="M967.7,463.4c-10.9,0-10.9,0-14.8-10c-4.8-12.2-4.8-12.2-17.8-12.2c-7.8,0-15.2,0-23,0c-2.6,0-3.5,0.9-4.3,3
		c-1.7,5.2-3.9,10.4-5.6,15.6c-0.9,2.6-2.2,3.9-5.2,3.9c-4.8-0.4-9.6,0-13.9,0c-2.6,0-3.5-0.9-2.2-3.5c12.2-30.9,24.3-62.1,36.1-93
		c0.4-1.7,1.3-2.6,3.5-2.6c0.4,0,0.9,0,1.7,0c5.6,0,12.6-1.7,16.9,0.9c3.9,2.6,4.8,9.6,6.5,14.8c10.4,26.1,20.9,51.7,30.9,77.8
		c2.2,5.2,2.2,5.2-3.5,5.2C971.1,463.4,969.4,463.4,967.7,463.4z"/>
	<path class="st4" d="M572.2,463.4c4.8-11.7,9.1-23,13.5-34.3c7.8-20,15.6-40.4,23.5-60.4c1.3-3,2.6-3.9,5.6-3.9
		c5.6,0.4,12.6-2.2,16.5,0.9s4.8,9.6,7,14.8c10.4,26.1,20.9,52.1,31.3,78.2c1.7,3.9,1.3,5.2-3,4.8s-8.3-0.4-12.6,0
		c-3.5,0.4-4.8-1.3-6.1-4.3c-2.2-6.1-3-13.9-7.4-17.4c-4.8-3.5-12.6-0.9-19.1-0.9c-5.2,0-10.9,0-16.1,0c-2.6,0-3.9,0.9-4.8,3.5
		c-1.7,5.2-3.9,10.4-5.6,15.6c-0.9,2.6-2.2,3.5-4.8,3.5C584.4,463.4,578.7,463.4,572.2,463.4z"/>
	<path class="st4" d="M177.7,422.1c0-12.2,0-24.8,0-36.9c0-3-0.9-3.9-3.9-3.9c-7.4,0-14.8,0-21.7,0c-3,0-3.9-0.9-3.9-3.9
		c-0.4-13-0.4-13,12.6-13c20.4,0,40.8,0,61.3,0c3.5,0,4.8,0.9,4.8,4.8c0,12.2,0,12.2-12.2,12.2c-5.6,0-13.5-2.6-16.5,0.9
		c-2.6,3-0.9,10.4-0.9,16.1c0,20,0,40,0,60c0,3.9-0.9,5.2-4.8,4.8c-4.8-0.4-11.3,2.2-14.3-1.3c-3-3-0.9-9.1-0.9-13.9
		C177.7,439.5,177.7,430.8,177.7,422.1z"/>
	<path class="st4" d="M430.6,413.9c0-14.8,0-30,0-44.8c0-3.5,0.9-4.8,4.3-4.3c3.9,0.4,7.8,0.4,11.3,0c3.9-0.4,4.3,1.3,4.3,4.8
		c0,29.5,0,59.5,0,89.1c0,3.9-0.9,5.6-4.8,4.8c-4.8-0.4-11.7,2.2-14.3-1.3c-2.6-2.6-0.9-9.1-0.9-13.9
		C430.6,436.9,430.6,425.2,430.6,413.9z"/>
	<path class="st4" d="M708.2,257c-3,0-5.6-0.4-5.6-4.8c0-9.1-4.8-16.1-12.2-20.4s-14.8-8.7-22.2-12.6c-6.5-3.5-13.9-4.3-21.3-1.3
		c-4.3,1.7-7-0.9-9.6-3.5c-2.6-2.2-0.9-5.2,0.9-7.4c3.5-5.2,6.5-10.4,10-15.6c2.6-3.9,6.1-6.1,10.9-5.6c4.8,0.4,7.8,3.5,9.6,7.8
		c1.3,3.9,2.2,8.3,2.6,12.6c0.4,6.5,3.5,11.7,9.6,15.2c11.7,7,23,14.3,34.3,21.3c5.2,3.5,5.6,5.6,1.7,10.4
		C714.8,255.3,711.7,257,708.2,257z"/>
	<path class="st4" d="M752.6,129.2c2.6,8.7,0,16.5,0,24.3c-7.4-2.2-9.6-5.2-9.1-12.2c0.4-4.3,0.4-8.3,0.9-12.6c0-1.7,0-3.5-1.3-5.2
		c-3-4.8-4.8-4.8-8.3-0.4c-2.2,3-4.8,6.1-7,9.1c-2.6,3.9-3.9,0-5.6-0.9c-1.7-0.9-4.3-1.7-1.7-4.8c8.7-10.9,16.9-21.7,25.2-32.6
		c1.7-2.2,2.6-1.3,3.9-0.4c5.2,4.3,10.9,8.3,16.5,13c7,5.6,8.3,10.9,4.3,17.4C767.3,131,761.7,132.3,752.6,129.2z"/>
	<path class="st4" d="M408,105.8c8.7,0.4,15.6,5.2,22.6,8.3c-5.2,6.1-7.8,7-14.8,3.9c-3.5-1.7-7.4-3-10.9-4.8
		c-1.7-0.9-3.5-1.3-5.6-0.4c-4.8,1.3-5.6,2.6-2.6,7c1.3,2.2,3,4.8,4.3,7c3.5,5.6,3.5,5.6-2.2,9.1c-2.2,1.3-3,0.9-3.9-0.9
		c-7.4-11.7-14.8-23-22.2-34.8c-1.3-1.7-0.9-2.6,0.9-3.5c6.5-3.9,12.6-8.3,19.6-12.2c6.5-3.9,12.2-2.6,16.5,2.2
		c4.3,5.2,4.3,10.4,0,16.9C408.8,104,408.4,104.5,408,105.8z"/>
	<path class="st4" d="M445.3,650.7c4.3,7.8,4.3,16.1,5.6,23.9c-10-2.6-10-3-11.7-12.2c-0.4-3.5-1.3-7-2.2-10.9
		c-0.4-1.7-0.9-3-2.2-3.9c-3.5-3.9-5.6-3.5-7.8,1.3c-1.3,3-2.6,5.6-3.5,8.7c-1.3,4.3-3.5,4.3-7,2.6c-3-1.3-3.5-2.6-2.2-5.6
		c5.2-11.7,10.4-23.5,15.6-35.2c1.3-2.6,2.2-3.9,5.2-2.2c6.5,3,13,5.6,19.1,8.7c7,3.5,9.1,8.3,7.8,14.8c-1.7,6.5-6.1,10-13.9,10
		C447.1,650.7,446.2,650.7,445.3,650.7z"/>
	<path class="st4" d="M477.9,74.5c8.3,2.6,13.9,9.1,20.4,14.3c-6.5,4.3-12.2,4.3-17.4-1.7c-2.2-2.6-5.2-3.9-7.8-6.1
		c-1.7-1.3-3-2.2-5.2-2.2c-4.8,0-6.1,1.3-4.3,6.1c0.9,3.5,1.7,6.5,3.5,10c1.3,3.5,0.4,4.3-2.6,5.6c-3.9,1.7-5.6,0.4-7-3.5
		c-3.5-11.7-7.4-23.5-11.3-35.2c-1.3-3-0.9-4.8,2.6-5.6c5.6-1.7,11.3-3.9,17.4-5.2c9.1-2.6,14.8-0.9,18.3,5.2
		C487.1,62.8,485.3,68.4,477.9,74.5z"/>
	<path class="st4" d="M765.6,569.4c12.2,0,25.2,13.5,25.2,26.1c0,11.3-11.7,22.6-23,22.6c-12.2,0-25.2-13.5-25.2-26.1
		C742.6,580.7,754.3,569.4,765.6,569.4z"/>
	<path class="st4" d="M405.8,606.8c0,11.7-9.6,24.8-19.1,27.8c-5.2,1.7-10.4,0.9-14.8-2.2c-5.2-3.5-10-7.4-15.2-10.9
		c-2.2-1.3-1.7-2.6-0.4-3.9c8.3-10.9,16.1-21.7,24.3-32.6c1.7-2.2,2.6-2.2,4.3-0.4c4.8,3.9,9.6,7.4,14.3,10.9
		C403.6,598.6,406.2,602.9,405.8,606.8z"/>
	<path class="st4" d="M677.4,56.2c1.3,0.4,1.7,0.9,2.6,0.9c8.3,3.5,16.9,7.4,25.2,10.9c3,1.3,3,2.6,1.7,5.6s-2.6,3.5-5.2,2.2
		c-5.6-2.6-11.3-4.8-16.5-7.4c-4.3-2.2-3.9,2.2-4.8,3.9c-0.9,1.7-3.5,3.9,0.9,5.6c5.2,2.2,10.4,4.8,15.6,6.5c3.5,1.3,2.2,3,1.3,5.2
		s-1.7,3.9-4.8,2.2c-4.8-2.6-10-3.9-14.8-6.5c-3-1.3-3.9-0.9-5.2,2.2c-3.5,7.8-3.5,7.8,4.3,11.3c4.3,1.7,8.7,3.9,13.5,5.6
		c3,1.3,2.2,3,0.9,4.8c-0.9,1.7-0.9,4.3-4.3,2.6c-9.1-4.3-18.3-7.8-26.9-11.7c-2.2-0.9-2.6-2.2-1.7-4.3
		c5.6-12.2,10.9-24.8,16.1-37.4C676.1,57.5,676.5,56.2,677.4,56.2z"/>
	<path class="st4" d="M322.4,513c6.1,7.4,6.1,7.4-1.3,12.6c-7.8,5.6-7.8,5.6-2.2,13.5c5.2,7,5.2,7,12.2,1.7c1.3-0.9,2.6-1.3,3.5-2.6
		c3.5-3.5,5.2-2.6,7.8,1.3c1.7,2.6,1.7,3.9-0.9,5.6c-10.9,7.4-21.3,15.2-31.7,23c-3.5,2.6-4.3,0.4-5.6-1.7c-1.7-2.2-3.9-3.9,0.4-6.5
		c3.9-2.2,7.4-5.2,10.9-7.8c1.7-1.3,2.2-2.6,0.4-3.9c-0.4-0.4-0.4-0.4-0.4-0.9c-2.6-3.9-5.2-9.6-8.7-10.4s-7.4,4.3-10.9,7
		c-5.6,3.9-5.6,3.9-9.6-2.2c-0.9-1.3-0.9-2.2,0.4-3.5C298.5,530.3,310.6,521.6,322.4,513z"/>
	<path class="st4" d="M338.9,162.7c8.7,9.1,8.7,9.1,16.9,0c2.6-2.6,5.2-5.6,7.8-8.3c2.2-2.6,3.5-0.9,4.8,0.9
		c1.3,1.3,3.5,2.2,0.9,4.8c-7,7-13.5,14.3-20.4,21.7c-1.7,2.2-2.6,1.7-4.3,0c-9.6-9.1-19.1-18.3-29.1-26.9c-2.2-1.7-2.6-3-0.4-5.2
		c6.5-6.5,12.6-13.5,18.7-20c2.2-2.6,3.5-1.7,5.2,0c2.2,2.2,3,3,0.4,5.6c-4.3,4.3-8.3,9.1-12.6,13c-3,3-0.4,4.3,1.3,5.2
		c1.7,1.3,2.6,5.6,6.1,1.7c3.9-4.3,7.8-8.3,11.7-12.6c2.6-3,3.5-0.9,5.2,0.9c1.7,1.3,3.5,2.6,0.9,4.8
		C348,152.7,343.2,157.9,338.9,162.7z"/>
	<path class="st4" d="M542.7,36.7c4.3-0.4,8.3,0,12.6-0.9c3.9-0.9,4.3,1.3,4.3,4.3c0.4,3-0.9,3.5-3.9,3.9c-5.6,0-11.3,0.9-16.9,0.9
		c-4.3,0-4.3,2.2-3.9,5.2c0,3,0,6.1,4.8,5.2s9.1-0.9,13.9-0.9c2.6,0,5.2-1.3,5.6,3.5c0,4.8-2.6,4.3-5.2,4.3
		c-4.8,0.4-9.6,0.9-13.9,0.9c-3.5,0-3.9,1.3-3.5,4.3c0.4,8.7,0.4,8.7,9.1,7.8c4.8-0.4,9.6-0.4,14.3-0.9c3-0.4,3.5,1.3,3.5,3.5
		s0.9,4.3-3,4.3c-9.6,0.4-19.1,1.3-28.7,1.7c-3,0.4-3.9-0.4-3.9-3.5c-0.4-13-1.7-26.5-2.6-39.5c0-2.6,0.4-3.9,3.5-3.9
		C533.1,37.6,537.9,37.1,542.7,36.7L542.7,36.7z"/>
	<path class="st5" d="M803,532.9c-3.9-0.4-10.4,6.1-9.1,10.4c0.9,3.9,3.9,3.5,6.5,1.7c4.3-3,7.8-6.1,12.2-8.7
		c5.6-3.9,10.9-3.5,16.1,0.4c4.8,3.9,6.5,9.1,4.8,15.2c-1.7,5.6-5.2,10.4-10,13.9c-3.9,2.6-8.3,3.5-12.6,2.2
		c-6.1-1.7-6.1-2.2-2.6-7.4c1.3-1.7,2.2-2.6,4.3-1.7c5.6,1.7,11.7-2.6,12.6-8.3c0.4-2.6,0-4.8-2.2-6.5c-2.2-1.3-4.3-0.4-6.1,0.9
		c-3.9,3-7.8,6.1-12.2,8.7c-6.5,3.9-14.3,1.7-17.4-4.8c-3.5-6.5-0.4-12.2,3.5-17.4s8.7-9.1,15.6-8.3c2.2,0.4,6.1,0.4,5.2,3.5
		C809.9,529.9,809.1,534.7,803,532.9z"/>
	<path class="st4" d="M842.9,200.9c3.9-2.2,4.3,1.7,6.1,4.3c2.2,3,1.7,4.8-0.9,7.8c-8.7,10-16.9,20.9-25.6,30.9
		c-0.9,1.3-1.7,3.9-3.9,3s-3.9-7.8-3-9.6c1.7-2.6,6.1-4.8,5.2-7.4c-1.7-5.2-4.8-10-7.8-14.8c-1.7-2.6-4.3-0.4-7-0.4
		c-4.3,0.4-8.3-2.6-8.7-6.5c-0.4-2.2,1.7-1.7,2.6-2.2C814.7,204.4,828.6,202.7,842.9,200.9z"/>
	<path class="st4" d="M518.3,691.1c-1.7-0.4-3-0.9-4.3-0.9c-3.9-0.4-7-1.3-6.5-6.5c0.4-5.2-2.6-7-7.4-7c-0.9,0-2.2-0.4-3-0.4
		c-8.7-1.7-8.7-1.7-13.5,5.2c-1.3,2.2-9.1,2.2-10.4,0.4c-0.9-1.3,0.4-1.7,0.9-2.6c7.8-12.2,15.6-24.3,23.5-36.9
		c1.3-2.2,2.6-2.6,4.8-1.7c2.6,1.3,6.5-0.4,7.4,3.5C512.7,659.4,515.3,675,518.3,691.1z"/>
	<path class="st5" d="M581.8,665c0,5.2,0.4,10,0,15.2c-0.4,7.8-4.3,12.2-12.2,13.5c-4.3,0.9-9.1,0.9-13.5-0.4
		c-6.1-1.3-10.4-6.1-10.9-12.6c-0.4-10.4-0.4-21.3-0.4-31.7c0-4.3,3.5-2.2,5.2-2.6c2.2-0.4,4.3-0.4,4.3,3.5c-0.4,8.7,0,17.8,0,26.5
		c0,7,3.9,10.4,10.4,9.6c4.8-0.4,7.4-3,7.4-7.8c0-8.7,0.4-17.4,0-26.1c0-3.9,0.9-5.6,5.2-5.6c5.2,0,4.3,3,4.3,6.1
		C581.8,656.8,581.8,660.7,581.8,665C582.2,665,581.8,665,581.8,665z"/>
	<path class="st5" d="M726.9,635.9c-1.3-6.5,3.9-4.3,6.5-5.2c3.9-0.9,2.6,2.6,3,4.3c0.9,8.7-3.9,14.3-10.9,17.8
		c-7.8,3.9-15.2,3.5-22.2-1.7s-10.9-12.6-11.3-21.3c-0.4-8.3,3.5-14.8,10.4-18.7c6.5-3.9,13.5-4.8,20-0.4c1.3,0.9,3.9,1.7,2.2,3.5
		c-1.7,2.2-3.5,6.5-7,4.3c-5.2-3-9.6-2.6-13.9,1.3c-3.9,3.5-3.9,8.3-1.3,14.3c1.7,3.5,3.5,7,6.5,9.6c3.5,3.5,7.4,4.3,11.7,2.6
		C725.2,644.6,726.9,641.6,726.9,635.9z"/>
	<path class="st4" d="M656.1,232.2c2.2,0,3.9,0.4,5.6,1.3c6.5,3.9,13,7.4,19.6,11.3c5.6,3.5,7.4,9.6,4.3,14.8c-3,5.2-9.1,7-14.8,3.5
		c-6.5-3.5-13.5-7.4-20-11.3c-4.8-2.6-6.1-7.4-4.8-12.2C647.8,234.8,651.3,232.2,656.1,232.2z"/>
	<path class="st5" d="M308.9,203.6c-1.7,3-3,5.6-4.8,8.7c-4.3,7.8-4.3,7.8,3,11.7c1.3,0.9,3,1.7,4.3,2.6c5.2,3,5.6,5.2,1.3,10
		c-1.3,1.3-2.2,0.4-3,0c-12.2-7-23.9-13.5-36.1-20.4c-1.7-0.9-1.7-1.7-0.9-3.5c4.3-7.8,8.7-15.2,13-23c1.7-3,3.5-1.3,4.8-0.4
		c1.7,0.9,3.9,1.3,2.2,4.3c-3,4.3-5.2,9.6-8.3,13.9c-1.3,2.2-1.7,3.5,0.9,4.8c6.5,3.9,6.5,3.9,10.4-2.6c1.7-2.6,3-5.2,4.8-8.3
		c0.9-1.3,1.3-2.6,3-1.3C305.4,200.9,308,201.4,308.9,203.6z"/>
	<path class="st4" d="M489.2,517.3c8.3,0,15.2,7,15.2,15.2c0,8.7-7,15.6-15.6,15.2c-8.3,0-15.2-7-15.2-15.2S480.5,516.9,489.2,517.3
		z"/>
	<path class="st4" d="M494.4,247.9c-0.9,0.4-1.7,0.9-2.6,1.7c-9.6,7.8-18.7,16.1-27.8,24.3c-1.7,1.7-2.6,1.7-4.3-0.4
		c-8.7-10-8.7-10,1.3-18.3c7-6.1,14.3-11.7,20.9-17.8c2.2-1.7,3-1.7,4.8,0.4C488.8,240.9,491.4,244,494.4,247.9z"/>
	<path class="st5" d="M602.6,38c11.3,1.7,21.3,3.9,32.2,5.6c3,0.4,2.2,2.2,1.7,3.5c-0.4,1.7,0.9,4.8-2.6,4.3c-1.3,0-2.6-0.4-3.5-0.4
		c-7.8-1.3-7.8-1.3-9.1,7c-1.3,8.7-3,17.4-4.3,26.1c-0.4,2.2-0.9,4.8-3.5,3c-2.2-0.9-7,1.3-5.6-4.8c1.7-9.1,3.5-18.7,4.8-28.2
		c1.3-7.8,1.7-6.1-5.6-7.4c-1.3-0.4-2.6-0.9-3.9-0.9c-3.5,0-2.6-2.6-2.2-4.3C600,39.7,600,37.1,602.6,38z"/>
	<path class="st6" d="M67.7,405.2c3.9-10.4,14.8-17.4,25.6-16.9c11.3,0.4,21.3,7.4,24.3,16.9C101.6,405.2,84.7,405.2,67.7,405.2z"/>
	<path class="st6" d="M1032.4,405.6c-7.4,0-14.8,0-22.6,0c-2.6,0-3-0.9-1.7-3c5.2-9.1,13.5-14.3,23.9-14.3
		c10.9,0,19.1,4.8,24.8,13.9c1.7,3,0.4,3.5-2.2,3.5C1046.8,405.6,1039.8,405.6,1032.4,405.6z"/>
	<path class="st4" d="M539.2,300.9c-0.9,0.9-1.3,1.7-1.7,2.6c-6.5,9.6-13.5,18.7-20,28.7c-1.7,2.6-2.6,3-4.8,0.4
		c-7.8-9.1-7.8-9.1-0.9-18.7c5.2-7.4,10.4-14.8,15.6-22.2c1.3-2.2,2.6-2.6,3.9-0.4c1.7,2.6,3.9,4.8,6.1,7
		C537.9,299.2,538.8,300,539.2,300.9z"/>
	<path class="st3" d="M118.1,426.9c-3,9.6-13,16.5-24.3,16.9s-21.7-6.5-25.6-16.9C84.7,426.9,101.2,426.9,118.1,426.9z"/>
	<path class="st3" d="M1057.6,426.5c-4.3,10.4-14.8,17.4-25.6,16.9c-11.3-0.4-21.3-7-24.8-16.9
		C1024.2,426.5,1040.7,426.5,1057.6,426.5z"/>
	<path class="st5" d="M607,210.1c-3.5,0-5.2-3.9-3-7.4c6.1-10.9,12.6-21.7,18.7-32.2c3.9-6.5,7.8-13,11.3-19.6c1.7-3,3.9-4.8,7-2.6
		c3,1.7,2.6,4.3,0.9,7.4c-10,17.4-20,34.3-30,51.7C610.9,208.3,610,210.1,607,210.1z"/>
	<path class="st5" d="M645.2,682c0.4,1.7-0.4,2.6-2.2,3c-8.7,1.7-17.8,3-26.5,4.8c-2.2,0.4-3,0-3.5-2.2c-2.2-13-4.8-26.1-7.4-38.7
		c-1.3-5.6,3-3.9,5.6-4.8c3.5-1.3,3.5,1.3,3.9,3.5c1.7,9.6,3.5,19.6,5.2,29.1c0.4,3,0.9,5.2,5.2,3.9c4.8-1.3,9.6-1.3,14.3-2.6
		C644.8,675.9,645.2,678.9,645.2,682z"/>
	<path class="st5" d="M494,310.5c-0.9-1.3-1.7-2.2-2.6-3c-6.5-7.4-6.5-7.4-0.9-15.2c5.2-7.4,10.4-14.8,15.6-22.2
		c2.2-3,3.9-3.9,7-0.4c5.2,7,5.6,6.5,0.4,13.9c-5.6,7.8-11.3,16.1-16.9,23.9C495.7,308.3,494.9,309.1,494,310.5z"/>
	<path class="st7" d="M680.4,672.9c-1.3,1.7-4.3,1.7-6.5,3c-1.7,0.9-2.6,0.4-3-1.3c-4.8-13-9.6-26.5-13.9-39.5
		c-1.3-3.9,2.6-3,4.3-3.9c1.3-0.9,3.5-2.2,4.3,0.9c4.8,13,9.1,26.5,13.9,39.5C680,671.6,680,672,680.4,672.9z"/>
	<path class="st7" d="M813.4,153.1c0,1.3-0.9,1.7-1.7,2.6c-10,8.7-20.4,17.4-30.4,26.1c-3.5,3.5-4.3,0-6.1-1.7c-1.7-1.7-3-3,0-5.6
		c10-8.3,19.6-16.5,29.1-24.8c1.3-0.9,2.2-3.5,3.9-2.2C810.4,148.8,812.1,151.4,813.4,153.1z"/>
	<path class="st7" d="M367.1,566.4c-1.7,1.7-2.2,2.6-3,3c-9.6,9.1-19.1,18.7-28.7,27.8c-2.6,2.6-3.9,0.9-5.2-0.9
		c-1.3-1.7-5.2-2.6-1.7-6.1c9.6-9.1,19.6-18.7,29.1-28.2c0.9-0.9,1.7-2.6,3.5-1.3C362.8,562.9,364.9,564.7,367.1,566.4z"/>
	<path class="st7" d="M416.2,286.1c5.2-2.2,10-4.3,14.3-6.5c1.3-0.9,2.6-0.4,3.5,0.9c3,3.5,6.5,7,10.4,10.9
		c-5.2,2.2-10,4.3-14.8,6.5c-1.3,0.9-2.6,0.4-3.5-0.4C423.2,293.5,420.1,290,416.2,286.1z"/>
	<path class="st7" d="M552.7,318.7c4.8,14.3-5.6,27.8-19.6,27.4c-1.3,0-2.6,0.4-3.5-0.9c-0.4-1.3,0.9-2.2,1.7-3
		C538.3,334.4,545.3,327,552.7,318.7z"/>
	<path class="st7" d="M510.5,232.7c-10-10-10-10-3-21.7c2.6-4.3,4.3-4.8,7.8-0.9c5.6,6.1,6.1,6.1,1.3,13
		C514.9,226.1,512.7,229.2,510.5,232.7z"/>
	<path class="st8" d="M279.3,387.8c4.3,12.2,8.7,23,12.6,33.9c0.9,2.2,0,2.6-2.2,2.6c-7.8,0-15.6,0-23.9,0
		C270.2,412.1,274.6,400.8,279.3,387.8z"/>
	<path class="st9" d="M603.1,300c-9.1,0-16.5-7.4-16.5-16.5S594,267,603.1,267s16.9,7.8,16.5,16.9
		C619.6,293.1,612.2,300.5,603.1,300z"/>
	<path class="st9" d="M716.9,381.7c4.3,0,9.1-0.4,13.5,0c7,0.4,10.9,5.2,10.9,12.2s-3.5,10.9-10.9,12.2c-8.7,1.3-17.8,0.4-26.5,0.9
		c-2.2,0-2.6-0.9-2.6-2.6c0-6.5,0-13,0-19.1c0-2.2,0.4-3,3-3C708.7,381.7,713,381.7,716.9,381.7L716.9,381.7z"/>
	<path class="st9" d="M853.4,413c0,5.2-0.4,10-1.7,14.8c-3.5,12.2-13,20-25.2,20c-11.7,0-22.2-7.4-25.6-19.1
		c-2.6-8.7-2.6-17.8-0.9-26.9c3-14.8,13-22.2,27.8-21.7c13.5,0.4,22.6,10,24.8,24.3C853.4,407.8,853.4,410.4,853.4,413z"/>
	<path class="st8" d="M941.6,424.3c-8.3,0-15.6,0-23,0c-1.7,0-3.9,0.4-2.6-2.6c3.9-10.9,7.8-21.7,12.2-33.9
		C932.9,400.8,937.2,412.1,941.6,424.3z"/>
	<path class="st8" d="M607.9,424.3c4.3-12.2,8.7-23.5,13-36.1c4.8,12.6,9.1,24.3,13.5,36.1C625.2,424.3,617,424.3,607.9,424.3z"/>
	<path class="st10" d="M763,117.5c0,3.9-4.8,7-8.3,4.8s-7-4.8-10-7.4c-1.3-0.9-0.9-1.7,0-3c4.8-7.8,5.2-7.8,12.2-2.6
		C761.7,113.6,763,115.3,763,117.5z"/>
	<path class="st10" d="M398.8,91.4c1.7,0,3,1.3,3.9,3.5c1.3,2.2,0.9,3.9-0.4,5.6c-3,3.5-7.4,5.2-10.9,7.8c-1.7,0.9-2.2-0.4-2.6-1.3
		c-5.6-7-5.6-7.4,2.2-12.2C392.8,93.6,394.9,91.4,398.8,91.4z"/>
	<path class="st10" d="M445.3,643.3c-3.5-1.3-7.8-3.5-11.7-5.2c-1.3-0.4-1.3-1.7-0.9-2.6c0.4-1.7,1.7-3,2.2-4.8
		c0.9-3.5,2.6-4.3,6.1-2.2c2.6,1.7,6.1,2.6,8.7,4.3c2.2,1.3,3.5,3.5,2.2,6.1C451,642,448.8,643.3,445.3,643.3z"/>
	<path class="st10" d="M475.8,64.1c0,2.2-0.9,3.9-2.6,4.8c-3.9,1.7-7.8,3-11.7,4.3c-1.7,0.9-2.6-0.4-3-1.7c-0.4-1.7-0.9-3.5-1.7-4.8
		c-1.3-3-0.4-4.3,2.6-4.8c3-0.9,6.1-2.2,9.6-3C472.7,57.5,475.8,60.2,475.8,64.1z"/>
	<path class="st9" d="M764.7,578.6c7.8,0,17.4,10.4,17.4,18.3c0,6.5-6.1,12.2-12.6,12.2c-7.8,0-17.4-10.4-17.4-18.3
		C752.1,584.2,758.2,578.6,764.7,578.6z"/>
	<path class="st9" d="M396.7,607.7c0,5.6-8.3,16.9-13.5,18.7c-3.5,1.3-14.8-4.3-15.6-7.4c-0.4-0.9,0.4-1.3,0.9-2.2
		c5.2-7,10-13.5,15.2-20.4c0.4-0.9,0.9-1.7,2.2-1.7C389.7,595.5,396.7,604.2,396.7,607.7z"/>
	<path class="st11" d="M827.3,224c-2.2-3.9-3.9-7.4-6.1-10.9c3-0.4,5.2-0.9,7.8-1.3c3-0.4,5.6-0.9,10-1.3
		C834.7,214.9,831.2,219.2,827.3,224z"/>
	<path class="st12" d="M502.3,651.6c0.9,5.2,1.3,9.1,2.2,12.6c0.9,3.9,0.9,6.1-4.3,4.3c-2.2-0.9-4.8-0.4-7-2.2
		C495.7,662,498.4,657.7,502.3,651.6z"/>
</g>
</svg>
