<?xml version="1.0" encoding="utf-8"?>
<!-- Generator: Adobe Illustrator 27.0.0, SVG Export Plug-In . SVG Version: 6.00 Build 0)  -->
<svg version="1.1" id="Capa_1" xmlns="http://www.w3.org/2000/svg" xmlns:xlink="http://www.w3.org/1999/xlink" x="0px" y="0px"
	 viewBox="0 0 379.1 98.8" style="enable-background:new 0 0 379.1 98.8;" xml:space="preserve">
<style type="text/css">
	.st0{fill:#FFFFFF;}
</style>
<g id="surface1">
	<g>
		<path class="st0" d="M69.4,0C31.1,0,0,20.4,0,45.4c0,0.6,0,2.4,0,2.7c0,26.5,27.2,48,69.4,48c42.5,0,69.4-21.5,69.4-48
			c0-0.9,0-1.5,0-2.7C138.8,20.4,107.8,0,69.4,0z M69.4,88.1C32.6,88.1,2.7,69,2.7,45.4c0-0.9,0.1-1.9,0.2-2.8c0,0-0.1,0-0.1,0
			c0.1-1,0.3-1.9,0.5-2.9c0,0,0,0,0.1,0c0.3-1.4,0.7-2.8,1.2-4.1c0-0.1,0-0.1,0.1-0.2c0.2-0.5,0.4-1,0.6-1.4c0-0.1,0-0.1,0.1-0.2
			c0.6-1.5,1.4-2.9,2.3-4.3c0,0,0-0.1,0.1-0.1c0.3-0.5,0.6-0.9,0.9-1.4c0,0,0.1-0.1,0.1-0.1c1-1.4,2.1-2.8,3.3-4.1c0,0,0,0,0,0
			c0.4-0.4,0.8-0.9,1.2-1.3c0,0,0,0,0.1-0.1c1.3-1.3,2.8-2.6,4.3-3.9c0,0,0,0-0.1,0c0.8-0.6,1.6-1.2,2.4-1.8c0,0,0,0,0.1,0
			C32,8.1,49.7,2.7,69.4,2.7c20.4,0,38.6,5.8,50.8,15c0,0,0,0,0,0c0.8,0.6,1.6,1.2,2.3,1.9c0,0,0,0,0,0c1.1,1,2.2,2,3.2,3
			c0,0,0,0,0,0c0.4,0.4,0.8,0.8,1.2,1.2c0,0,0,0,0.1,0.1c1.1,1.2,2.1,2.4,3,3.7c0.1,0.1,0.2,0.3,0.3,0.4c0.3,0.4,0.5,0.7,0.7,1.1
			c0.1,0.1,0.1,0.2,0.2,0.4c0.4,0.6,0.8,1.3,1.1,2c0.1,0.3,0.3,0.5,0.4,0.8c0.2,0.3,0.3,0.6,0.4,0.9c0.1,0.3,0.3,0.6,0.4,0.9
			c0.1,0.3,0.2,0.6,0.4,0.9c0.2,0.5,0.4,1,0.6,1.6c0.1,0.3,0.2,0.5,0.2,0.8c0.1,0.4,0.2,0.8,0.3,1.1c0.1,0.2,0.1,0.5,0.2,0.7
			c0.1,0.4,0.2,0.8,0.2,1.2c0,0,0,0,0,0c0.2,1,0.3,1.9,0.4,2.9c0,0,0,0,0,0c0.1,0.7,0.1,1.4,0.1,2.1C136.2,69,106.3,88.1,69.4,88.1z
			"/>
		<path class="st0" d="M132.9,32.2c0.2,0.3,0.3,0.6,0.4,0.9C133.2,32.8,133.1,32.5,132.9,32.2z"/>
		<path class="st0" d="M131.4,29.5c0.4,0.6,0.8,1.3,1.1,2C132.2,30.8,131.8,30.1,131.4,29.5z"/>
		<path class="st0" d="M133.8,34.1c0.1,0.3,0.2,0.6,0.4,0.9C134.1,34.7,133.9,34.4,133.8,34.1z"/>
		<path class="st0" d="M130.4,28c0.3,0.4,0.5,0.7,0.7,1.1C130.9,28.8,130.7,28.4,130.4,28z"/>
		<path class="st0" d="M125.8,22.6c-1-1-2.1-2-3.2-3c0,0,0,0,0,0C123.7,20.5,124.8,21.5,125.8,22.6z"/>
		<path class="st0" d="M134.7,36.5c0.1,0.3,0.2,0.5,0.2,0.8C134.9,37,134.8,36.8,134.7,36.5z"/>
		<path class="st0" d="M7.5,29.4c0.3-0.5,0.6-0.9,0.9-1.4C8.1,28.5,7.8,29,7.5,29.4z"/>
		<path class="st0" d="M42.2,22.5c1.8,0,3.6-0.5,5.7-1.1c2.3-0.7,5-1.4,8-1.5c3.1-2.6,7.8-5.5,16.1-5.7c0.2,0,0.4,0,0.6,0
			c7.1,0,13.8,3.2,14.1,3.3c5.4,2.6,11,4,16.5,4c5.4,0,11.1-1.3,17-3.9c-12.2-9.2-30.5-15-50.8-15C49.7,2.7,32,8.1,19.8,16.8
			c8.1,3.1,18.3,5.5,20.3,5.6C40.2,22.4,41.5,22.5,42.2,22.5z"/>
		<path class="st0" d="M5.2,33.8c0.6-1.5,1.4-2.9,2.3-4.3C6.6,30.9,5.8,32.4,5.2,33.8z"/>
		<path class="st0" d="M4.5,35.4c0.2-0.5,0.4-1,0.6-1.4C4.9,34.5,4.7,34.9,4.5,35.4z"/>
		<path class="st0" d="M8.5,27.9c1-1.4,2.1-2.8,3.3-4.1C10.6,25.2,9.5,26.5,8.5,27.9z"/>
		<path class="st0" d="M127.1,23.9c1.1,1.2,2.1,2.4,3,3.7C129.2,26.3,128.2,25.1,127.1,23.9z"/>
		<path class="st0" d="M125.9,22.6c0.4,0.4,0.8,0.8,1.2,1.2C126.7,23.4,126.3,23,125.9,22.6z"/>
		<path class="st0" d="M11.8,23.9c0.4-0.4,0.8-0.9,1.2-1.3C12.6,23,12.2,23.4,11.8,23.9z"/>
		<path class="st0" d="M135.3,38.4c0.1,0.2,0.1,0.5,0.2,0.7C135.4,38.9,135.3,38.7,135.3,38.4z"/>
		<path class="st0" d="M4.5,35.6c-0.5,1.3-0.9,2.7-1.2,4.1c0,0,0,0,0,0C3.6,38.3,4,36.9,4.5,35.6z"/>
		<path class="st0" d="M108.4,51.9c0.7,1.2,1,2.5,0.9,3.8c-0.2,2-1.2,3.6-2.9,4.7c-1.3,0.9-2.8,1.3-4.2,1.3c-0.5,0-1-0.1-1.5-0.2
			c0,1.6-0.4,3.9-3.2,5.7c-1.4,0.9-2.9,1.4-4.5,1.4c-0.5,0-1-0.1-1.5-0.1c0,0,0,0,0,0.1c-0.1,1.2-1.1,2.7-2.6,3.7
			c-1.4,1.1-2.9,1.6-4.3,1.6c-0.8,0-1.5-0.2-2.2-0.3c-0.1,0.2-0.2,0.3-0.3,0.5c-0.6,0.8-1.8,1.9-4.6,2.2c-0.3,0-0.7,0.1-1,0.1
			c-2.7,0-5.4-1.3-6.7-2c-1.5,1.5-3.6,2.4-5.7,2.4c-3.2,0-6.1-2-7.3-4.9c-0.7,0.2-1.4,0.4-2.1,0.4c-0.9,0-1.8-0.2-2.6-0.5
			c-2.5-1-3.7-2.6-4.2-3.9c-0.5,0.1-1,0.2-1.5,0.2c-0.8,0-1.6-0.2-2.4-0.5c-2.7-1.1-4.5-3.1-5.1-5.9c-0.4,0.1-0.8,0.1-1.2,0.1
			c-3.7,0-6.7-3-6.7-6.7c0-0.9,0.2-1.8,0.5-2.6c-1-0.8-6.9-4.9-24.9-8.9c-0.6-0.1-3.4-0.8-3.8-0.9c-0.1,0.9-0.2,1.9-0.2,2.8
			c0,23.6,29.9,42.7,66.7,42.7s66.7-19.1,66.7-42.7c0-0.7,0-1.4-0.1-2.1C123.6,46.1,113,49.9,108.4,51.9z"/>
		<path class="st0" d="M17.4,18.6c-1.5,1.2-3,2.5-4.3,3.9C14.4,21.2,15.9,19.9,17.4,18.6C17.4,18.6,17.4,18.6,17.4,18.6z"/>
		<path class="st0" d="M134.2,34.9c0.2,0.5,0.4,1,0.6,1.6C134.6,36,134.4,35.5,134.2,34.9z"/>
		<path class="st0" d="M127.1,23.8C127.1,23.9,127.1,23.9,127.1,23.8C127.1,23.9,127.1,23.9,127.1,23.8z"/>
		<path class="st0" d="M132.5,31.5c0.1,0.3,0.3,0.5,0.4,0.8C132.8,32,132.7,31.7,132.5,31.5z"/>
		<path class="st0" d="M135,37.3c0.1,0.4,0.2,0.8,0.3,1.1C135.2,38,135.1,37.6,135,37.3z"/>
		<path class="st0" d="M133.4,33.1c0.1,0.3,0.3,0.6,0.4,0.9C133.7,33.8,133.5,33.5,133.4,33.1z"/>
		<path class="st0" d="M130.1,27.6c0.1,0.1,0.2,0.3,0.3,0.4C130.3,27.9,130.2,27.7,130.1,27.6z"/>
		<path class="st0" d="M125.8,22.6C125.9,22.6,125.9,22.6,125.8,22.6C125.9,22.6,125.9,22.6,125.8,22.6z"/>
		<path class="st0" d="M131.2,29.1c0.1,0.1,0.1,0.2,0.2,0.4C131.3,29.4,131.2,29.3,131.2,29.1z"/>
		<path class="st0" d="M135.7,40.4c-0.1-0.4-0.2-0.8-0.2-1.2C135.6,39.6,135.6,40,135.7,40.4C135.7,40.4,135.7,40.4,135.7,40.4z"/>
		<path class="st0" d="M4.5,35.6c0-0.1,0-0.1,0.1-0.2C4.5,35.5,4.5,35.5,4.5,35.6z"/>
		<path class="st0" d="M13,22.6C13.1,22.5,13.1,22.5,13,22.6C13.1,22.5,13.1,22.5,13,22.6z"/>
		<path class="st0" d="M11.8,23.9C11.8,23.9,11.8,23.9,11.8,23.9C11.8,23.9,11.8,23.9,11.8,23.9z"/>
		<path class="st0" d="M5.1,34c0-0.1,0-0.1,0.1-0.2C5.2,33.9,5.1,33.9,5.1,34z"/>
		<path class="st0" d="M8.4,28.1c0,0,0.1-0.1,0.1-0.1C8.5,28,8.5,28,8.4,28.1z"/>
		<path class="st0" d="M7.5,29.5C7.5,29.5,7.5,29.5,7.5,29.5C7.5,29.5,7.5,29.5,7.5,29.5z"/>
		<path class="st0" d="M121.9,19C121.9,19,121.9,19,121.9,19c0.3,0.2,0.5,0.4,0.7,0.6c0,0,0,0,0,0c-0.8-0.6-1.5-1.2-2.3-1.9
			c0,0,0,0,0,0C120.8,18.1,121.3,18.5,121.9,19C121.9,19,121.9,19,121.9,19z"/>
		<path class="st0" d="M18.8,17.6C18.8,17.6,18.8,17.6,18.8,17.6c0.3-0.2,0.7-0.5,1-0.7c0,0,0,0-0.1,0c-0.8,0.6-1.6,1.2-2.4,1.8
			c0,0,0,0,0.1,0C17.9,18.3,18.3,18,18.8,17.6C18.8,17.6,18.8,17.6,18.8,17.6z"/>
		<path class="st0" d="M135.8,40.9c0.1,0.8,0.2,1.6,0.3,2.3c0,0,0,0,0,0c-0.1-1-0.2-1.9-0.4-2.9c0,0,0,0,0,0
			C135.7,40.5,135.8,40.7,135.8,40.9L135.8,40.9z"/>
		<path class="st0" d="M3.2,40.2c0-0.1,0-0.1,0-0.2c0-0.1,0.1-0.3,0.1-0.4c0,0,0,0-0.1,0c-0.2,0.9-0.4,1.9-0.5,2.9c0,0,0,0,0.1,0
			C2.9,41.8,3,41,3.2,40.2C3.2,40.2,3.2,40.2,3.2,40.2z"/>
		<path class="st0" d="M18.8,17.6c-0.5,0.3-0.9,0.7-1.3,1c0,0,0,0,0,0C17.9,18.3,18.3,18,18.8,17.6z"/>
		<path class="st0" d="M122.6,19.6C122.6,19.6,122.6,19.6,122.6,19.6c-0.2-0.2-0.4-0.4-0.7-0.5C122.1,19.2,122.4,19.4,122.6,19.6z"
			/>
		<path class="st0" d="M31.6,52.4c-0.3,0.8-0.5,1.7-0.5,2.6c0,3.7,3,6.7,6.7,6.7c0.4,0,0.8,0,1.2-0.1c0.6,2.7,2.4,4.8,5.1,5.9
			c0.8,0.3,1.6,0.5,2.4,0.5c0.5,0,1-0.1,1.5-0.2c0.5,1.3,1.6,2.9,4.2,3.9c0.9,0.4,1.8,0.5,2.6,0.5c0.7,0,1.4-0.1,2.1-0.4
			c1.2,3,4.1,4.9,7.3,4.9c2.1,0,4.2-0.9,5.7-2.4c1.3,0.7,4,2,6.7,2c0.4,0,0.7,0,1-0.1c2.7-0.3,4-1.4,4.6-2.2
			c0.1-0.1,0.2-0.3,0.3-0.5c0.6,0.2,1.3,0.3,2.2,0.3c1.5,0,2.9-0.5,4.3-1.6c1.4-1,2.4-2.5,2.6-3.7c0,0,0,0,0-0.1
			c0.5,0.1,1,0.1,1.5,0.1c1.5,0,3-0.5,4.5-1.4c2.8-1.8,3.2-4.2,3.2-5.7c0.5,0.1,1,0.2,1.5,0.2c1.4,0,2.8-0.4,4.2-1.3
			c1.7-1.1,2.8-2.8,2.9-4.7c0.1-1.3-0.2-2.7-0.9-3.8c4.6-2,15.2-5.9,27.7-8.7c-0.1-0.8-0.2-1.6-0.3-2.3c-15.4,3.4-26.8,8.3-29.3,9.4
			c-3.2-2.8-21.5-18.8-26.1-22.2c-2.4-1.8-3.9-2.7-5.2-3.1c-1.2-0.4-3-0.7-5.7,0.1c-2.6,0.8-5.2,2.9-7.9,5c-2.4,1.9-4.9,3.9-6.9,4.4
			c-3.3,0.7-6.5,0-7.6-1.4c-0.4-0.6,0.2-1.2,0.3-1.3l5.8-6.3c4.6-4.6,8.9-8.9,19-9.2c6.7-0.2,13.6,3.1,13.7,3.1
			c12.6,6.2,25.6,3.9,36.1-0.6c-0.5-0.4-1.1-0.9-1.6-1.3c-5.9,2.6-11.6,3.9-17,3.9c-5.6,0-11.1-1.3-16.5-4
			c-0.3-0.1-7.1-3.3-14.1-3.3c-0.2,0-0.4,0-0.6,0c-8.3,0.2-13,3.1-16.1,5.7c-3.1,0.1-5.7,0.8-8,1.5c-2.1,0.6-3.9,1.1-5.7,1.1
			c-0.7,0-2-0.1-2.1-0.1c-2-0.1-12.2-2.5-20.3-5.6c-0.3,0.2-0.7,0.5-1,0.7c7,3.3,11.7,4.7,17,6.2c0.9,0.2,5.5,1,6.4,1
			c2.1,0,4.1-0.6,6.3-1.2c1.7-0.5,3.5-1,5.4-1.2c-0.7,0.7-1.4,1.4-2.1,2l-5.9,6.4c-0.2,0.2-1.3,1.3-0.7,2.8c0.2,0.5,0.7,1.1,1.4,1.5
			c1.7,1.1,5.4,1.9,8.4,1.3c2.4-0.5,4.9-2.6,7.6-4.7c2.6-2.1,5.6-4,7.8-4.7c0.8-0.2,2-0.4,2.9-0.3c1.6,0.2,3.2,0.7,6,2.8
			c4.8,3.6,26.2,22.3,26.4,22.5c0,0,1.5,1.3,1.4,3.5c-0.1,1.3-0.8,2.3-1.9,3.1c-3.1,2-5.7,0.2-5.8,0.1c0,0-7.4-6.8-10.1-9
			c-0.4-0.3-1-0.8-1.2-0.5c-0.3,0.4,0.6,1.2,0.6,1.2l8.5,8.6c0,0,1.2,1.1,1.3,2.6c0.1,1.2-0.3,2.7-2.2,3.9c-3.1,2.1-5.5,0.6-6,0.2
			c-2.7-2.6-5.5-5.4-7.5-7.1c-0.4-0.3-1-0.8-1.2-0.5c-0.3,0.3,0.6,1.2,0.6,1.2l6.3,7c0,0,1.5,1.8,0.2,3.5c0,0,0,0,0.1-0.1
			c-0.3,0.3-0.6,0.7-0.9,1c-1.3,1.1-3.2,1.2-4.2,1c-1.2-0.2-1.5-0.7-1.5-0.7c0,0-3.3-3.4-6.1-5.7c-0.4-0.3-0.9-0.8-1.2-0.5
			c-0.3,0.3,0.6,1.2,0.6,1.2l5.4,5.9c0.2,0.2,0,0.5-0.2,0.8c-0.3,0.4-1,1.1-3.1,1.3c-2.5,0.3-5.4-1.1-6.5-1.8
			c0.6-1.1,0.9-2.3,0.9-3.6c0-4.2-3.4-7.5-7.5-7.5c-0.3,0-0.5,0-0.8,0c0.3-2.6-0.2-6-3.7-7.5c-1.1-0.5-2.1-0.7-3.2-0.7
			c-1,0-1.9,0.2-2.6,0.6c-0.6-1.3-1.7-2.7-3.8-3.4c-0.9-0.3-1.8-0.5-2.7-0.5c-1.9,0-3.4,0.7-4.5,1.6c-1.1-1.6-3-2.7-5.1-2.7
			c-1.9,0-3.5,0.8-4.7,2.1c-1.1-0.9-7-5.3-26-9.5c-0.8-0.2-2.8-0.8-4-1.1C3,41,2.9,41.8,2.9,42.6c0.4,0.1,3.2,0.8,3.8,0.9
			C24.7,47.5,30.6,51.6,31.6,52.4z M37.8,50.3c2.4,0,4.3,1.8,4.6,4.1c0.7-1,3.2-3.8,7.2-2.6c2.8,0.9,3.2,3.4,3.3,4.4
			c0,0.2,0.1,0.3,0.3,0.1c0.7-0.7,2.7-2.3,5.9-0.9c4.2,1.8,2.5,7.1,2.4,7.4c-0.1,0.3-0.3,0.8-0.2,0.9c0.2,0.1,1.6-0.7,3-0.7
			c3.2,0,5.9,2.6,5.9,5.9c0,3.2-2.6,5.9-5.9,5.9c-3.1,0-5.7-2.5-5.8-5.6c0-0.6-0.1-0.6-0.5-0.3c-1,0.9-2.4,1.9-4.9,0.9
			c-3.2-1.3-3.4-3.6-3.3-4.7c0.1-0.3,0-0.5-0.4-0.2c-1.2,0.9-2.7,1.4-4.5,0.7c-4.4-1.7-4-5.9-3.8-7c0-0.1,0-0.1,0-0.2
			c-0.8,0.8-2,1.3-3.2,1.3c-2.6,0-4.7-2.1-4.7-4.7C33.2,52.4,35.2,50.3,37.8,50.3z"/>
		<path class="st0" d="M3.3,39.7C3.3,39.7,3.3,39.7,3.3,39.7c0,0.1-0.1,0.3-0.1,0.4C3.2,39.9,3.3,39.8,3.3,39.7z"/>
		<path class="st0" d="M135.8,40.9L135.8,40.9c0-0.2-0.1-0.4-0.1-0.5c0,0,0,0,0,0C135.7,40.5,135.8,40.7,135.8,40.9z"/>
		<path class="st0" d="M121.9,19C121.9,19,121.9,19,121.9,19C121.9,19,121.9,19,121.9,19C121.9,19,121.9,19,121.9,19z"/>
		<path class="st0" d="M106.6,49.9c-6.6-5.7-21.8-19-25.9-22.1c-2.4-1.8-4-2.7-5.4-3.1c-0.6-0.2-1.5-0.4-2.6-0.4
			c-1,0-2.2,0.2-3.3,0.6c-2.7,0.8-5.3,3-7.9,5l-0.1,0.1c-2.4,1.9-4.9,3.9-6.7,4.3c-0.8,0.2-1.7,0.3-2.5,0.3c-2.1,0-4-0.6-4.7-1.5
			c-0.1-0.2,0-0.4,0.2-0.7l0,0l5.8-6.2c4.5-4.5,8.8-8.8,18.7-9c0.2,0,0.3,0,0.5,0c6.1,0,12.3,2.8,13,3.1c5.8,2.8,11.7,4.2,17.7,4.2
			c6.2,0,12.6-1.5,19.3-4.6c-0.2-0.2-0.4-0.4-0.7-0.5c0,0,0,0,0,0c-10.6,4.4-23.5,6.8-36.1,0.6c-0.1,0-6.9-3.3-13.7-3.1
			c-10,0.2-14.4,4.6-19,9.2l-5.8,6.3c0,0.1-0.7,0.8-0.3,1.3c1.1,1.3,4.3,2.1,7.6,1.4c2-0.4,4.5-2.4,6.9-4.4c2.6-2.1,5.2-4.2,7.9-5
			c2.8-0.9,4.6-0.5,5.7-0.1c1.3,0.4,2.8,1.2,5.2,3.1c4.6,3.4,22.9,19.5,26.1,22.2c2.6-1.2,13.9-6,29.3-9.4c0-0.2-0.1-0.4-0.1-0.5
			C120.6,43.7,109.4,48.6,106.6,49.9z"/>
		<path class="st0" d="M3.2,40.2C3.2,40.2,3.2,40.2,3.2,40.2c0,0,0-0.1,0-0.2C3.2,40.1,3.2,40.2,3.2,40.2z"/>
		<path class="st0" d="M18.8,17.6C18.8,17.6,18.8,17.6,18.8,17.6C18.8,17.6,18.8,17.6,18.8,17.6C18.8,17.6,18.8,17.6,18.8,17.6z"/>
		<path class="st0" d="M17.4,18.6c8.5,3.5,18.7,6.1,22,6.3c0.9,0.1,1.9,0.2,2.8,0.2c2.2,0,4.3-0.6,6.4-1.2c1.2-0.3,2.6-0.7,4-1
			c-0.4,0.4-0.8,0.8-1.1,1.1l-5.9,6.4c-0.5,0.5-1.5,1.7-0.8,3.3c0.3,0.6,0.8,1.2,1.6,1.7c1.4,0.9,3.9,1.6,6.2,1.6
			c0.9,0,1.7-0.1,2.5-0.3c2.5-0.6,5.1-2.6,7.8-4.8c2.2-1.7,5.3-3.9,7.7-4.6c0.7-0.2,1.5-0.3,2.1-0.3c0.2,0,0.4,0,0.6,0
			c1.6,0.2,3.1,0.7,5.8,2.8c4.8,3.6,26.2,22.3,26.4,22.5c0,0,1.4,1.2,1.3,3.1c-0.1,1.1-0.7,2.1-1.7,2.7c-0.9,0.6-1.9,0.9-2.8,0.9
			c-1.4,0-2.4-0.7-2.5-0.7c-0.1-0.1-7.4-6.8-10.1-9c-0.4-0.4-0.8-0.7-1.3-0.7c-0.2,0-0.4,0.1-0.6,0.3c-0.4,0.5,0.1,1.2,0.6,1.7
			l8.6,8.6c0,0,1.1,1,1.2,2.3c0.1,1.4-0.6,2.6-2,3.5c-1,0.7-2,1-3,1c-1.3,0-2.2-0.6-2.4-0.7l-1.2-1.2c-2.2-2.2-4.6-4.5-6.3-5.9
			c-0.4-0.3-0.9-0.7-1.3-0.7c-0.2,0-0.4,0.1-0.5,0.2c-0.2,0.2-0.3,0.6,0.2,1.2c0.2,0.3,0.4,0.5,0.4,0.5l6.2,7c0.1,0.1,1.3,1.5,0.1,3
			l-0.2,0.3c-0.2,0.2-0.4,0.4-0.6,0.6c-1.1,0.9-2.5,1-3.1,1c-0.3,0-0.6,0-0.8-0.1c-0.6-0.1-1-0.3-1.2-0.5l-0.1-0.1
			c-0.3-0.4-3.5-3.6-6.1-5.7c-0.3-0.3-0.8-0.7-1.2-0.7c-0.2,0-0.4,0.1-0.6,0.3c-0.5,0.6,0.3,1.4,0.6,1.7l5.3,5.9
			c0,0.1-0.1,0.2-0.2,0.4c-0.2,0.3-0.8,0.9-2.8,1.2c-0.2,0-0.5,0-0.7,0c-2,0-4.1-1-5.2-1.5c0.5-1.1,0.8-2.2,0.8-3.4
			c0-4.4-3.6-8-7.9-8c-0.1,0-0.2,0-0.3,0c0.1-2-0.1-5.8-4-7.5c-1.1-0.5-2.2-0.7-3.3-0.7c-0.9,0-1.7,0.1-2.4,0.4
			c-0.8-1.6-2.1-2.7-3.9-3.3c-1-0.3-1.9-0.5-2.9-0.5c-1.6,0-3.1,0.5-4.4,1.4c-1.3-1.6-3.2-2.5-5.2-2.5c-1.8,0-3.5,0.7-4.7,2
			c-1.7-1.3-8.2-5.4-25.8-9.4c-0.8-0.2-2.7-0.7-3.9-1.1c0,0.1-0.1,0.3-0.1,0.4c0,0.1,0,0.1,0,0.2c1.2,0.3,3.1,0.9,4,1.1
			c19,4.2,24.9,8.6,26,9.5c1.2-1.3,2.8-2.1,4.7-2.1c2.1,0,4,1.1,5.1,2.7c1.1-0.9,2.6-1.6,4.5-1.6c0.9,0,1.8,0.2,2.7,0.5
			c2.1,0.7,3.2,2.2,3.8,3.4c0.7-0.3,1.6-0.6,2.6-0.6c1,0,2.1,0.2,3.2,0.7c3.5,1.5,4,4.9,3.7,7.5c0.2,0,0.5,0,0.8,0
			c4.1,0,7.5,3.4,7.5,7.5c0,1.3-0.3,2.5-0.9,3.6c1.1,0.6,4,2.1,6.5,1.8c2-0.3,2.8-0.9,3.1-1.3c0.2-0.3,0.4-0.6,0.2-0.8l-5.4-5.9
			c0,0-0.9-0.8-0.6-1.2c0.3-0.3,0.8,0.1,1.2,0.5c2.7,2.3,6.1,5.7,6.1,5.7c0.1,0,0.3,0.5,1.5,0.7c1.1,0.2,2.9,0.1,4.2-1
			c0.3-0.3,0.7-0.6,0.9-1c0,0,0,0-0.1,0.1c1.4-1.8-0.2-3.5-0.2-3.5l-6.3-7c0,0-0.9-0.8-0.6-1.2c0.3-0.3,0.8,0.1,1.2,0.5
			c2,1.7,4.8,4.5,7.5,7.1c0.5,0.4,2.9,1.8,6-0.2c1.9-1.2,2.3-2.8,2.2-3.9c-0.1-1.5-1.3-2.6-1.3-2.6l-8.5-8.6c0,0-0.9-0.8-0.6-1.2
			c0.3-0.3,0.8,0.1,1.2,0.5c2.7,2.3,10.1,9,10.1,9c0.1,0.1,2.6,1.9,5.8-0.1c1.1-0.7,1.8-1.8,1.9-3.1c0.1-2.2-1.4-3.5-1.4-3.5
			c-0.2-0.2-21.6-18.9-26.4-22.5c-2.8-2.1-4.4-2.6-6-2.8c-0.9-0.1-2,0-2.9,0.3c-2.3,0.6-5.2,2.6-7.8,4.7c-2.7,2.2-5.3,4.2-7.6,4.7
			c-3,0.7-6.7-0.1-8.4-1.3c-0.7-0.5-1.2-1-1.4-1.5c-0.6-1.4,0.5-2.6,0.7-2.8l5.9-6.4c0.7-0.7,1.4-1.4,2.1-2
			c-1.9,0.2-3.7,0.7-5.4,1.2c-2.1,0.6-4.2,1.2-6.3,1.2c-0.9,0-5.5-0.8-6.4-1c-5.3-1.5-10-2.9-17-6.2c0,0,0,0-0.1,0
			C18.3,18,17.9,18.3,17.4,18.6z"/>
		<path class="st0" d="M37.8,59.6c1.2,0,2.4-0.5,3.2-1.3c0,0,0,0.1,0,0.2c-0.2,1.1-0.6,5.3,3.8,7c1.8,0.7,3.3,0.2,4.5-0.7
			c0.4-0.3,0.4-0.2,0.4,0.2c-0.2,1.1,0,3.4,3.3,4.7c2.5,1,3.9,0,4.9-0.9c0.4-0.4,0.5-0.3,0.5,0.3c0.1,3.1,2.7,5.6,5.8,5.6
			c3.2,0,5.9-2.6,5.9-5.9c0-3.2-2.6-5.8-5.9-5.9c-1.3,0-2.8,0.8-3,0.7c-0.1-0.1,0.1-0.6,0.2-0.9c0.1-0.3,1.9-5.6-2.4-7.4
			c-3.3-1.4-5.2,0.2-5.9,0.9c-0.2,0.2-0.3,0.2-0.3-0.1c-0.1-0.9-0.5-3.5-3.3-4.4c-4-1.2-6.6,1.6-7.2,2.6c-0.3-2.3-2.2-4.1-4.6-4.1
			c-2.6,0-4.7,2.1-4.7,4.7C33.2,57.6,35.2,59.6,37.8,59.6z M37.8,50.8c2.1,0,3.9,1.6,4.2,3.7l0.1,1.1l0.6-1c0.1-0.1,1.8-2.7,4.9-2.7
			c0.6,0,1.2,0.1,1.8,0.3c2.5,0.8,2.9,3,3,4c0,0.6,0.4,0.6,0.5,0.6c0.2,0,0.4-0.1,0.5-0.3c0.5-0.5,1.5-1.3,3.1-1.3
			c0.7,0,1.5,0.2,2.3,0.5c4,1.7,2.2,6.8,2.2,6.8c-0.3,0.8-0.4,1.2,0,1.4l0.2,0.1h0.1c0.2,0,0.4-0.1,0.8-0.2c0.5-0.2,1.4-0.5,2.1-0.5
			h0c3,0,5.4,2.5,5.4,5.4c0,3-2.4,5.4-5.4,5.4c-2.9,0-5.3-2.3-5.4-5.2c0-0.2,0-0.9-0.6-0.9c-0.2,0-0.4,0.1-0.7,0.3
			c-0.6,0.6-1.5,1.2-2.7,1.2c-0.5,0-1.1-0.1-1.8-0.4c-3.1-1.3-3.1-3.4-3-4.2c0-0.2,0-0.5-0.1-0.7l-0.2-0.2h-0.2
			c-0.2,0-0.3,0.1-0.5,0.2c-0.9,0.6-1.8,0.9-2.6,0.9c-0.5,0-1-0.1-1.5-0.3c-4.1-1.6-3.8-5.4-3.6-6.6c0-0.2,0-0.4-0.2-0.5L41,57.8
			L40.8,58c-0.8,0.8-1.8,1.2-2.9,1.2c-2.3,0-4.2-1.9-4.2-4.2C33.6,52.6,35.5,50.8,37.8,50.8z"/>
	</g>
	<path class="st0" d="M369.2,34.5c-1.2,1.6-3,2.4-5.2,2.4c-2.3,0-4-0.8-5.2-2.4c-1.2-1.6-1.8-3.9-1.8-6.9s0.6-5.3,1.8-6.9
		c1.2-1.6,3-2.4,5.2-2.4c2.3,0,4,0.8,5.2,2.4c1.2,1.6,1.8,3.9,1.8,6.9S370.4,32.9,369.2,34.5z M375.4,16.5
		c-2.5-3.1-6.3-4.7-11.4-4.7c-5.1,0-8.9,1.6-11.4,4.7c-2.5,3.1-3.8,6.8-3.8,11.1c0,4.4,1.3,8.1,3.8,11.2c2.5,3.1,6.3,4.6,11.4,4.6
		c5.1,0,8.9-1.6,11.4-4.6c2.5-3.1,3.8-6.8,3.8-11.2C379.1,23.3,377.9,19.6,375.4,16.5"/>
	<path class="st0" d="M307.4,30.8c-0.1,2.6-0.8,4.4-2.2,5.4c-1.4,1-3,1.5-4.7,1.5c-1.1,0-2-0.3-2.7-0.9c-0.8-0.6-1.1-1.6-1.1-2.9
		c0-1.5,0.6-2.6,1.8-3.3c0.7-0.4,1.9-0.8,3.6-1.1l1.8-0.3c0.9-0.2,1.6-0.3,2.1-0.5c0.5-0.2,1-0.4,1.5-0.8V30.8z M311.3,13.8
		c-2.5-1.3-5.4-1.9-8.7-1.9c-5,0-8.6,1.3-10.6,3.9c-1.3,1.7-2,3.8-2.2,6.4h7.5c0.2-1.1,0.6-2.1,1.1-2.7c0.8-0.9,2.1-1.4,4-1.4
		c1.7,0,2.9,0.2,3.8,0.7c0.9,0.5,1.3,1.3,1.3,2.5c0,1-0.6,1.7-1.7,2.2c-0.6,0.3-1.7,0.5-3.1,0.7l-2.7,0.3c-3,0.4-5.3,1-6.9,1.9
		c-2.8,1.6-4.3,4.3-4.3,7.9c0,2.8,0.9,5,2.6,6.5c1.8,1.5,4,2.2,6.7,2.3c17,0.8,16.8-9,17-11V21.2C315.2,17.6,313.9,15.1,311.3,13.8"
		/>
	<path class="st0" d="M272.6,18.6c1.9,0,3.4,0.6,4.3,1.8c0.6,0.9,1,1.9,1.2,3h8.4c-0.5-4.2-1.9-7.2-4.4-8.9
		c-2.5-1.7-5.7-2.5-9.6-2.5c-4.6,0-8.2,1.4-10.9,4.2c-2.6,2.8-3.9,6.8-3.9,11.9c0,4.5,1.2,8.2,3.6,11c2.4,2.8,6.1,4.2,11.1,4.2
		c5,0,8.8-1.7,11.4-5.1c1.6-2.1,2.5-4.3,2.7-6.7H278c-0.2,1.6-0.7,2.8-1.5,3.8c-0.8,1-2.2,1.5-4.1,1.5c-2.7,0-4.5-1.2-5.5-3.7
		c-0.5-1.3-0.8-3.1-0.8-5.2c0-2.3,0.3-4.1,0.8-5.5C267.9,19.9,269.8,18.6,272.6,18.6"/>
	<path class="st0" d="M255.3,12c-17.2,0-16.2,15.2-16.2,15.2v15.5h7.8V28.2c0-2.4,0.3-4.1,0.9-5.3c1.1-2,3.2-3.1,6.3-3.1
		c0.2,0,0.5,0,0.9,0c0.4,0,0.8,0.1,1.3,0.1v-8c-0.3,0-0.6,0-0.7,0C255.6,12,255.5,12,255.3,12"/>
	<path class="st0" d="M216.1,20.1c1.1-1.1,2.6-1.7,4.6-1.7c1.8,0,3.4,0.5,4.6,1.6c1.2,1.1,1.9,2.6,2.1,4.7H214
		C214.3,22.8,215,21.2,216.1,20.1z M226.6,34.7c-0.3,0.5-0.7,0.9-1.1,1.2c-1.1,0.9-2.6,1.2-4.4,1.2c-1.7,0-3-0.3-4.2-1
		c-1.9-1.2-3-3.2-3.2-6.2h21.6c0-2.6-0.1-4.5-0.3-5.9c-0.4-2.3-1.1-4.4-2.4-6.1c-1.3-2-3.1-3.5-5.1-4.4c-2.1-0.9-4.4-1.4-7-1.4
		c-4.4,0-7.9,1.4-10.6,4.1c-2.7,2.7-4.1,6.7-4.1,11.8c0,5.5,1.5,9.5,4.5,11.9c3,2.4,6.5,3.7,10.5,3.7c4.8,0,8.5-1.4,11.2-4.3
		c1.4-1.5,2.3-3,2.7-4.5H226.6"/>
	<path class="st0" d="M202.9,42.7h-7.1v-18c0-1.6-0.5-5.5-5.2-5.5c-3.1,0-5.4,2.3-5.4,5.5v18h-7.1v-18c0-1.6-0.5-5.5-5.2-5.5
		c-3.2,0-5.4,2.3-5.4,5.5v18h-7.1V24.9c0-7.4,4.9-13,12.6-13c3.8,0,6.9,1.6,8.9,4.1c2.1-2.6,5.2-4.1,8.9-4.1c7.8,0,12.4,5.4,12.4,13
		V42.7"/>
	<path class="st0" d="M337.1,34.5c-1.1,1.6-2.8,2.5-5,2.5c-2.2,0-3.8-0.8-4.9-2.5c-1.1-1.6-1.6-4-1.6-6.8c0-2.5,0.5-4.7,1.6-6.4
		c1.1-1.7,2.7-2.6,5-2.6c1.5,0,2.8,0.5,3.9,1.4c1.8,1.6,2.8,4.4,2.8,8C338.8,30.8,338.2,32.9,337.1,34.5z M346.5,2.6
		c0,0-7.9-0.8-7.9,5.5l0,8.4c-0.9-1.4-2-2.5-3.4-3.3c-1.4-0.8-3-1.2-4.8-1.2c-3.9,0-7,1.5-9.4,4.4s-3.5,7.1-3.5,12.2
		c0,4.4,1.2,8,3.6,10.8c2.4,2.8,7,4,11.1,4c14.4,0,14.2-12.3,14.2-12.3L346.5,2.6"/>
	<path class="st0" d="M230.4,71.2c0-2.9-0.6-5.2-1.7-6.8c-1.1-1.6-2.8-2.4-4.9-2.4c-2.1,0-3.7,0.8-4.8,2.4c-1.1,1.4-1.6,3.7-1.6,6.8
		c0,2.9,0.6,5,1.7,6.5c1.1,1.6,2.8,2.4,4.9,2.4c2,0,3.6-0.8,4.7-2.4C229.8,76.1,230.4,73.9,230.4,71.2 M217.3,92.3
		c0,1.1-0.4,2-1.2,2.7c-0.8,0.8-1.7,1.1-2.8,1.1h-3.9V69c0-5.3,1.8-8.6,4.7-10.8c1.9-1.5,4.8-2.9,10.2-2.9c3.6,0,7.9,1.4,10.2,4.2
		c2.6,3.2,3.7,6.7,3.7,11.3c0,4.8-1.1,8.6-3.4,11.6c-2.3,2.9-5.2,4.3-8.9,4.3c-1.9,0-3.6-0.3-5.1-1c-1.5-0.8-2.8-1.9-3.7-3.5V92.3"
		/>
	<path class="st0" d="M277.2,71.2c0,5.2,1.5,8.1,4.5,8.7c3,0.6,5.2-0.1,6.7-2.1c0.7-0.8,1.2-2.1,1.5-3.9c0.3-1.8,0.3-3.5,0.1-5.3
		c-0.3-1.7-0.9-3.3-1.9-4.6c-1-1.4-2.4-2-4.3-2c-2.6,0-4.3,0.9-5.2,2.8C277.6,66.6,277.2,68.8,277.2,71.2 M290.1,84.2v-1.9
		c-1.4,2.1-3.2,3.4-5.5,4c-2.3,0.5-4.6,0.3-6.8-0.6c-2.3-0.9-4.2-2.6-5.8-5c-1.6-2.5-2.4-5.7-2.4-9.7c0-4.7,1.1-8.5,3.2-11.4
		c2.1-2.9,5.6-4.2,10.3-4.4c4.7-0.1,7.4,0.9,10,2.9c2.9,2.2,4.6,5.6,4.6,10.9v16c0,5.1-3.5,14.5-14.7,13.7
		c-6.9-0.5-10.7-3.3-12.9-9.7h8.2c0.6,1.1,1.5,1.9,2.8,2.4c1.2,0.6,2.5,0.7,3.7,0.5c1.2-0.3,2.4-1,3.4-2.2
		C289.3,88.5,289.9,86.6,290.1,84.2"/>
	<path class="st0" d="M258.9,74.4c-0.1,2.6-0.8,4.4-2.2,5.4c-1.4,1-3,1.5-4.7,1.5c-1.1,0-2-0.3-2.7-0.9c-0.8-0.6-1.1-1.6-1.1-2.9
		c0-1.5,0.6-2.6,1.8-3.3c0.7-0.4,1.9-0.8,3.6-1.1l1.8-0.3c0.9-0.2,1.6-0.3,2.1-0.5c0.5-0.2,1-0.4,1.5-0.7V74.4z M262.8,57.4
		c-2.5-1.3-5.4-1.9-8.7-1.9c-5,0-8.6,1.3-10.7,3.9c-1.3,1.7-2,3.8-2.2,6.4h7.5c0.2-1.2,0.6-2.1,1.1-2.7c0.8-0.9,2.1-1.4,4-1.4
		c1.7,0,2.9,0.2,3.8,0.7c0.9,0.5,1.3,1.3,1.3,2.5c0,1-0.6,1.7-1.7,2.2c-0.6,0.3-1.7,0.5-3.1,0.7l-2.7,0.3c-3,0.4-5.3,1-6.9,1.9
		c-2.8,1.6-4.3,4.3-4.3,7.9c0,2.8,0.9,5,2.7,6.5c1.8,1.5,4,2.2,6.7,2.3c17,0.8,16.8-9,17-11V64.7C266.6,61.1,265.4,58.7,262.8,57.4"
		/>
	<path class="st0" d="M321.1,77.9c-1.2,1.6-3,2.4-5.2,2.4c-2.3,0-4-0.8-5.2-2.4c-1.2-1.6-1.8-3.9-1.8-6.9s0.6-5.3,1.8-6.9
		c1.2-1.6,3-2.4,5.2-2.4c2.3,0,4,0.8,5.2,2.4s1.8,3.9,1.8,6.9S322.3,76.2,321.1,77.9 M327.3,59.8c-2.5-3.1-6.3-4.7-11.4-4.7
		c-5.1,0-8.9,1.6-11.4,4.7c-2.5,3.1-3.8,6.8-3.8,11.1c0,4.4,1.3,8.1,3.8,11.2c2.5,3.1,6.3,4.6,11.4,4.6c5.1,0,8.9-1.6,11.4-4.6
		c2.5-3.1,3.8-6.8,3.8-11.2C331,66.7,329.8,63,327.3,59.8"/>
</g>
</svg>
