<?xml version="1.0" encoding="utf-8"?>
<!-- Generator: Adobe Illustrator 27.0.0, SVG Export Plug-In . SVG Version: 6.00 Build 0)  -->
<svg version="1.1" id="Capa_1" xmlns:v="https://vecta.io/nano"
	 xmlns="http://www.w3.org/2000/svg" xmlns:xlink="http://www.w3.org/1999/xlink" x="0px" y="0px" viewBox="0 0 1280 339.3"
	 style="enable-background:new 0 0 1280 339.3;" xml:space="preserve">
<style type="text/css">
	.st0{fill:#FFFFFF;}
</style>
<g transform="translate(936.898 -21.779)">
	<g>
		<path class="st0" d="M-527.6,89.6c-2.6,0-4.9,1.9-5.3,4.5l-30.5,193.4c-0.4,2.7,1.4,5.2,4.1,5.7c0.3,0,0.5,0.1,0.8,0.1h36.2
			c2.6,0,4.9-1.9,5.3-4.5l9-56.8c0.4-2.6,2.6-4.5,5.3-4.5h32.9c38.4,0,71-28,77-66c6-38.3-23.9-71.7-66.3-71.8H-527.6z
			 M-492.4,132.8h26.3c21.7,0,28.7,12.8,26.5,26.9c-2.2,14.2-13.2,24.6-34.1,24.6h-26.8L-492.4,132.8z M-319.4,146
			c-9.1,0-19.6,1.9-31.4,6.8c-27.1,11.3-40.1,34.6-45.6,51.6c0,0-17.6,51.8,22.1,80.3c0,0,36.8,27.4,78.2-1.7l-0.7,4.5
			c-0.4,2.7,1.4,5.2,4.1,5.7c0.3,0,0.5,0.1,0.8,0.1h34.3c2.6,0,4.9-1.9,5.3-4.5l20.9-132.4c0.4-2.7-1.4-5.2-4.1-5.7
			c-0.3,0-0.5-0.1-0.8-0.1h-34.3c-2.6,0-4.9,1.9-5.3,4.5l-1.1,7.1C-277,162.2-292,145.9-319.4,146L-319.4,146z M-318.3,187.8
			c3.9,0,7.5,0.5,10.8,1.6c14.8,4.8,23.2,19,20.8,34.4c-3,19-18.6,33-38.5,33c-3.9,0-7.5-0.5-10.8-1.6c-14.8-4.8-23.3-19-20.8-34.4
			C-353.9,201.8-338.2,187.8-318.3,187.8L-318.3,187.8z"/>
	</g>
	<g>
		<path class="st0" d="M-33.2,89.6c-2.6,0-4.9,1.9-5.3,4.5L-69,287.5c-0.4,2.7,1.4,5.2,4.1,5.7c0.3,0,0.5,0.1,0.8,0.1H-28
			c2.6,0,4.9-1.9,5.3-4.5l9-56.8c0.4-2.6,2.6-4.5,5.3-4.5h32.9c38.4,0,71-28,77-66c6-38.3-23.9-71.7-66.3-71.8H-33.2z M1.9,132.8
			h26.3c21.7,0,28.7,12.8,26.5,26.9c-2.2,14.2-13.2,24.6-34.1,24.6H-6.2L1.9,132.8z M175,146c-9.1,0-19.6,1.9-31.4,6.8
			c-27.1,11.3-40.1,34.6-45.6,51.6c0,0-17.6,51.8,22.1,80.3c0,0,36.8,27.4,78.2-1.7l-0.7,4.5c-0.4,2.7,1.4,5.2,4.1,5.7
			c0.3,0,0.5,0.1,0.8,0.1h34.3c2.6,0,4.9-1.9,5.3-4.5L263,156.3c0.4-2.7-1.4-5.2-4.1-5.7c-0.3,0-0.5-0.1-0.8-0.1h-34.3
			c-2.6,0-4.9,1.9-5.3,4.5l-1.1,7.1C217.4,162.2,202.4,145.9,175,146L175,146z M176.1,187.8c3.9,0,7.5,0.5,10.8,1.6
			c14.8,4.8,23.2,19,20.8,34.4c-3,19-18.6,33-38.5,33c-3.9,0-7.5-0.5-10.8-1.6c-14.8-4.8-23.3-19-20.8-34.4
			C140.5,201.8,156.1,187.8,176.1,187.8L176.1,187.8z"/>
	</g>
	<g>
		<path class="st0" d="M-215.1,150.6c-2.7,0-4.7,2.7-3.8,5.2l37.6,116.8l-34,55c-1.7,2.7,0.3,6.1,3.4,6.1h40.2
			c2.3,0,4.5-1.2,5.7-3.2l105.1-173.9c1.6-2.7-0.3-6.1-3.4-6.1h-40.2c-2.4,0-4.5,1.3-5.8,3.3l-41.4,69.9l-21-69.3
			c-0.7-2.3-2.8-3.8-5.1-3.8L-215.1,150.6z"/>
	</g>
	<g>
		<path class="st0" d="M302,89.6c-2.6,0-4.9,1.9-5.3,4.5l-30.5,193.4c-0.4,2.7,1.4,5.2,4.1,5.7c0.3,0,0.5,0.1,0.8,0.1h36.2
			c2.6,0,4.9-1.9,5.3-4.5L343,95.4c0.4-2.7-1.4-5.2-4.1-5.7c-0.3,0-0.5-0.1-0.8-0.1L302,89.6z"/>
	</g>
	<g>
		<g>
			<path class="st0" d="M-850.8,200.3l-15.3,96.9l0,0l-9,54.7c-0.7,4.3,2.3,8.4,6.6,9.1c0.4,0.1,0.8,0.1,1.3,0.1h47.4
				c4.8,0,8.9-3.5,9.7-8.3l13.4-85.3c0.8-4.8,4.9-8.3,9.7-8.3h30.1c47.3,0,87.5-34.5,94.8-81.3c5-31.7-10-60.6-36.2-76.2
				c-0.1,3-0.4,6-0.9,9c-3.7,23.6-15.7,45.1-33.8,60.6c-18.1,15.5-41.2,24.1-65,24.1h-47c-2.4,0-4.6,1.5-5.4,3.8l-0.1,0.2
				c0,0.1-0.1,0.3-0.1,0.4L-850.8,200.3"/>
			<path class="st0" d="M-845.1,187.4h47c21.9,0,43.2-7.9,59.8-22.2c16.6-14.3,27.7-34.1,31.1-55.8c0.5-3.3,0.8-6.7,0.9-10
				c0.4-18.9-6.8-36.8-20.1-50.3C-741.2,34.1-762,25.8-785,25.8h-102.1c-2.9,0-5.3,2-5.7,4.9l-40.1,254c-0.2,1.2,0.1,2.3,0.9,3.2
				c0.8,0.9,1.8,1.4,3,1.4h56l14.2-90.2c0-0.2,0.1-0.4,0.1-0.6l0-0.1c0-0.2,0.1-0.4,0.1-0.5c0.1-0.3,0.2-0.6,0.3-0.9
				c0,0,0-0.2,0.1-0.3C-856.2,191.1-851,187.4-845.1,187.4z"/>
			<polygon class="st0" points="-702.3,99.6 -702.3,99.6 -702.3,99.6 			"/>
			<path class="st0" d="M-858.1,196.6c0,0.1-0.1,0.2-0.1,0.3c-0.1,0.3-0.2,0.6-0.3,0.9c0,0.1-0.1,0.3-0.1,0.5l0,0.1
				c0,0.2-0.1,0.4-0.1,0.6l-14.2,90.2h-56c-1.2,0-2.2-0.5-3-1.4c-0.8-0.9-1.1-2-0.9-3.2l40.1-254c0.4-2.8,2.8-4.9,5.7-4.9H-785
				c23,0,43.8,8.3,58.6,23.4c13.3,13.6,20.4,31.4,20.1,50.3c-0.1,3.3-0.4,6.7-0.9,10c-3.4,21.7-14.4,41.5-31.1,55.8
				c-16.6,14.3-37.9,22.2-59.8,22.2h-47C-851,187.4-856.2,191.1-858.1,196.6z"/>
		</g>
		<g>
			<line class="st0" x1="-850.5" y1="199.2" x2="-850.6" y2="199.4"/>
			<path class="st0" d="M-858.2,196.9c0,0,0-0.2,0.1-0.3"/>
		</g>
		<g>
			<polyline class="st0" points="-850.7,199.8 -850.7,199.7 -850.8,200 			"/>
			<path class="st0" d="M-858.6,198.3c0-0.2,0.1-0.3,0.1-0.5"/>
		</g>
	</g>
</g>
</svg>
