<?xml version="1.0" encoding="utf-8"?>
<!-- Generator: Adobe Illustrator 17.0.0, SVG Export Plug-In . SVG Version: 6.00 Build 0)  -->
<!DOCTYPE svg PUBLIC "-//W3C//DTD SVG 1.1//EN" "http://www.w3.org/Graphics/SVG/1.1/DTD/svg11.dtd">
<svg version="1.1" id="Layer_1" xmlns="http://www.w3.org/2000/svg" xmlns:xlink="http://www.w3.org/1999/xlink" x="0px" y="0px"
	 width="550px" height="100px" viewBox="0 0 552 102" enable-background="new 0 0 552 102" xml:space="preserve">
<g>
	<path fill-rule="evenodd" clip-rule="evenodd" fill="#231F20" d="M189.049,46.38c-1.334,1.461-0.073,1.311,2.494,1.728
		c6.938,1.127,8.358,4.619,6.558,8.875l-11.184,26.434c-0.515,1.215-1.917,2.201-3.134,2.201h-23.487
		c-1.216,0-1.784-0.986-1.27-2.201l8.824-20.797c0.676-1.594,2.178-6.207-3.872-6.207h-4.724c-1.277,0-2.425,0.841-3.179,2.627
		l-10.304,24.377c-0.515,1.215-1.917,2.201-3.135,2.201h-21.978c-1.216,0-1.785-0.986-1.27-2.201l26.656-63.063
		c0.514-1.216,1.917-2.202,3.133-2.202h21.979c1.215,0,1.785,0.986,1.271,2.202l-9.499,22.475c-0.693,1.636,0.361,2.308,1.915,0.598
		L186.315,19.8c1.109-1.219,1.919-1.647,3.135-1.647h22.216c1.85,0,1.609,1.689,0.942,2.418L189.049,46.38z"/>
	<path fill-rule="evenodd" clip-rule="evenodd" fill="#231F20" d="M204.682,85.271c-4.564-0.74-7.03-2.625-5.199-6.959l8.256-19.526
		c2.939-6.947,7.992-9.466,18.864-10.33c7.643-0.604,22.408-0.891,30.048,0.272c4.213,0.643,7.98,2.422,6.046,7.009l-8.18,19.398
		c-2.977,7.057-7.879,9.756-18.761,10.482C224.802,86.349,209.194,86.001,204.682,85.271 M238.587,52.69
		c-4.276-0.084-8.05-0.149-9.794,3.973l-8.979,21.238c-1.154,2.73-0.043,3.377,4.365,3.416c5.422,0.047,7.721-0.359,9.287-4.061
		l8.987-21.24C243.355,53.886,242.241,52.763,238.587,52.69"/>
	<path fill-rule="evenodd" clip-rule="evenodd" fill="#231F20" d="M295.143,47.829c-0.742,1.756-0.923,2.809,3.519,1.893
		c3.927-0.809,11.428-1.779,19.053-0.994c4.238,0.438,7.979,2.422,6.046,7.009l-8.179,19.398c-2.979,7.057-7.654,9.92-18.764,10.482
		c-11.549,0.586-13.754-2.326-15.623-2.27c-1.666,0.054-3.06,2.27-5.036,2.27h-15.352c-0.927,0-1.359-0.752-0.969-1.68
		l20.323-48.078c0.391-0.928,1.461-1.679,2.39-1.679h16.681c0.93,0,1.363,0.751,0.971,1.679L295.143,47.829z M298.294,53.108
		c-4.232,0.421-5.897,0.933-7.521,4.784l-7.759,18.39c-0.634,1.506-0.62,3.056,0.763,3.966c0.933,0.613,3.025,1.213,6.945,0.549
		c1.629-0.275,2.991-1.324,3.892-3.455l8.983-21.236C304.503,53.971,303.205,52.621,298.294,53.108"/>
	<path fill-rule="evenodd" clip-rule="evenodd" fill="#231F20" d="M341.056,83.941c-0.391,0.928-1.459,1.678-2.387,1.678h-16.754
		c-0.926,0-1.359-0.75-0.967-1.678l20.316-48.069c0.395-0.928,1.461-1.678,2.389-1.678h16.748c0.93,0,1.359,0.75,0.969,1.677
		L341.056,83.941z"/>
	<path fill-rule="evenodd" clip-rule="evenodd" fill="#231F20" d="M379.235,69.222c-1.763,0-2.696,0.902-3.393,2.548l-2.66,6.283
		c-1.158,2.731-0.041,3.377,4.366,3.413c5.419,0.049,7.714-0.359,9.276-4.06c0.826-1.947,1.149-2.835,3.319-2.835h15.827
		c1.103,0,2.31,0.528,0.869,2.86c-3.303,5.335-8.013,7.689-17.717,8.338c-10.954,0.731-26.563,0.384-31.071-0.349
		c-4.566-0.74-7.033-2.626-5.2-6.957l8.256-19.527c2.938-6.949,7.99-9.467,18.863-10.33c7.64-0.605,22.406-0.892,30.048,0.273
		c4.21,0.643,7.981,2.422,6.046,7.009l-4.777,11.326c-0.604,1.435-1.533,2.01-2.887,2.01L379.235,69.222z M391.952,52.841
		c-4.275-0.084-8.051-0.147-9.794,3.975l-2.515,5.951c-0.696,1.641-0.395,2.676,1.27,2.676h7.85c2.255,0,3.552-0.996,4.364-2.916
		l2.689-6.356C396.722,54.036,395.607,52.913,391.952,52.841"/>
	<path fill-rule="evenodd" clip-rule="evenodd" fill="#231F20" d="M490.697,48.534c-0.808,0-1.183,0.808-1.492,1.554l-0.621,1.489
		c-0.247,0.623,0,1.12,0.685,1.12h17.709c0.994,0,0.994,0.871,0.373,1.366l-29.639,24.796c-3.777,3.156-1.738,6.772,0.865,6.772
		h41.326c0.807,0,1.492-0.435,1.803-1.179l0.934-2.113c0.121-0.435-0.129-0.871-0.748-0.871h-19.639
		c-0.742,0-0.742-0.808-0.434-1.055l30.391-25.417c3.975-3.355,2.172-6.463-0.75-6.463H490.697z"/>
	<path fill-rule="evenodd" clip-rule="evenodd" fill="#231F20" d="M477.077,55.911l-11.919,28.105
		c-0.374,0.87-1.37,1.614-2.236,1.614h-16.907c-0.867,0-1.24-0.744-0.867-1.614l11-25.975c1.925-4.475-1.119-4.971-5.034-4.971
		c-3.419-0.064-6.651,0.371-8.08,3.789l-11.558,27.156c-0.375,0.87-1.366,1.614-2.237,1.614h-16.842
		c-0.931,0-1.304-0.744-0.931-1.614l14.169-33.495c0.683-1.491,1.987-1.988,3.854-1.988h17.022
		c-0.496,1.243,1.619,1.988,4.291,1.429c8.574-1.74,15.908-1.865,21.813-0.995C479.427,49.972,478.044,53.634,477.077,55.911"/>
	<path fill-rule="evenodd" clip-rule="evenodd" fill="#E63530" d="M96.36,2.206H8.121c-3.898,0-7.058,3.16-7.058,7.058v85.474
		c0,3.896,3.159,7.057,7.058,7.057H96.36c3.898,0,7.058-3.16,7.058-7.057V9.263C103.418,5.366,100.258,2.206,96.36,2.206z
		 M55.609,22.121c0-2.333,1.502-3.806,3.687-3.806h21.676c3.51,0,4.236,3.111,1.869,5.457L61.187,45.209
		c-1.993,1.972-5.579,2.384-5.579-2.042L55.609,22.121z M48.872,82.154c0,1.951-1.579,3.533-3.531,3.533H20.792
		c-1.95,0-3.534-1.582-3.534-3.533V21.846c0-1.949,1.583-3.533,3.534-3.533h24.549c1.951,0,3.531,1.584,3.531,3.533V82.154z
		 M87.222,82.154c0,1.951-1.581,3.533-3.533,3.533H59.14c-1.95,0-3.532-1.582-3.532-3.533V55.8c0-1.951,1.581-3.533,3.532-3.533
		h24.549c1.952,0,3.533,1.582,3.533,3.533V82.154z"/>
	<path fill-rule="evenodd" clip-rule="evenodd" fill="#231F20" d="M541.756,43.959v-7.62h3.379c0.679,0,1.195,0.068,1.55,0.208
		c0.351,0.136,0.634,0.376,0.848,0.723c0.209,0.345,0.318,0.729,0.318,1.147c0,0.542-0.179,0.997-0.527,1.368
		c-0.351,0.37-0.893,0.607-1.619,0.709c0.264,0.125,0.467,0.252,0.605,0.378c0.296,0.27,0.574,0.609,0.837,1.013l1.325,2.074h-1.268
		l-1.008-1.586c-0.295-0.456-0.536-0.807-0.727-1.049c-0.193-0.244-0.364-0.412-0.519-0.511c-0.146-0.097-0.3-0.164-0.456-0.202
		c-0.114-0.023-0.302-0.037-0.559-0.037h-1.174v3.384H541.756z M542.763,39.701h2.17c0.46,0,0.822-0.046,1.081-0.14
		c0.263-0.097,0.458-0.25,0.595-0.456c0.131-0.213,0.203-0.439,0.203-0.688c0-0.36-0.133-0.656-0.398-0.887
		c-0.26-0.234-0.672-0.351-1.234-0.351h-2.416V39.701z M538.944,40.396c0-3.1,2.512-5.614,5.616-5.614
		c3.101,0,5.612,2.514,5.612,5.614c0,3.102-2.512,5.616-5.612,5.616C541.455,46.012,538.944,43.498,538.944,40.396 M538.18,40.396
		c0-3.521,2.855-6.377,6.38-6.377c3.52,0,6.377,2.856,6.377,6.377c0,3.522-2.857,6.379-6.377,6.379
		C541.035,46.775,538.18,43.918,538.18,40.396"/>
</g>
</svg>
